{"glyphs":{"0":{"ha":958,"x_min":83,"x_max":875,"o":"m 196 831 q 252 893 196 831 q 481 956 308 956 q 764 831 653 956 q 875 476 875 707 q 763 117 875 244 q 481 -11 651 -11 q 197 117 310 -11 q 83 475 83 244 q 196 831 83 706 m 744 472 q 744 560 744 472 q 669 748 744 649 q 479 847 593 847 q 291 748 365 847 q 217 472 217 649 q 286 195 217 294 q 480 96 356 96 q 674 195 604 96 q 744 472 744 294 z "},"1":{"ha":453,"x_min":97,"x_max":356,"o":"m 154 943 l 297 943 q 356 893 356 943 l 356 53 q 297 0 356 0 l 288 0 q 229 53 229 0 l 229 839 l 154 839 q 97 891 97 839 q 154 943 97 943 z "},"2":{"ha":771,"x_min":69,"x_max":700,"o":"m 89 743 q 168 892 89 828 q 386 956 247 956 q 601 883 525 956 q 678 703 678 810 q 607 505 678 596 q 290 175 536 414 q 218 104 243 129 l 642 104 q 700 52 700 104 q 642 0 700 0 l 126 0 q 69 60 69 0 q 114 143 69 110 q 476 506 389 404 q 564 684 564 608 q 512 805 564 760 q 369 850 460 850 q 226 794 278 850 q 167 676 175 739 q 89 743 89 676 z "},"3":{"ha":799,"x_min":56,"x_max":738,"o":"m 97 774 q 97 804 97 774 q 169 895 97 835 q 393 956 242 956 q 617 885 544 956 q 689 728 689 814 q 644 583 689 642 q 529 504 599 524 q 676 429 615 486 q 738 278 738 372 q 628 69 738 150 q 372 -11 519 -11 q 140 28 224 -11 q 56 124 56 67 q 118 199 56 181 q 358 93 158 93 q 542 140 463 93 q 621 270 621 188 q 547 394 621 353 q 371 435 474 435 l 313 435 q 250 485 250 435 q 313 539 250 539 l 371 539 q 515 583 457 539 q 572 694 572 626 q 524 806 572 761 q 387 851 476 851 q 244 814 297 851 q 171 713 190 776 q 97 774 97 713 z "},"4":{"ha":888,"x_min":69,"x_max":818,"o":"m 636 947 l 639 947 q 690 890 690 947 l 690 344 l 763 344 q 818 292 818 344 q 763 240 818 240 l 690 240 l 690 51 q 677 12 690 24 q 632 0 664 0 l 624 0 q 581 12 593 0 q 569 51 569 24 l 569 240 l 119 240 q 69 282 69 240 q 90 338 69 310 q 522 857 256 544 q 542 882 528 867 l 565 908 q 636 947 600 947 m 569 344 l 569 764 q 403 565 525 711 q 218 344 281 418 l 569 344 z "},"5":{"ha":779,"x_min":61,"x_max":724,"o":"m 219 943 l 644 943 q 700 890 700 943 q 644 838 700 838 l 261 838 l 240 561 q 407 581 307 581 q 635 510 546 581 q 724 301 724 439 q 619 76 724 164 q 367 -11 515 -11 q 140 26 219 -11 q 61 129 61 63 q 119 199 61 179 q 206 119 138 144 q 373 93 275 93 q 543 147 471 93 q 615 295 615 201 q 552 433 615 389 q 403 478 489 478 q 218 449 317 478 q 187 444 206 444 q 150 462 168 444 q 132 507 132 479 l 163 892 q 177 931 165 919 q 219 943 189 943 z "},"6":{"ha":872,"x_min":83,"x_max":789,"o":"m 172 779 q 300 908 217 860 q 499 956 383 956 q 683 908 614 956 q 751 813 751 860 q 692 750 751 765 q 575 846 643 826 q 478 856 539 856 q 358 819 417 856 q 265 725 299 783 q 199 469 199 608 q 315 564 239 526 q 475 601 390 601 q 713 521 638 601 q 789 309 789 440 q 702 83 789 178 q 440 -11 615 -11 q 174 104 265 -11 q 83 422 83 219 q 172 779 83 622 m 446 503 q 278 449 346 503 q 211 319 211 394 q 264 174 211 246 q 338 115 290 138 q 446 92 386 92 q 619 152 565 92 q 674 307 674 213 q 446 503 674 503 z "},"7":{"ha":776,"x_min":56,"x_max":721,"o":"m 111 943 l 664 943 q 721 889 721 943 q 671 769 721 865 q 303 40 465 364 q 232 0 282 0 l 211 0 q 167 32 167 0 q 183 85 167 57 q 574 836 217 140 l 111 836 q 56 890 56 836 q 111 943 56 943 z "},"8":{"ha":842,"x_min":69,"x_max":772,"o":"m 103 696 q 195 877 103 806 q 423 949 288 949 q 647 877 558 949 q 736 696 736 806 q 578 496 736 553 q 715 410 658 468 q 772 260 772 351 q 678 63 772 139 q 423 -12 583 -12 q 166 63 263 -12 q 69 260 69 139 q 125 410 69 351 q 260 496 181 469 q 103 696 103 554 m 613 689 q 613 724 613 689 q 560 805 613 760 q 424 850 507 850 q 286 805 342 850 q 231 688 231 760 q 280 575 231 617 q 422 533 329 533 q 564 576 515 533 q 613 689 613 618 m 646 263 q 646 304 646 263 q 584 394 646 344 q 423 443 522 443 q 260 394 324 443 q 196 263 196 344 q 259 133 196 182 q 422 85 322 85 q 584 133 522 85 q 646 263 646 182 z "},"9":{"ha":872,"x_min":83,"x_max":789,"o":"m 83 633 q 83 697 83 633 q 178 858 83 761 q 437 956 274 956 q 694 839 600 956 q 789 522 789 722 q 700 165 789 322 q 572 37 656 85 q 374 -11 489 -11 q 190 37 258 -11 q 121 132 121 85 q 181 194 121 179 q 297 99 229 118 q 394 89 333 89 q 515 125 456 89 q 607 219 574 161 q 674 475 674 336 q 558 381 633 418 q 397 343 482 343 q 159 424 235 343 q 83 633 83 504 m 426 853 q 259 790 319 853 q 199 638 199 728 q 426 442 199 442 q 594 496 526 442 q 661 625 661 550 q 608 771 661 699 q 534 830 582 807 q 426 853 486 853 z "},"!":{"ha":363,"x_min":90,"x_max":272,"o":"m 186 285 l 179 285 q 133 333 133 285 l 106 876 q 171 943 106 943 l 193 943 q 258 876 258 943 l 232 333 q 186 285 231 285 m 90 79 q 90 99 90 79 q 117 144 90 119 q 181 169 143 169 q 246 144 219 169 q 272 79 272 119 q 246 14 272 39 q 181 -11 219 -11 q 117 14 143 -11 q 90 79 90 39 z "},"\"":{"ha":456,"x_min":76,"x_max":382,"o":"m 143 678 l 129 678 q 96 714 100 678 l 76 922 l 76 931 q 113 965 76 965 l 158 965 q 185 955 175 965 q 196 928 196 944 l 196 922 l 176 714 q 143 678 172 678 m 329 678 l 315 678 q 282 714 286 678 l 263 922 l 263 931 q 299 965 263 965 l 344 965 q 372 955 361 965 q 382 928 382 944 l 382 922 l 363 714 q 329 678 358 678 z "},"#":{"ha":956,"x_min":14,"x_max":935,"o":"m 175 0 l 167 0 q 122 32 122 0 q 181 233 122 49 l 68 233 q 14 284 14 233 q 67 336 14 335 l 214 336 l 294 592 l 174 592 q 119 646 119 592 q 174 697 119 693 l 329 697 q 392 897 356 797 q 456 942 407 942 l 464 942 q 510 913 510 942 q 444 697 510 885 l 640 697 l 706 897 q 769 942 721 942 l 776 942 q 822 910 822 942 q 757 697 822 908 l 881 697 q 935 645 935 697 q 881 592 935 593 l 725 592 l 643 336 l 774 336 q 826 285 826 336 q 774 233 826 238 l 610 233 q 581 138 603 213 q 551 43 558 63 q 488 0 536 0 l 481 0 q 433 32 433 0 q 438 54 433 42 l 494 233 l 299 233 q 238 44 263 117 q 175 0 222 0 m 413 592 l 331 336 l 526 336 q 570 475 536 369 q 608 592 604 581 l 413 592 z "},"$":{"ha":825,"x_min":79,"x_max":747,"o":"m 411 1026 q 358 978 358 1026 l 358 518 l 472 518 l 472 978 q 419 1026 472 1026 l 411 1026 m 358 465 l 472 465 l 472 -36 q 460 -76 472 -64 q 419 -87 447 -87 l 411 -87 q 370 -76 382 -87 q 358 -36 358 -65 l 358 465 m 85 698 q 85 750 85 698 q 179 878 85 803 q 412 953 274 953 q 624 919 550 953 q 697 835 697 885 q 636 772 697 785 q 424 851 583 851 q 269 808 329 851 q 210 701 210 764 q 258 606 210 639 q 401 548 307 572 q 545 504 494 524 q 647 453 596 485 q 747 269 747 392 q 647 67 747 146 q 397 -11 547 -11 q 163 28 247 -11 q 79 123 79 68 q 150 196 79 178 q 382 92 201 92 q 562 138 497 92 q 626 258 626 185 q 562 369 626 331 q 360 442 497 408 q 154 535 224 476 q 85 698 85 593 z "},"%":{"ha":1021,"x_min":69,"x_max":951,"o":"m 631 332 q 658 357 631 332 q 764 382 686 382 q 897 332 842 382 q 951 191 951 282 q 897 50 951 100 q 764 0 842 0 q 631 50 686 0 q 575 191 575 100 q 631 332 575 282 m 838 274 q 823 288 838 274 q 764 303 808 303 q 690 274 719 303 q 661 192 661 244 q 690 109 661 139 q 764 79 719 79 q 838 109 808 79 q 867 192 867 139 q 838 274 867 244 m 125 896 q 153 921 125 896 q 258 946 181 946 q 391 896 336 946 q 446 755 446 846 q 391 614 446 664 q 258 564 336 564 q 125 614 181 564 q 69 755 69 664 q 125 896 69 846 m 332 838 q 317 852 332 838 q 258 867 303 867 q 185 838 214 867 q 156 756 156 808 q 185 673 156 703 q 258 643 214 643 q 332 673 303 643 q 361 756 361 703 q 332 838 361 808 m 910 954 q 929 920 929 938 q 914 885 929 903 l 200 28 q 161 4 181 4 q 127 19 142 4 q 113 50 113 35 q 128 85 113 65 l 842 943 q 876 965 860 965 q 910 954 892 965 z "},"&":{"ha":910,"x_min":86,"x_max":872,"o":"m 700 465 l 708 469 q 797 318 797 422 q 758 160 797 232 q 835 77 814 101 q 864 43 856 53 q 872 21 872 33 q 843 0 872 0 l 801 0 q 740 35 775 0 q 694 79 704 71 q 433 -18 599 -18 q 177 61 268 -18 q 86 247 86 140 q 135 394 86 332 q 288 514 185 457 q 194 624 222 579 q 165 729 165 669 q 230 889 165 822 q 401 956 294 956 q 576 888 508 956 q 644 735 644 821 q 591 597 644 650 q 436 493 538 544 q 689 224 683 229 q 719 340 719 281 q 700 465 719 399 m 425 72 q 631 149 561 72 l 346 444 q 199 247 199 378 q 260 125 199 178 q 425 72 321 72 m 276 729 q 382 560 276 656 q 502 636 464 600 q 540 727 540 672 q 502 819 540 782 q 404 856 464 856 q 310 821 344 856 q 276 729 276 786 z "},"'":{"ha":272,"x_min":76,"x_max":196,"o":"m 143 678 l 129 678 q 96 714 100 678 l 76 922 l 76 931 q 113 965 76 965 l 158 965 q 185 955 175 965 q 196 928 196 944 l 196 922 l 176 714 q 143 678 172 678 z "},"(":{"ha":485,"x_min":100,"x_max":436,"o":"m 418 -215 q 436 -255 436 -229 q 419 -297 436 -281 q 378 -314 403 -314 q 313 -271 353 -314 q 100 294 100 -51 l 100 367 q 163 706 100 554 q 338 960 226 858 q 380 975 357 975 q 419 958 403 975 q 436 917 436 942 q 418 876 436 893 q 224 367 224 693 l 224 294 q 418 -215 224 -32 z "},")":{"ha":485,"x_min":47,"x_max":385,"o":"m 260 294 l 260 367 q 65 876 260 696 q 47 919 47 894 q 64 959 47 943 q 97 975 81 975 q 122 973 114 975 q 137 965 129 971 q 148 957 144 960 q 160 944 151 954 q 172 932 169 935 q 328 686 272 831 q 385 367 385 542 l 385 294 q 172 -271 385 -51 q 105 -314 129 -314 q 64 -297 81 -314 q 47 -256 47 -281 q 65 -215 47 -231 q 260 294 260 -35 z "},"*":{"ha":700,"x_min":90,"x_max":610,"o":"m 90 797 q 107 833 90 814 q 143 851 124 851 q 300 760 163 851 l 300 924 q 351 972 300 972 q 401 924 401 972 l 401 760 q 431 780 406 763 q 470 806 457 797 q 504 828 483 814 q 560 851 543 851 q 594 833 578 851 q 610 800 610 814 q 598 774 610 786 q 563 746 586 761 q 519 720 539 731 q 467 693 499 710 q 425 671 436 676 q 481 617 435 660 q 572 501 572 529 q 555 469 572 486 q 524 451 538 451 q 493 462 510 451 q 456 493 476 472 q 419 531 435 514 q 380 574 403 547 q 350 607 357 600 q 203 463 247 489 q 173 453 188 453 q 142 471 158 453 q 126 503 126 489 q 149 545 126 518 q 220 618 172 572 q 275 671 268 664 q 251 683 268 674 q 225 697 235 692 q 198 711 215 701 q 169 728 181 721 l 146 742 q 90 797 90 775 z "},"+":{"ha":788,"x_min":69,"x_max":732,"o":"m 353 624 q 399 675 353 675 q 444 624 444 675 l 444 392 l 681 392 q 732 346 732 392 q 681 300 732 300 l 444 300 l 444 64 q 399 13 444 13 q 353 64 353 13 l 353 300 l 121 300 q 69 346 69 300 q 121 392 69 392 l 353 392 l 353 624 z "},",":{"ha":363,"x_min":81,"x_max":282,"o":"m 151 7 q 139 7 151 7 q 108 29 126 7 q 90 85 90 51 q 117 144 90 119 q 183 169 143 169 q 252 138 222 169 q 282 53 282 107 q 236 -99 282 -36 q 126 -162 190 -162 q 81 -129 81 -162 q 156 -80 126 -118 q 186 13 186 -42 q 151 7 175 7 z "},"-":{"ha":611,"x_min":69,"x_max":542,"o":"m 121 454 l 490 454 q 542 408 542 454 q 490 363 542 363 l 121 363 q 69 408 69 363 q 121 454 69 454 z "},".":{"ha":363,"x_min":90,"x_max":272,"o":"m 90 79 q 90 99 90 79 q 117 144 90 119 q 181 169 143 169 q 246 144 219 169 q 272 79 272 119 q 246 14 272 39 q 181 -11 219 -11 q 117 14 143 -11 q 90 79 90 39 z "},"/":{"ha":524,"x_min":43,"x_max":482,"o":"m 482 947 q 478 922 482 935 l 135 24 q 95 -12 119 -12 q 57 1 71 -12 q 43 28 43 14 q 49 56 43 43 l 390 954 q 433 990 403 990 q 453 986 442 990 q 482 947 482 976 z "},":":{"ha":363,"x_min":90,"x_max":272,"o":"m 90 79 q 90 99 90 79 q 117 144 90 119 q 181 169 143 169 q 246 144 219 169 q 272 79 272 119 q 246 14 272 39 q 181 -11 219 -11 q 117 14 143 -11 q 90 79 90 39 m 90 549 q 90 569 90 549 q 117 614 90 589 q 181 639 143 639 q 246 614 219 639 q 272 549 272 589 q 246 483 272 508 q 181 458 219 458 q 117 483 143 458 q 90 549 90 508 z "},";":{"ha":363,"x_min":81,"x_max":282,"o":"m 151 7 q 139 7 151 7 q 108 29 126 7 q 90 85 90 51 q 117 144 90 119 q 183 169 143 169 q 252 138 222 169 q 282 53 282 107 q 236 -99 282 -36 q 126 -162 190 -162 q 81 -129 81 -162 q 156 -80 126 -118 q 186 13 186 -42 q 151 7 175 7 m 90 547 q 90 567 90 547 q 117 613 90 588 q 181 638 143 638 q 246 613 219 638 q 272 547 272 588 q 246 482 272 507 q 181 457 219 457 q 117 482 143 457 q 90 547 90 507 z "},"<":{"ha":767,"x_min":111,"x_max":672,"o":"m 640 739 q 672 692 672 739 l 672 685 q 629 625 672 640 q 404 531 550 596 q 236 456 258 465 l 236 429 q 631 260 556 292 q 672 201 672 242 l 672 194 q 639 147 672 147 q 438 230 626 147 q 197 334 249 313 q 128 376 144 356 q 111 432 111 396 l 111 453 q 127 508 111 490 q 199 551 143 526 q 582 719 256 576 q 640 739 628 739 z "},"=":{"ha":732,"x_min":69,"x_max":663,"o":"m 121 543 l 611 543 q 663 497 663 543 q 611 451 663 451 l 121 451 q 69 497 69 451 q 121 543 69 543 m 121 297 l 611 297 q 663 251 663 297 q 611 206 663 206 l 121 206 q 69 251 69 206 q 121 297 69 297 z "},">":{"ha":768,"x_min":94,"x_max":657,"o":"m 657 453 l 657 432 q 641 376 657 394 q 586 340 625 357 l 186 167 q 128 147 140 147 q 94 194 94 147 l 94 201 q 138 260 94 240 q 532 429 457 396 l 532 456 q 328 543 461 486 q 139 625 196 600 q 94 685 94 639 l 94 692 q 126 739 94 739 q 156 733 142 739 q 565 553 507 578 q 640 508 624 528 q 657 453 657 488 z "},"?":{"ha":663,"x_min":56,"x_max":607,"o":"m 344 365 l 344 349 q 290 296 344 296 l 283 296 q 228 349 228 296 l 228 365 q 237 424 228 406 q 249 453 246 443 q 266 476 253 463 q 284 495 279 489 q 308 515 289 501 q 331 533 326 529 q 385 570 346 543 q 444 611 425 597 q 479 650 463 625 q 496 701 496 675 q 448 808 496 768 q 318 849 400 849 q 194 819 236 849 q 131 731 153 789 q 77 747 99 731 q 56 790 56 764 q 129 903 56 854 q 333 951 203 951 q 535 882 463 951 q 607 706 607 813 q 580 607 607 651 q 514 533 553 563 q 436 478 475 504 q 344 365 344 417 m 194 79 q 194 99 194 79 q 221 144 194 119 q 285 169 247 169 q 350 144 324 169 q 376 79 376 119 q 350 14 376 39 q 285 -11 324 -11 q 221 14 247 -11 q 194 79 194 39 z "},"@":{"ha":1074,"x_min":81,"x_max":1004,"o":"m 518 196 q 351 264 414 196 q 288 455 288 332 q 356 644 288 578 q 520 710 424 710 q 681 688 617 710 q 744 614 744 665 l 744 350 q 760 306 744 321 q 801 290 776 290 q 892 467 892 290 q 788 743 892 643 q 542 843 685 843 q 297 743 400 843 q 193 461 193 643 q 290 176 193 279 q 525 74 386 74 q 711 154 688 74 q 758 101 758 147 q 697 16 758 54 q 522 -22 636 -22 q 207 106 333 -22 q 81 461 81 233 q 149 728 81 615 q 319 894 217 842 q 526 947 422 947 q 713 916 631 947 q 860 826 794 885 q 965 672 925 767 q 1004 453 1004 578 q 945 261 1004 328 q 797 194 886 194 q 709 215 744 194 q 661 257 674 236 q 602 213 642 231 q 518 196 563 196 m 640 336 l 640 600 q 533 618 596 618 q 431 578 469 618 q 392 453 392 539 q 429 327 392 368 q 532 286 467 286 q 592 297 565 286 q 629 318 618 307 q 640 336 640 329 z "},"A":{"ha":954,"x_min":56,"x_max":903,"o":"m 472 942 l 488 942 q 533 933 522 942 q 547 923 543 925 q 556 911 550 921 q 565 899 563 901 q 574 882 567 896 q 583 864 581 868 q 899 69 754 554 q 903 38 903 53 q 860 0 903 0 l 826 0 q 794 8 803 0 q 781 21 785 17 q 772 37 776 25 q 767 54 768 49 q 740 149 763 63 q 689 317 717 236 l 269 317 q 215 135 235 210 q 194 54 196 60 q 188 37 192 49 q 179 21 183 25 q 168 11 175 17 q 133 0 157 0 l 100 0 q 56 38 56 0 q 61 69 56 47 q 376 864 206 554 q 386 882 379 868 q 395 899 393 896 q 403 911 397 901 q 413 923 410 921 q 424 931 417 925 q 436 938 431 936 q 472 942 456 942 m 479 810 q 304 417 389 650 l 656 417 q 479 810 606 554 z "},"B":{"ha":863,"x_min":140,"x_max":800,"o":"m 193 943 l 435 943 q 657 883 574 943 q 740 700 740 824 q 703 574 740 628 q 604 501 665 521 q 742 436 683 488 q 800 281 800 385 q 705 69 800 139 q 458 0 610 0 l 193 0 q 140 51 140 0 l 140 889 q 193 943 140 943 m 260 839 l 260 538 l 444 538 q 580 575 536 538 q 624 690 624 613 q 435 839 624 839 l 260 839 m 260 443 l 260 104 l 458 104 q 682 281 682 104 q 469 443 682 443 l 260 443 z "},"C":{"ha":971,"x_min":88,"x_max":890,"o":"m 547 954 q 790 896 694 954 q 885 767 885 838 q 862 717 885 736 q 801 699 839 699 q 547 846 758 846 q 312 752 408 846 q 215 474 215 658 q 313 192 215 290 q 547 94 410 94 q 819 251 761 94 q 872 233 853 251 q 890 183 890 214 q 793 51 890 113 q 547 -11 696 -11 q 219 115 351 -11 q 88 474 88 242 q 219 830 88 706 q 547 954 351 954 z "},"D":{"ha":1011,"x_min":140,"x_max":919,"o":"m 193 943 l 469 943 q 783 833 656 943 q 883 685 846 778 q 919 471 919 592 q 883 258 919 350 q 783 111 846 165 q 469 0 656 0 l 193 0 q 140 51 140 0 l 140 890 q 193 943 140 943 m 260 838 l 260 103 l 458 103 q 711 197 619 103 q 803 471 803 292 q 711 744 803 650 q 458 838 619 838 l 260 838 z "},"E":{"ha":801,"x_min":140,"x_max":725,"o":"m 194 943 l 674 943 q 725 891 725 943 q 674 839 725 839 l 261 839 l 261 542 l 628 542 q 679 490 679 542 q 628 438 679 438 l 261 438 l 261 104 l 674 104 q 725 52 725 104 q 674 0 725 0 l 194 0 q 140 53 140 0 l 140 890 q 194 943 140 943 z "},"F":{"ha":786,"x_min":140,"x_max":724,"o":"m 194 943 l 671 943 q 724 891 724 943 q 671 839 724 839 l 261 839 l 261 542 l 617 542 q 668 490 668 542 q 617 438 668 438 l 261 438 l 261 51 q 207 0 261 0 l 194 0 q 140 53 140 0 l 140 890 q 194 943 140 943 z "},"G":{"ha":1006,"x_min":88,"x_max":946,"o":"m 536 954 q 788 899 699 954 q 878 767 878 843 q 856 719 878 739 q 796 700 833 700 q 536 843 753 843 q 310 747 404 843 q 215 473 215 651 q 306 195 215 294 q 536 96 397 96 q 752 173 675 96 q 829 367 829 250 q 810 386 829 386 l 597 386 q 543 441 543 386 q 597 496 543 496 l 868 496 q 924 476 903 496 q 946 424 946 457 l 946 365 q 842 111 946 225 q 713 22 793 56 q 536 -11 633 -11 q 214 117 340 -11 q 88 473 88 244 q 218 828 88 701 q 536 954 349 954 z "},"H":{"ha":1051,"x_min":140,"x_max":911,"o":"m 194 943 l 207 943 q 261 889 261 943 l 261 540 l 792 540 l 792 889 q 846 943 792 943 l 858 943 q 911 889 911 943 l 911 53 q 858 0 911 0 l 846 0 q 792 53 792 0 l 792 436 l 261 436 l 261 53 q 207 0 261 0 l 194 0 q 140 53 140 0 l 140 889 q 194 943 140 943 z "},"I":{"ha":401,"x_min":140,"x_max":261,"o":"m 193 943 l 206 943 q 261 889 261 943 l 261 53 q 206 0 261 0 l 193 0 q 140 53 140 0 l 140 889 q 193 943 140 943 z "},"J":{"ha":369,"x_min":-226,"x_max":244,"o":"m 178 943 l 190 943 q 244 892 244 943 l 244 56 q 167 -205 244 -115 q -49 -294 90 -294 q -179 -260 -132 -294 q -226 -179 -226 -225 q -211 -133 -226 -150 q -174 -117 -196 -117 q -127 -172 -165 -146 q -25 -197 -89 -197 q 81 -143 39 -197 q 124 10 124 -89 l 124 892 q 178 943 124 943 z "},"K":{"ha":853,"x_min":139,"x_max":835,"o":"m 193 943 l 206 943 q 260 889 260 943 l 260 526 q 638 903 500 721 q 722 943 665 943 l 771 943 q 804 915 804 943 q 794 892 804 901 q 385 504 607 679 q 614 310 496 429 q 825 56 732 192 q 835 28 835 42 q 797 0 835 0 l 739 0 q 668 47 701 0 q 260 463 493 296 l 260 53 q 206 0 260 0 l 193 0 q 139 53 139 0 l 139 889 q 193 943 139 943 z "},"L":{"ha":790,"x_min":140,"x_max":742,"o":"m 194 943 l 207 943 q 261 890 261 943 l 261 104 l 689 104 q 742 52 742 104 q 689 0 742 0 l 194 0 q 140 53 140 0 l 140 890 q 194 943 140 943 z "},"M":{"ha":1254,"x_min":140,"x_max":1114,"o":"m 140 51 l 149 875 q 217 943 149 943 l 263 943 q 371 856 339 943 q 492 500 410 746 q 624 119 575 254 q 752 488 668 244 q 881 856 836 731 q 988 943 911 943 l 1038 943 q 1089 924 1069 943 q 1108 875 1108 906 l 1108 799 l 1114 51 q 1060 0 1114 0 l 1047 0 q 993 51 993 0 l 997 856 q 704 60 760 207 q 625 0 681 0 l 615 0 q 536 60 557 0 q 406 438 499 163 q 257 856 314 714 l 261 51 q 207 0 261 0 l 194 0 q 140 51 140 0 z "},"N":{"ha":1050,"x_min":140,"x_max":910,"o":"m 196 943 l 224 943 q 313 885 276 943 l 790 190 l 790 889 q 803 931 790 918 q 843 943 815 943 l 856 943 q 910 889 910 943 l 910 67 q 896 19 910 38 q 856 0 882 0 l 838 0 q 736 71 785 0 l 260 764 l 260 53 q 210 0 260 0 l 196 0 q 140 53 140 0 l 140 875 q 196 943 140 943 z "},"O":{"ha":1065,"x_min":81,"x_max":986,"o":"m 369 926 q 408 940 369 926 q 533 954 447 954 q 697 926 619 954 q 841 842 775 897 q 947 690 907 786 q 986 470 986 593 q 947 252 986 347 q 841 101 907 157 q 697 17 775 46 q 533 -11 619 -11 q 369 17 447 -11 q 224 101 290 46 q 119 252 158 157 q 81 470 81 347 q 119 690 81 593 q 224 842 158 786 q 369 926 290 897 m 767 750 q 718 799 767 750 q 533 847 669 847 q 299 750 397 847 q 201 472 201 653 q 299 193 201 290 q 533 96 397 96 q 767 193 669 96 q 865 472 865 290 q 767 750 865 653 z "},"P":{"ha":846,"x_min":140,"x_max":771,"o":"m 194 943 l 447 943 q 681 874 590 943 q 771 656 771 806 q 681 437 771 507 q 447 367 590 367 l 261 367 l 261 53 q 207 0 261 0 l 194 0 q 140 53 140 0 l 140 889 q 194 943 140 943 m 261 840 l 261 471 l 449 471 q 653 656 653 471 q 449 840 653 840 l 261 840 z "},"Q":{"ha":1068,"x_min":79,"x_max":985,"o":"m 368 926 q 407 940 368 926 q 532 954 446 954 q 697 926 618 954 q 841 841 775 897 q 946 689 907 785 q 985 451 985 593 q 919 201 985 310 q 747 39 854 93 q 926 -49 821 -49 q 979 -43 956 -49 q 948 -128 979 -93 q 874 -162 917 -162 q 803 -153 832 -162 q 745 -122 774 -144 q 703 -86 717 -99 q 658 -39 689 -74 q 622 0 626 -4 q 510 -11 575 -11 q 368 17 446 -11 q 224 101 290 46 q 119 252 158 157 q 79 470 79 347 q 119 689 79 593 q 224 841 158 785 q 368 926 290 897 m 767 749 q 718 798 767 749 q 532 846 669 846 q 297 749 394 846 q 200 472 200 653 q 298 193 200 290 q 533 96 396 96 q 767 193 669 96 q 864 472 864 290 q 767 749 864 653 z "},"R":{"ha":881,"x_min":140,"x_max":832,"o":"m 257 839 l 257 510 l 451 510 q 591 553 538 510 q 644 676 644 596 q 594 797 644 756 q 451 839 543 839 l 257 839 m 456 943 q 601 920 536 943 q 714 833 667 897 q 761 666 761 769 q 685 493 761 563 q 499 415 608 424 q 645 208 547 324 q 832 32 743 93 q 760 -12 804 -12 q 673 17 715 -12 q 596 85 631 46 q 517 189 561 124 q 385 410 469 258 l 257 410 l 257 51 q 201 0 257 0 l 194 0 q 140 51 140 0 l 140 889 q 194 942 140 942 l 446 943 q 456 943 450 943 z "},"S":{"ha":825,"x_min":79,"x_max":747,"o":"m 85 698 q 85 750 85 698 q 179 878 85 803 q 412 953 274 953 q 624 919 550 953 q 697 835 697 885 q 636 772 697 785 q 424 851 583 851 q 269 808 329 851 q 210 701 210 764 q 258 606 210 639 q 401 548 307 572 q 545 504 494 524 q 647 453 596 485 q 747 269 747 392 q 647 67 747 146 q 397 -11 547 -11 q 163 28 247 -11 q 79 123 79 68 q 150 196 79 178 q 382 92 201 92 q 562 138 497 92 q 626 258 626 185 q 562 369 626 331 q 360 442 497 408 q 154 535 224 476 q 85 698 85 593 z "},"T":{"ha":789,"x_min":46,"x_max":743,"o":"m 99 943 l 690 943 q 743 891 743 943 q 690 839 743 839 l 454 839 l 454 53 q 400 0 454 0 l 388 0 q 333 53 333 0 l 333 839 l 99 839 q 46 891 46 839 q 99 943 46 943 z "},"U":{"ha":1028,"x_min":135,"x_max":893,"o":"m 189 943 l 203 943 q 257 889 257 943 l 257 394 q 514 92 257 92 q 771 394 771 92 l 771 889 q 825 943 771 943 l 836 943 q 893 889 893 943 l 893 400 q 853 181 893 278 q 788 83 828 124 q 677 15 747 42 q 514 -11 607 -11 q 351 15 421 -11 q 240 83 281 42 q 175 181 200 124 q 135 400 135 278 l 135 889 q 189 943 135 943 z "},"V":{"ha":964,"x_min":56,"x_max":904,"o":"m 56 903 q 100 942 56 942 l 133 942 q 166 933 157 942 q 179 921 175 925 q 188 905 183 917 q 194 888 192 893 q 206 844 197 879 q 483 132 318 425 q 754 844 656 486 l 758 864 q 774 912 769 906 q 783 925 778 918 q 794 935 789 932 q 826 942 808 942 l 860 942 q 904 903 904 942 q 899 872 904 894 q 583 78 754 388 q 574 60 581 74 q 565 43 567 46 q 556 31 563 40 q 547 19 550 21 q 536 11 543 17 q 522 4 529 6 q 488 0 504 0 l 472 0 q 427 8 438 0 q 413 19 417 17 q 403 31 410 21 q 395 43 397 40 q 386 60 393 46 q 376 78 379 74 q 61 872 206 388 q 56 903 56 894 z "},"W":{"ha":1392,"x_min":75,"x_max":1300,"o":"m 117 940 l 150 940 q 211 894 203 940 l 406 128 q 509 488 433 225 q 625 894 585 750 q 686 943 639 943 l 699 943 q 758 894 744 943 q 874 488 799 750 q 978 128 950 225 q 1164 894 1086 474 q 1225 940 1172 940 l 1258 940 q 1288 930 1276 940 q 1300 906 1300 919 q 1297 882 1300 893 q 1074 81 1196 446 q 986 0 1046 0 l 965 0 q 878 75 899 0 q 692 753 829 258 q 599 415 661 639 q 506 75 536 190 q 473 20 496 40 q 418 0 450 0 l 389 0 q 301 81 329 0 q 78 882 179 446 q 75 906 75 893 q 87 930 75 919 q 117 940 99 940 z "},"X":{"ha":886,"x_min":53,"x_max":838,"o":"m 100 943 l 156 943 q 217 906 190 943 l 451 568 q 563 719 508 635 q 644 856 618 804 l 671 906 q 731 943 694 943 l 788 943 q 817 917 817 943 q 806 889 817 906 q 769 828 796 872 q 666 677 743 785 q 518 493 589 569 l 829 46 q 838 22 838 33 q 810 0 838 0 l 750 0 q 683 42 710 0 l 443 417 q 334 270 393 364 q 240 108 275 176 l 206 42 q 139 0 179 0 l 79 0 q 53 22 53 0 q 211 283 53 58 q 371 492 288 392 l 76 899 q 69 917 69 908 q 100 943 69 943 z "},"Y":{"ha":876,"x_min":56,"x_max":821,"o":"m 100 943 l 129 943 q 156 935 147 943 q 169 921 164 926 q 179 905 174 915 q 188 888 185 894 q 197 867 190 881 q 206 846 203 853 q 431 468 299 639 l 446 468 q 671 846 578 639 q 680 867 674 853 q 689 888 686 881 q 697 905 692 894 q 708 921 703 915 q 719 933 713 926 q 747 943 729 943 l 776 943 q 821 904 821 943 q 813 864 821 885 q 790 813 804 843 q 765 759 776 783 q 737 704 754 735 q 709 655 719 674 q 676 603 699 636 q 645 556 654 571 q 610 506 636 542 q 575 458 583 469 q 499 356 513 375 l 499 53 q 444 0 499 0 l 432 0 q 378 53 378 0 l 378 356 q 328 422 364 375 q 267 506 293 469 q 231 556 240 542 q 200 603 222 571 q 167 655 178 636 q 140 704 157 674 q 111 759 122 735 q 86 813 100 783 q 64 864 72 843 q 56 904 56 885 q 100 943 56 943 z "},"Z":{"ha":961,"x_min":114,"x_max":858,"o":"m 193 942 l 776 942 q 836 919 814 942 q 858 861 858 897 l 858 832 q 772 705 858 801 q 500 399 685 608 q 244 111 315 190 l 244 96 l 797 96 q 838 84 825 96 q 850 45 850 72 q 838 9 850 18 q 797 0 826 0 l 193 0 q 135 21 156 0 q 114 78 114 42 l 114 96 q 187 222 114 138 q 353 408 260 306 q 726 828 585 667 l 726 846 l 193 846 q 154 856 165 846 q 143 894 143 867 q 154 932 143 922 q 193 942 165 942 z "},"[":{"ha":447,"x_min":114,"x_max":394,"o":"m 168 957 l 344 957 q 394 904 394 957 q 344 851 394 851 l 229 851 l 229 -200 l 344 -200 q 394 -253 394 -200 q 344 -306 394 -306 l 168 -306 q 114 -254 114 -306 l 114 904 q 126 944 114 932 q 168 957 139 957 z "},"\\":{"ha":524,"x_min":40,"x_max":479,"o":"m 475 56 q 479 28 479 42 q 466 1 479 14 q 428 -12 453 -12 q 389 24 404 -12 l 46 922 q 40 949 40 933 q 54 977 40 964 q 94 990 68 990 q 133 954 121 990 l 475 56 z "},"]":{"ha":447,"x_min":53,"x_max":335,"o":"m 104 957 l 279 957 q 335 904 335 957 l 335 -254 q 279 -306 335 -306 l 104 -306 q 53 -253 53 -306 q 104 -200 53 -200 l 219 -200 l 219 851 l 104 851 q 53 904 53 851 q 104 957 53 957 z "},"^":{"ha":672,"x_min":49,"x_max":624,"o":"m 510 679 l 336 872 q 249 774 317 854 q 164 679 181 694 l 49 679 l 289 940 l 383 940 l 624 679 l 510 679 z "},"_":{"ha":735,"x_min":-51,"x_max":786,"o":"m 0 0 l 735 0 q 786 -46 786 0 q 735 -92 786 -92 l 0 -92 q -51 -46 -51 -92 q 0 0 -51 0 z "},"`":{"ha":471,"x_min":75,"x_max":397,"o":"m 75 924 l 75 961 q 100 986 75 986 q 122 981 113 986 l 372 832 q 397 794 394 818 l 397 782 q 374 761 397 761 q 356 765 364 761 l 103 878 q 75 924 75 890 z "},"a":{"ha":742,"x_min":61,"x_max":697,"o":"m 344 696 q 639 422 639 696 l 639 147 q 697 50 639 71 q 619 -3 676 -3 q 553 27 578 -3 q 529 106 529 57 q 303 -11 442 -11 q 126 47 190 -11 q 61 202 61 104 q 137 361 61 300 q 342 422 213 422 q 472 406 419 422 q 524 386 515 390 l 524 447 q 481 567 524 532 q 350 603 438 603 q 158 508 226 603 q 100 563 100 517 q 172 656 100 615 q 344 696 244 696 m 524 297 q 351 336 436 336 q 221 300 267 336 q 175 206 175 264 q 215 115 175 149 q 331 81 254 81 q 466 136 408 81 q 524 271 524 192 l 524 297 z "},"b":{"ha":792,"x_min":101,"x_max":719,"o":"m 153 974 l 164 974 q 217 922 217 974 l 217 590 q 303 668 244 638 q 431 699 361 699 q 640 612 560 699 q 719 348 719 525 q 625 80 719 171 q 401 -11 531 -11 q 142 38 271 -11 q 111 58 121 46 q 101 96 101 71 l 101 922 q 153 974 101 974 m 418 600 q 274 531 331 600 q 217 350 217 463 l 217 128 q 392 86 294 86 q 547 151 489 86 q 604 347 604 217 q 418 600 604 600 z "},"c":{"ha":688,"x_min":58,"x_max":639,"o":"m 169 618 q 194 638 169 618 q 278 678 219 658 q 419 697 336 697 q 566 660 503 697 q 629 579 629 622 q 569 519 629 526 q 507 576 556 550 q 392 601 458 601 q 238 535 299 601 q 176 343 176 469 q 239 150 176 217 q 389 83 301 83 q 576 174 528 83 q 621 158 603 174 q 639 117 639 142 q 572 28 639 68 q 420 -11 506 -11 q 276 9 335 -11 q 167 70 217 29 q 88 181 117 111 q 58 342 58 250 q 88 506 58 435 q 169 618 118 578 z "},"d":{"ha":792,"x_min":68,"x_max":686,"o":"m 622 1001 l 633 1001 q 686 951 686 1001 l 686 50 q 633 0 686 0 l 622 0 q 569 47 569 0 l 569 115 q 482 26 539 61 q 353 -10 425 -10 q 149 75 229 -10 q 68 335 68 160 q 157 605 68 511 q 383 699 246 699 q 569 635 492 699 l 569 951 q 622 1001 569 1001 m 569 521 q 393 597 496 597 q 236 531 290 597 q 182 333 182 465 q 238 143 182 201 q 385 85 293 85 q 524 154 478 85 q 569 326 569 224 l 569 521 z "},"e":{"ha":715,"x_min":58,"x_max":657,"o":"m 58 340 q 58 427 58 340 q 156 606 58 514 q 379 697 253 697 q 579 633 506 697 q 653 472 653 568 q 577 323 653 376 q 382 269 501 269 q 167 307 263 269 q 236 144 167 206 q 406 82 306 82 q 600 178 561 82 q 640 165 624 178 q 657 126 657 151 q 585 33 657 78 q 404 -11 514 -11 q 158 78 257 -11 q 58 340 58 167 m 547 476 q 501 568 547 531 q 373 606 454 606 q 231 540 292 606 q 168 393 169 475 q 367 360 268 360 q 547 476 547 360 z "},"f":{"ha":519,"x_min":43,"x_max":582,"o":"m 433 997 q 540 968 497 997 q 582 895 582 939 q 538 836 582 851 q 426 894 503 894 q 282 694 282 894 l 282 681 l 453 681 q 506 634 506 681 q 453 588 506 588 l 282 588 l 282 46 q 269 6 282 18 q 229 -6 257 -6 l 222 -6 q 181 6 193 -6 q 168 46 168 18 l 168 588 l 96 588 q 55 597 67 588 q 43 633 43 606 q 56 671 43 661 q 96 681 68 681 l 168 681 l 168 725 q 239 926 168 854 q 433 997 310 997 z "},"g":{"ha":733,"x_min":46,"x_max":693,"o":"m 349 199 l 286 201 q 229 184 253 201 q 206 146 206 167 q 294 93 206 93 l 397 93 q 693 -89 693 93 q 601 -244 693 -185 q 364 -310 508 -304 l 331 -310 q 129 -262 213 -310 q 46 -151 46 -215 q 60 -103 46 -121 q 99 -82 75 -85 q 192 -172 125 -136 q 349 -208 258 -208 l 358 -208 q 522 -176 463 -208 q 581 -97 581 -144 q 528 -27 581 -49 q 349 -6 476 -6 q 158 19 222 -6 q 94 117 94 44 q 196 231 94 189 q 75 447 75 299 q 156 631 75 565 q 354 696 236 696 q 465 671 414 696 q 542 617 515 646 q 594 743 594 651 q 661 720 632 743 q 690 663 690 697 q 588 563 690 593 q 618 440 618 521 q 541 260 618 322 q 349 199 464 199 m 466 567 q 443 587 466 567 q 349 607 419 607 q 231 567 278 607 q 183 446 183 528 q 231 324 183 364 q 349 285 278 285 q 466 324 419 285 q 513 446 513 364 q 466 567 513 528 z "},"h":{"ha":783,"x_min":101,"x_max":686,"o":"m 154 974 l 164 974 q 217 921 217 974 l 217 546 q 297 650 240 607 q 431 693 354 693 q 617 627 547 693 q 686 414 686 561 l 686 53 q 674 13 686 25 q 633 0 661 0 l 622 0 q 571 53 571 0 l 571 407 q 404 600 571 600 q 267 528 317 600 q 218 346 218 456 l 218 53 q 164 0 218 0 l 154 0 q 114 13 126 0 q 101 53 101 25 l 101 921 q 154 974 101 974 z "},"i":{"ha":364,"x_min":106,"x_max":258,"o":"m 178 685 l 186 685 q 239 633 239 685 l 239 53 q 186 0 239 0 l 178 0 q 125 53 125 0 l 125 633 q 178 685 125 685 m 106 881 q 106 897 106 881 q 128 935 106 913 q 181 958 150 958 q 235 935 213 958 q 258 881 258 913 q 236 827 258 850 q 182 804 214 804 q 128 826 150 804 q 106 881 106 849 z "},"j":{"ha":392,"x_min":-89,"x_max":285,"o":"m 206 683 l 214 683 q 267 632 267 683 l 267 31 q 217 -210 267 -131 q 47 -290 168 -290 q -56 -269 -22 -290 q -89 -210 -89 -247 q -54 -150 -89 -172 q -15 -176 -46 -162 q 49 -189 15 -189 q 131 -137 111 -189 q 151 31 151 -85 l 151 632 q 206 683 151 683 m 133 880 q 133 895 133 880 q 156 934 133 911 q 209 957 178 957 q 263 934 240 957 q 285 880 285 911 q 263 826 285 849 q 209 804 240 804 q 156 826 178 804 q 133 880 133 849 z "},"k":{"ha":701,"x_min":104,"x_max":660,"o":"m 157 974 l 165 974 q 206 961 193 974 q 218 921 218 949 l 218 411 q 376 540 300 468 q 491 649 451 613 q 561 685 531 685 l 600 685 q 627 676 617 685 q 638 654 638 667 q 329 390 638 608 q 499 229 403 332 q 651 51 596 126 q 660 28 660 39 q 625 0 660 0 l 592 0 q 528 26 547 0 q 218 353 381 219 l 218 53 q 206 13 218 25 q 165 0 193 0 l 157 0 q 117 13 129 0 q 104 53 104 25 l 104 921 q 117 961 104 949 q 157 974 129 974 z "},"l":{"ha":335,"x_min":110,"x_max":225,"o":"m 163 974 l 172 974 q 225 922 225 974 l 225 53 q 172 0 225 0 l 163 0 q 122 13 133 0 q 110 53 110 25 l 110 922 q 122 962 110 950 q 163 974 133 974 z "},"m":{"ha":1176,"x_min":101,"x_max":1089,"o":"m 154 685 l 163 685 q 217 632 217 685 l 217 574 q 413 694 281 694 q 553 649 497 694 q 631 524 610 604 q 713 650 653 604 q 850 696 772 696 q 1089 417 1089 696 l 1089 51 q 1033 0 1089 0 l 1025 0 q 972 51 972 0 l 972 410 q 828 600 972 600 q 690 526 726 600 q 653 326 653 453 l 653 51 q 599 0 653 0 l 589 0 q 536 51 536 0 l 536 410 q 390 600 536 600 q 217 331 217 600 l 217 51 q 163 0 217 0 l 154 0 q 101 51 101 0 l 101 632 q 154 685 101 685 z "},"n":{"ha":774,"x_min":101,"x_max":686,"o":"m 154 685 l 164 685 q 217 632 217 685 l 217 564 q 300 657 243 617 q 431 697 357 697 q 615 630 543 697 q 686 417 686 563 l 686 53 q 674 13 686 25 q 633 0 661 0 l 622 0 q 571 53 571 0 l 571 413 q 528 557 571 514 q 403 600 485 600 q 269 533 321 600 q 218 357 218 467 l 218 53 q 164 0 218 0 l 154 0 q 114 13 126 0 q 101 53 101 25 l 101 632 q 154 685 101 685 z "},"o":{"ha":797,"x_min":58,"x_max":739,"o":"m 157 604 q 206 651 157 604 q 399 697 256 697 q 640 604 542 697 q 739 342 739 511 q 640 81 739 172 q 399 -11 542 -11 q 157 81 256 -11 q 58 342 58 172 q 157 604 58 511 m 559 534 q 528 568 559 534 q 399 601 497 601 q 238 534 300 601 q 176 342 176 467 q 238 151 176 218 q 399 83 300 83 q 559 151 497 83 q 621 342 621 218 q 559 534 621 467 z "},"p":{"ha":792,"x_min":100,"x_max":718,"o":"m 153 685 l 163 685 q 215 636 215 685 l 215 582 q 303 664 244 631 q 429 697 361 697 q 638 610 558 697 q 718 347 718 524 q 624 79 718 169 q 394 -11 531 -11 q 215 36 301 -11 l 215 -262 q 163 -314 215 -314 l 153 -314 q 100 -262 100 -314 l 100 633 q 153 685 100 685 m 603 347 q 603 413 603 347 q 547 540 603 479 q 397 600 492 600 q 259 517 303 600 q 215 300 215 433 l 215 126 q 284 101 229 117 q 394 85 339 85 q 545 150 488 85 q 603 347 603 215 z "},"q":{"ha":792,"x_min":67,"x_max":686,"o":"m 397 697 q 638 654 500 697 q 686 586 686 638 l 686 -262 q 633 -314 686 -314 l 622 -314 q 569 -262 569 -314 l 569 101 q 479 19 539 49 q 351 -10 419 -10 q 147 74 228 -10 q 67 333 67 158 q 162 603 67 508 q 397 697 257 697 m 390 601 q 240 532 299 601 q 182 331 182 463 q 383 86 182 86 q 525 158 481 86 q 569 335 569 231 l 569 560 q 501 585 556 569 q 390 601 446 601 z "},"r":{"ha":564,"x_min":101,"x_max":525,"o":"m 154 685 l 163 685 q 215 633 215 685 l 215 558 q 291 653 239 611 q 403 694 343 694 q 494 671 463 694 q 525 613 525 647 q 496 560 525 579 q 404 596 453 596 q 268 526 318 596 q 218 350 218 456 l 218 53 q 206 13 218 25 q 165 0 193 0 l 154 0 q 114 13 126 0 q 101 53 101 25 l 101 633 q 154 685 101 685 z "},"s":{"ha":643,"x_min":56,"x_max":592,"o":"m 74 494 q 155 644 74 589 q 336 699 236 699 q 491 670 436 699 q 546 603 546 642 q 492 546 546 564 q 438 588 482 568 q 331 607 394 607 q 226 583 267 607 q 185 515 185 558 q 215 447 185 471 q 359 398 246 424 q 532 324 472 372 q 592 188 592 275 q 511 45 592 100 q 313 -10 431 -10 q 126 20 196 -10 q 56 99 56 50 q 101 169 56 147 q 176 106 121 132 q 315 79 232 79 q 442 110 399 79 q 486 185 486 140 q 447 256 486 231 q 292 307 407 282 q 126 378 178 332 q 74 494 74 425 z "},"t":{"ha":557,"x_min":35,"x_max":543,"o":"m 214 869 l 224 869 q 276 818 276 869 l 276 681 l 468 681 q 522 633 522 681 q 468 586 522 586 l 276 586 l 276 236 q 310 113 276 149 q 410 78 344 78 q 508 110 476 78 q 543 65 543 99 q 497 10 543 32 q 388 -11 451 -11 q 161 236 161 -11 l 161 586 l 93 586 q 49 596 63 586 q 35 633 35 606 q 93 681 35 681 l 161 681 l 161 818 q 214 869 161 869 z "},"u":{"ha":776,"x_min":85,"x_max":668,"o":"m 138 683 l 147 683 q 200 632 200 683 l 200 275 q 368 85 200 85 q 475 122 432 85 q 553 322 553 189 l 553 632 q 607 683 553 683 l 617 683 q 656 672 644 683 q 668 632 668 660 l 668 51 q 656 12 668 24 q 615 0 643 0 l 607 0 q 553 51 553 0 l 553 121 q 470 33 533 76 q 335 -11 407 -11 q 85 268 85 -11 l 85 632 q 138 683 85 683 z "},"v":{"ha":708,"x_min":40,"x_max":668,"o":"m 83 683 l 115 683 q 169 640 160 683 q 346 111 261 282 l 363 111 q 539 640 447 282 q 593 683 549 683 l 625 683 q 668 653 668 683 q 664 633 668 644 q 456 68 557 268 q 418 16 438 32 q 361 0 399 0 l 349 0 q 290 16 310 0 q 253 68 271 32 q 44 633 151 268 q 40 653 40 644 q 83 683 40 683 z "},"w":{"ha":1043,"x_min":42,"x_max":1001,"o":"m 88 683 l 110 683 q 160 640 150 683 q 304 101 253 264 l 321 101 q 382 341 332 149 q 457 640 432 533 q 511 683 467 683 l 532 683 q 586 640 576 683 q 659 354 610 538 q 725 101 708 171 l 742 101 q 832 429 789 250 q 883 640 875 608 q 933 683 893 683 l 956 683 q 1001 653 1001 683 q 994 618 1001 647 q 962 493 986 589 q 922 342 938 397 q 835 68 879 188 q 739 0 808 0 l 726 0 q 669 16 688 0 q 640 68 651 32 q 525 544 558 343 l 517 544 q 406 68 478 311 q 376 16 394 32 q 319 0 358 0 l 307 0 q 213 65 238 0 q 162 212 188 131 q 124 339 136 293 q 81 497 111 385 q 42 653 42 646 q 88 683 42 683 z "},"x":{"ha":733,"x_min":78,"x_max":664,"o":"m 115 685 l 158 685 q 215 651 193 685 l 372 411 q 532 651 432 485 q 586 685 553 685 l 611 685 q 651 653 651 685 q 646 632 651 642 q 435 343 567 497 l 653 53 q 664 25 664 38 q 635 0 664 0 l 581 0 q 518 39 546 0 l 361 265 q 310 200 339 243 q 267 138 281 157 q 200 33 225 75 q 143 0 178 0 l 118 0 q 90 11 101 0 q 79 35 79 22 q 88 61 79 49 q 303 335 182 200 l 86 632 q 78 654 78 642 q 88 676 78 667 q 115 685 99 685 z "},"y":{"ha":718,"x_min":38,"x_max":668,"o":"m 81 683 l 107 683 q 161 640 151 683 q 349 101 246 307 l 361 101 q 549 640 478 389 q 603 683 561 683 l 625 683 q 668 653 668 683 q 664 633 668 644 q 314 -269 503 131 q 291 -303 303 -293 q 254 -314 279 -314 l 219 -314 q 186 -282 186 -314 q 201 -242 186 -272 q 322 1 304 -43 l 319 1 q 288 13 294 6 q 278 23 281 21 q 271 33 275 25 q 265 42 267 40 q 259 55 264 44 q 253 68 254 65 q 42 633 146 282 q 38 653 38 644 q 81 683 38 683 z "},"z":{"ha":690,"x_min":65,"x_max":632,"o":"m 136 685 l 554 685 q 606 666 586 685 q 625 615 625 647 l 625 604 q 593 538 625 571 q 413 347 561 506 q 188 107 264 188 l 188 101 l 544 101 q 626 81 615 101 q 632 51 632 69 q 582 0 632 0 l 136 0 q 65 69 65 0 l 65 83 q 101 151 65 113 q 291 361 165 219 q 481 571 417 503 l 481 583 l 136 583 q 85 634 85 583 q 136 685 85 685 z "},"{":{"ha":517,"x_min":68,"x_max":447,"o":"m 119 376 l 126 376 q 203 542 203 376 l 203 786 q 246 923 203 881 q 385 965 289 965 l 394 965 q 447 913 447 965 q 394 860 447 860 l 382 860 q 317 796 317 860 l 317 542 q 243 322 317 400 q 317 90 317 242 l 317 -142 q 382 -206 317 -206 l 394 -206 q 447 -258 447 -206 q 394 -310 447 -310 l 385 -310 q 246 -268 289 -310 q 203 -133 203 -226 l 203 90 q 126 271 203 271 l 119 271 q 68 324 68 271 q 119 376 68 376 z "},"|":{"ha":356,"x_min":121,"x_max":236,"o":"m 174 1015 l 183 1015 q 236 964 236 1015 l 236 -17 q 183 -69 236 -69 l 174 -69 q 133 -57 144 -69 q 121 -17 121 -44 l 121 964 q 133 1003 121 992 q 174 1015 144 1015 z "},"}":{"ha":517,"x_min":69,"x_max":447,"o":"m 396 268 l 389 268 q 314 81 314 268 l 314 -85 q 274 -257 314 -204 q 129 -310 235 -310 l 125 -310 q 69 -257 69 -310 q 125 -204 69 -204 l 132 -204 q 183 -190 168 -204 q 199 -140 199 -175 l 199 99 q 272 322 199 238 q 199 549 199 396 l 199 796 q 132 858 199 858 l 125 858 q 69 911 69 858 q 121 964 69 964 l 131 964 q 273 917 232 964 q 314 763 314 871 l 314 565 q 332 420 314 465 q 392 375 350 375 l 393 375 q 447 322 447 375 q 396 268 447 268 z "},"~":{"ha":554,"x_min":64,"x_max":497,"o":"m 299 769 q 297 770 299 769 q 281 777 296 771 q 240 795 267 783 q 181 807 214 807 q 126 790 147 807 q 94 774 106 774 q 64 804 64 774 q 181 906 64 906 q 215 903 201 906 q 233 899 228 900 q 249 894 238 899 q 263 889 260 890 q 280 881 265 888 q 297 874 294 875 q 381 851 347 851 q 435 868 414 851 q 467 885 456 885 q 488 876 479 885 q 497 854 497 868 q 381 753 497 753 q 347 756 360 753 q 328 759 333 758 q 313 764 324 760 q 299 769 301 768 z "},"¡":{"ha":363,"x_min":90,"x_max":272,"o":"m 176 647 l 183 647 q 229 599 229 647 l 257 56 q 192 -11 257 -11 l 169 -11 q 104 56 104 -11 l 131 599 q 176 647 132 647 m 272 853 q 272 833 272 853 q 246 788 272 813 q 181 763 219 763 q 117 788 143 763 q 90 853 90 813 q 117 918 90 893 q 181 943 143 943 q 246 918 219 943 q 272 853 272 893 z "},"¢":{"ha":764,"x_min":86,"x_max":672,"o":"m 428 813 l 465 811 l 494 893 q 563 942 511 942 q 614 906 614 942 q 608 881 614 900 l 575 788 q 658 697 658 753 q 597 635 658 642 q 540 690 578 671 l 369 207 q 431 200 401 200 q 618 285 572 200 q 657 268 642 285 q 672 233 672 251 q 606 144 672 183 q 428 104 540 104 q 338 114 378 104 l 314 49 q 246 0 297 0 q 194 35 194 0 q 200 61 194 49 l 233 156 q 86 457 86 249 q 116 622 86 550 q 197 733 146 693 q 428 813 296 813 m 431 715 q 270 649 336 715 q 204 458 204 582 q 271 263 204 333 l 431 715 z "},"£":{"ha":797,"x_min":40,"x_max":729,"o":"m 676 0 l 140 0 q 76 20 104 0 q 49 81 49 40 q 90 143 49 121 q 146 197 132 165 q 160 308 160 229 l 160 413 l 93 413 q 40 461 40 413 q 93 510 40 510 l 158 510 l 158 688 q 235 880 158 818 q 440 942 313 942 q 634 896 567 942 q 701 778 701 850 q 678 719 701 742 q 621 694 654 697 q 572 803 617 769 q 445 836 528 836 q 317 795 363 836 q 272 688 272 754 l 272 511 q 461 513 335 513 q 514 460 514 513 q 486 417 514 424 q 425 411 465 411 l 272 411 l 272 256 q 199 103 272 143 l 639 103 q 688 101 674 103 q 715 88 701 100 q 729 51 729 76 q 676 0 729 0 z "},"¤":{"ha":896,"x_min":90,"x_max":813,"o":"m 701 636 q 757 464 757 560 q 701 292 757 368 q 767 233 735 264 q 813 172 813 186 q 792 136 813 157 q 753 115 771 115 q 718 130 736 115 q 666 179 700 144 q 629 217 632 214 q 451 160 549 160 q 274 217 354 160 q 244 187 265 208 q 210 153 224 165 q 151 115 171 115 q 111 136 132 115 q 90 170 90 157 q 107 203 90 183 q 161 256 124 222 q 201 292 199 289 q 146 464 146 368 q 201 636 146 560 q 138 694 168 664 q 90 756 90 742 q 111 792 90 771 q 149 813 132 813 q 185 798 167 813 q 237 749 203 783 q 274 711 271 714 q 451 768 354 768 q 629 711 549 768 q 658 741 638 719 q 693 775 679 763 q 751 813 732 813 q 792 792 771 813 q 813 758 813 771 q 796 725 813 744 q 742 672 779 706 q 701 636 704 639 m 307 610 q 278 580 307 610 q 249 464 249 550 q 307 318 249 378 q 451 258 365 258 q 596 318 538 258 q 654 464 654 378 q 596 610 654 550 q 451 669 538 669 q 307 610 365 669 z "},"¥":{"ha":926,"x_min":81,"x_max":846,"o":"m 182 338 l 743 338 q 799 288 799 338 q 743 239 799 239 l 182 239 q 126 288 126 239 q 182 338 126 338 m 182 554 l 364 554 l 364 451 l 182 451 q 140 462 153 451 q 126 501 126 472 q 182 554 126 554 m 560 554 l 560 451 l 743 451 q 799 501 799 451 q 743 554 799 554 l 560 554 m 125 943 l 154 943 q 181 935 172 943 q 194 921 189 926 q 204 905 199 915 q 213 888 210 894 q 222 867 215 881 q 231 846 228 853 q 456 468 324 639 l 471 468 q 696 846 603 639 q 705 867 699 853 q 714 888 711 881 q 722 905 717 894 q 733 921 728 915 q 744 933 738 926 q 772 943 754 943 l 801 943 q 846 904 846 943 q 838 864 846 885 q 815 813 829 843 q 790 759 801 783 q 762 704 779 735 q 734 655 744 674 q 701 603 724 636 q 670 556 679 571 q 635 506 661 542 q 600 458 608 469 q 524 356 538 375 l 524 53 q 469 0 524 0 l 457 0 q 403 53 403 0 l 403 356 q 353 422 389 375 q 292 506 318 469 q 256 556 265 542 q 225 603 247 571 q 192 655 203 636 q 165 704 182 674 q 136 759 147 735 q 111 813 125 783 q 89 864 97 843 q 81 904 81 885 q 125 943 81 943 z "},"¦":{"ha":356,"x_min":121,"x_max":235,"o":"m 174 407 l 182 407 q 235 358 235 407 l 235 -6 q 182 -57 235 -57 l 174 -57 q 121 -6 121 -57 l 121 358 q 174 407 121 407 m 174 999 l 182 999 q 235 950 235 999 l 235 586 q 182 535 235 535 l 174 535 q 121 586 121 535 l 121 950 q 174 999 121 999 z "},"§":{"ha":674,"x_min":65,"x_max":606,"o":"m 476 79 q 606 -92 606 11 q 526 -254 606 -196 q 320 -312 446 -312 q 130 -272 194 -312 q 65 -175 65 -231 q 86 -123 65 -143 q 147 -103 107 -103 q 201 -181 147 -153 q 330 -210 254 -210 q 447 -180 406 -210 q 488 -106 488 -150 q 444 -33 488 -61 q 338 14 400 -6 q 215 58 276 33 q 109 135 153 83 q 65 251 65 188 q 100 361 65 315 q 194 429 135 407 q 112 502 140 463 q 83 614 83 542 q 151 749 83 686 q 328 811 218 811 q 506 773 439 811 q 572 686 572 735 q 490 615 572 615 q 443 683 490 656 q 338 711 396 711 q 239 681 279 711 q 199 607 199 651 q 240 533 199 563 q 339 483 281 504 q 455 436 397 463 q 553 363 513 410 q 594 249 594 315 q 476 79 594 128 m 303 376 q 215 343 253 374 q 178 264 178 313 q 233 183 178 215 q 350 129 274 160 q 447 164 411 133 q 482 242 482 194 q 428 319 482 289 q 303 376 374 350 z "},"¨":{"ha":556,"x_min":75,"x_max":481,"o":"m 139 785 q 126 785 139 785 q 94 803 113 785 q 75 848 75 821 q 94 892 75 875 q 139 910 113 910 q 183 892 165 910 q 201 848 201 875 q 183 803 201 821 q 139 785 165 785 m 418 785 q 405 785 418 785 q 374 803 392 785 q 356 848 356 821 q 374 892 356 875 q 418 910 392 910 q 463 892 444 910 q 481 848 481 875 q 463 803 481 821 q 418 785 444 785 z "},"©":{"ha":1114,"x_min":72,"x_max":1042,"o":"m 557 -24 q 456 -24 557 -24 q 214 118 356 -24 q 72 460 72 260 q 214 803 72 661 q 557 946 356 946 q 900 803 758 946 q 1042 460 1042 661 q 900 118 1042 260 q 557 -24 758 -24 m 288 735 q 233 680 288 735 q 178 461 178 625 q 288 188 178 297 q 557 78 399 78 q 826 188 715 78 q 938 460 938 297 q 826 734 938 624 q 557 844 715 844 q 288 735 399 844 m 267 458 q 267 535 267 458 q 355 689 267 613 q 551 765 443 765 q 724 722 660 765 q 788 621 788 678 q 719 567 788 567 q 678 649 719 614 q 560 683 636 683 q 425 626 483 683 q 367 457 367 568 q 424 288 367 346 q 558 229 481 229 q 681 264 635 229 q 728 347 728 299 q 774 333 756 347 q 793 294 793 318 q 726 193 793 236 q 550 150 660 150 q 353 227 440 150 q 267 458 267 304 z "},"«":{"ha":749,"x_min":94,"x_max":651,"o":"m 121 290 q 94 360 94 324 q 116 424 94 396 q 189 520 138 451 q 270 622 240 589 q 324 654 300 654 q 365 640 349 654 q 382 608 382 625 q 369 575 382 592 l 204 360 l 369 144 q 382 111 382 128 q 365 80 382 94 q 325 65 349 65 q 268 103 301 65 q 121 290 215 160 m 390 290 q 364 360 364 324 q 385 424 364 396 q 458 520 407 451 q 540 622 510 589 q 594 654 569 654 q 635 640 618 654 q 651 608 651 625 q 639 575 651 592 l 474 360 l 639 144 q 651 111 651 128 q 635 80 651 94 q 594 65 618 65 q 538 103 571 65 q 390 290 485 160 z "},"®":{"ha":1114,"x_min":71,"x_max":1042,"o":"m 406 738 l 543 738 q 700 710 640 738 q 771 567 771 676 q 640 406 771 438 q 721 283 675 344 q 794 204 767 222 q 733 179 769 179 q 557 397 668 179 l 451 397 l 451 221 q 413 183 451 183 l 406 183 q 367 221 367 183 l 367 699 q 406 738 367 738 m 576 661 l 451 661 l 451 474 l 576 474 q 658 493 631 474 q 686 567 686 513 q 659 642 686 622 q 576 661 632 661 m 556 -24 q 456 -24 556 -24 q 213 118 356 -24 q 71 460 71 260 q 213 803 71 661 q 556 946 356 946 q 899 803 757 946 q 1042 460 1042 661 q 899 118 1042 260 q 556 -24 757 -24 m 556 844 q 476 844 556 844 q 287 734 397 844 q 176 460 176 624 q 287 188 176 297 q 556 78 397 78 q 825 188 714 78 q 936 460 936 297 q 825 734 936 624 q 556 844 714 844 z "},"¯":{"ha":611,"x_min":69,"x_max":542,"o":"m 121 871 l 490 871 q 542 825 542 871 q 490 779 542 779 l 121 779 q 69 825 69 779 q 121 871 69 871 z "},"°":{"ha":339,"x_min":51,"x_max":288,"o":"m 84 774 q 68 790 84 774 q 51 860 51 806 q 84 946 51 914 q 169 978 117 978 q 255 946 222 978 q 288 860 288 914 q 255 774 288 806 q 169 742 222 742 q 84 774 117 742 m 119 911 q 109 901 119 911 q 100 860 100 892 q 119 808 100 828 q 169 788 138 788 q 220 808 201 788 q 239 860 239 828 q 220 911 239 892 q 169 931 201 931 q 119 911 138 931 z "},"±":{"ha":771,"x_min":56,"x_max":718,"o":"m 339 757 q 385 808 339 808 q 431 757 431 808 l 431 539 l 667 539 q 718 493 718 539 q 667 447 718 447 l 431 447 l 431 225 q 385 174 431 174 q 339 225 339 174 l 339 447 l 107 447 q 56 493 56 447 q 107 539 56 539 l 339 539 l 339 757 m 107 92 l 667 92 q 718 46 718 92 q 667 0 718 0 l 107 0 q 56 46 56 0 q 107 92 56 92 z "},"²":{"ha":460,"x_min":63,"x_max":400,"o":"m 64 860 q 64 872 64 860 q 102 915 64 885 q 215 944 140 944 q 335 908 289 944 q 381 806 381 871 q 188 539 381 690 l 358 539 q 400 498 400 539 q 358 457 400 457 l 103 457 q 63 500 63 457 q 101 554 63 524 q 294 801 294 710 q 210 867 294 867 q 144 851 171 867 q 114 808 117 836 q 78 822 92 808 q 64 860 64 835 z "},"³":{"ha":444,"x_min":61,"x_max":381,"o":"m 294 601 q 208 668 294 668 l 181 668 q 149 676 158 668 q 140 703 140 683 q 181 739 140 739 l 206 739 q 256 758 236 739 q 275 803 275 776 q 258 848 275 831 q 208 865 242 865 q 157 844 175 865 q 135 793 139 824 q 89 808 108 794 q 69 850 69 821 q 105 911 69 879 q 214 943 140 943 q 324 903 288 943 q 360 806 360 864 q 294 713 360 749 q 381 597 381 683 q 332 492 381 533 q 211 450 283 450 q 100 476 139 450 q 61 540 61 501 q 122 586 61 586 q 147 543 122 560 q 208 526 171 526 q 269 546 244 526 q 294 601 294 565 z "},"´":{"ha":471,"x_min":75,"x_max":397,"o":"m 97 761 q 75 782 75 761 l 75 794 q 100 832 75 815 l 350 981 q 372 986 357 986 q 397 961 397 986 l 397 924 q 367 878 397 890 l 115 765 q 97 761 107 761 z "},"µ":{"ha":776,"x_min":85,"x_max":668,"o":"m 85 -261 l 85 632 q 138 683 85 683 l 147 683 q 200 632 200 683 l 200 267 q 368 85 200 85 q 460 109 421 85 q 517 174 499 133 q 553 344 553 250 l 553 632 q 607 683 553 683 l 617 683 q 656 672 644 683 q 668 632 668 660 l 668 51 q 656 12 668 24 q 615 0 643 0 l 607 0 q 553 51 553 0 l 553 121 q 474 31 532 71 q 333 -10 417 -10 q 200 29 249 -10 l 200 -261 q 147 -314 200 -314 l 138 -314 q 85 -261 85 -314 z "},"¶":{"ha":713,"x_min":115,"x_max":588,"o":"m 497 943 q 532 942 497 943 l 533 942 q 588 889 588 942 l 588 51 q 533 0 588 0 l 525 0 q 474 51 474 0 l 474 349 l 439 349 q 209 428 303 349 q 115 647 115 507 q 208 865 115 786 q 439 943 301 943 l 497 943 z "},"·":{"ha":363,"x_min":90,"x_max":272,"o":"m 90 417 q 90 437 90 417 q 117 482 90 457 q 181 507 143 507 q 246 482 219 507 q 272 417 272 457 q 246 351 272 376 q 181 326 219 326 q 117 351 143 326 q 90 417 90 376 z "},"¸":{"ha":381,"x_min":75,"x_max":307,"o":"m 210 -39 q 280 -59 253 -39 q 307 -122 307 -79 q 267 -192 307 -165 q 176 -218 228 -218 q 75 -157 75 -218 q 88 -124 75 -137 q 119 -111 100 -111 q 181 -146 119 -146 q 219 -136 204 -146 q 235 -110 235 -126 q 186 -79 235 -79 l 156 -79 q 124 -51 124 -79 q 128 -33 124 -44 l 149 19 l 210 19 l 192 -39 l 210 -39 z "},"¹":{"ha":322,"x_min":68,"x_max":235,"o":"m 107 938 l 193 938 q 235 897 235 938 l 235 496 q 191 456 235 456 q 147 496 147 456 l 147 857 l 107 857 q 68 897 68 857 q 107 938 68 938 z "},"»":{"ha":746,"x_min":94,"x_max":651,"o":"m 421 654 q 433 654 421 654 q 474 622 444 654 q 556 519 504 589 q 630 422 608 450 q 651 360 651 394 q 630 298 651 326 q 556 201 608 269 q 474 99 504 132 q 421 65 444 65 q 381 80 397 65 q 364 111 364 94 q 376 144 364 128 l 542 360 l 376 575 q 364 608 364 592 q 381 640 364 625 q 421 654 397 654 m 151 654 q 163 654 151 654 q 205 622 175 654 q 287 519 235 589 q 360 422 339 450 q 382 360 382 394 q 360 298 382 326 q 287 201 339 269 q 205 99 235 132 q 151 65 175 65 q 111 80 128 65 q 94 111 94 94 q 107 144 94 128 l 272 360 l 107 575 q 94 608 94 592 q 111 640 94 625 q 151 654 128 654 z "},"¿":{"ha":663,"x_min":56,"x_max":607,"o":"m 318 575 l 318 592 q 372 644 318 644 l 379 644 q 435 592 435 644 l 435 575 q 426 516 435 535 q 413 488 417 497 q 397 465 410 478 q 378 445 383 451 q 355 425 374 439 q 331 408 336 411 q 277 370 317 397 q 219 329 238 343 q 183 290 200 315 q 167 239 167 265 q 215 132 167 172 q 344 92 263 92 q 468 122 426 92 q 532 210 510 151 q 585 193 564 210 q 607 150 607 176 q 533 38 607 86 q 330 -11 460 -11 q 128 58 200 -11 q 56 235 56 128 q 83 333 56 289 q 148 407 110 378 q 225 461 186 436 q 318 575 318 524 m 468 861 q 468 841 468 861 q 442 796 468 821 q 377 771 415 771 q 313 796 339 771 q 286 861 286 821 q 313 926 286 901 q 377 951 339 951 q 442 926 415 951 q 468 861 468 901 z "},"À":{"ha":954,"x_min":56,"x_max":903,"o":"m 472 942 l 488 942 q 533 933 522 942 q 547 923 543 925 q 556 911 550 921 q 565 899 563 901 q 574 882 567 896 q 583 864 581 868 q 899 69 754 554 q 903 38 903 53 q 860 0 903 0 l 826 0 q 794 8 803 0 q 781 21 785 17 q 772 37 776 25 q 767 54 768 49 q 740 149 763 63 q 689 317 717 236 l 269 317 q 215 135 235 210 q 194 54 196 60 q 188 37 192 49 q 179 21 183 25 q 168 11 175 17 q 133 0 157 0 l 100 0 q 56 38 56 0 q 61 69 56 47 q 376 864 206 554 q 386 882 379 868 q 395 899 393 896 q 403 911 397 901 q 413 923 410 921 q 424 931 417 925 q 436 938 431 936 q 472 942 456 942 m 479 810 q 304 417 378 625 l 656 417 q 479 810 606 554 m 315 1182 l 315 1219 q 340 1244 315 1244 q 363 1239 353 1244 l 613 1090 q 638 1053 635 1076 l 638 1040 q 614 1019 638 1019 q 596 1024 604 1019 l 343 1136 q 315 1182 315 1149 z "},"Á":{"ha":954,"x_min":56,"x_max":903,"o":"m 472 942 l 488 942 q 533 933 522 942 q 547 923 543 925 q 556 911 550 921 q 565 899 563 901 q 574 882 567 896 q 583 864 581 868 q 899 69 754 554 q 903 38 903 53 q 860 0 903 0 l 826 0 q 794 8 803 0 q 781 21 785 17 q 772 37 776 25 q 767 54 768 49 q 740 149 763 63 q 689 317 717 236 l 269 317 q 215 135 235 210 q 194 54 196 60 q 188 37 192 49 q 179 21 183 25 q 168 11 175 17 q 133 0 157 0 l 100 0 q 56 38 56 0 q 61 69 56 47 q 376 864 206 554 q 386 882 379 868 q 395 899 393 896 q 403 911 397 901 q 413 923 410 921 q 424 931 417 925 q 436 938 431 936 q 472 942 456 942 m 479 810 q 304 417 389 650 l 656 417 q 479 810 606 554 m 338 1019 q 315 1040 315 1019 l 315 1053 q 340 1090 315 1074 l 590 1239 q 613 1244 597 1244 q 638 1219 638 1244 l 638 1182 q 607 1136 638 1149 l 356 1024 q 338 1019 347 1019 z "},"Â":{"ha":954,"x_min":56,"x_max":903,"o":"m 472 942 l 488 942 q 533 933 522 942 q 547 923 543 925 q 556 911 550 921 q 565 899 563 901 q 574 882 567 896 q 583 864 581 868 q 899 69 754 554 q 903 38 903 53 q 860 0 903 0 l 826 0 q 794 8 803 0 q 781 21 785 17 q 772 37 776 25 q 767 54 768 49 q 740 149 763 63 q 689 317 717 236 l 269 317 q 215 135 235 210 q 194 54 196 60 q 188 37 192 49 q 179 21 183 25 q 168 11 175 17 q 133 0 157 0 l 100 0 q 56 38 56 0 q 61 69 56 47 q 376 864 206 554 q 386 882 379 868 q 395 899 393 896 q 403 911 397 901 q 413 923 410 921 q 424 931 417 925 q 436 938 431 936 q 472 942 456 942 m 479 810 q 304 417 389 650 l 656 417 q 479 810 606 554 m 318 1036 q 276 1069 276 1036 q 307 1107 276 1086 l 431 1194 q 475 1208 450 1208 q 522 1193 500 1208 l 646 1107 q 676 1069 676 1086 q 635 1036 676 1036 q 596 1049 615 1036 l 476 1122 l 357 1049 q 318 1036 338 1036 z "},"Ã":{"ha":954,"x_min":56,"x_max":903,"o":"m 472 942 l 488 942 q 533 933 522 942 q 547 923 543 925 q 556 911 550 921 q 565 899 563 901 q 574 882 567 896 q 583 864 581 868 q 899 69 754 554 q 903 38 903 53 q 860 0 903 0 l 826 0 q 794 8 803 0 q 781 21 785 17 q 772 37 776 25 q 767 54 768 49 q 740 149 763 63 q 689 317 717 236 l 269 317 q 215 135 235 210 q 194 54 196 60 q 188 37 192 49 q 179 21 183 25 q 168 11 175 17 q 133 0 157 0 l 100 0 q 56 38 56 0 q 61 69 56 47 q 376 864 206 554 q 386 882 379 868 q 395 899 393 896 q 403 911 397 901 q 413 923 410 921 q 424 931 417 925 q 436 938 431 936 q 472 942 456 942 m 479 810 q 304 417 389 650 l 656 417 q 479 810 606 554 m 499 1047 q 497 1048 499 1047 q 481 1055 496 1049 q 440 1073 467 1061 q 381 1085 414 1085 q 326 1068 347 1085 q 294 1051 306 1051 q 264 1082 264 1051 q 381 1183 264 1183 q 415 1181 401 1183 q 433 1177 428 1178 q 449 1172 438 1176 q 463 1167 460 1168 q 480 1159 465 1165 q 497 1151 494 1153 q 581 1129 547 1129 q 635 1146 614 1129 q 667 1163 656 1163 q 688 1154 679 1163 q 697 1132 697 1146 q 581 1031 697 1031 q 547 1033 560 1031 q 528 1037 533 1036 q 513 1042 524 1038 q 499 1047 501 1046 z "},"Ä":{"ha":954,"x_min":56,"x_max":903,"o":"m 472 942 l 488 942 q 533 933 522 942 q 547 923 543 925 q 556 911 550 921 q 565 899 563 901 q 574 882 567 896 q 583 864 581 868 q 899 69 754 554 q 903 38 903 53 q 860 0 903 0 l 826 0 q 794 8 803 0 q 781 21 785 17 q 772 37 776 25 q 767 54 768 49 q 740 149 763 63 q 689 317 717 236 l 269 317 q 215 135 235 210 q 194 54 196 60 q 188 37 192 49 q 179 21 183 25 q 168 11 175 17 q 133 0 157 0 l 100 0 q 56 38 56 0 q 61 69 56 47 q 376 864 206 554 q 386 882 379 868 q 395 899 393 896 q 403 911 397 901 q 413 923 410 921 q 424 931 417 925 q 436 938 431 936 q 472 942 456 942 m 479 810 q 304 417 389 650 l 656 417 q 479 810 606 554 m 338 1043 q 324 1043 338 1043 q 292 1061 311 1043 q 274 1106 274 1079 q 292 1151 274 1133 q 338 1168 311 1168 q 382 1151 364 1168 q 400 1106 400 1133 q 382 1061 400 1079 q 338 1043 364 1043 m 617 1043 q 603 1043 617 1043 q 572 1061 590 1043 q 554 1106 554 1079 q 572 1151 554 1133 q 617 1168 590 1168 q 661 1151 643 1168 q 679 1106 679 1133 q 661 1061 679 1079 q 617 1043 643 1043 z "},"Å":{"ha":954,"x_min":56,"x_max":903,"o":"m 472 942 l 488 942 q 533 933 522 942 q 547 923 543 925 q 556 911 550 921 q 565 899 563 901 q 574 882 567 896 q 583 864 581 868 q 899 69 754 554 q 903 38 903 53 q 860 0 903 0 l 826 0 q 794 8 803 0 q 781 21 785 17 q 772 37 776 25 q 767 54 768 49 q 740 149 763 63 q 689 317 717 236 l 269 317 q 215 135 235 210 q 194 54 196 60 q 188 37 192 49 q 179 21 183 25 q 168 11 175 17 q 133 0 157 0 l 100 0 q 56 38 56 0 q 61 69 56 47 q 376 864 206 554 q 386 882 379 868 q 395 899 393 896 q 403 911 397 901 q 413 923 410 921 q 424 931 417 925 q 436 938 431 936 q 472 942 456 942 m 479 810 q 304 417 389 650 l 656 417 q 479 810 606 554 m 389 1051 q 372 1067 389 1051 q 356 1138 356 1083 q 389 1224 356 1192 q 476 1256 422 1256 q 564 1224 531 1256 q 597 1138 597 1192 q 564 1051 597 1083 q 476 1019 531 1019 q 389 1051 422 1019 m 434 1183 q 426 1175 434 1183 q 418 1138 418 1167 q 434 1092 418 1108 q 476 1076 450 1076 q 518 1094 501 1076 q 535 1139 535 1111 q 519 1183 535 1167 q 476 1199 503 1199 q 434 1183 450 1199 z "},"Ç":{"ha":971,"x_min":88,"x_max":890,"o":"m 547 954 q 219 830 351 954 q 88 474 88 706 q 219 115 88 242 q 547 -11 351 -11 q 793 51 696 -11 q 890 183 890 113 q 872 233 890 214 q 819 251 853 251 q 547 94 761 94 q 313 192 410 94 q 215 474 215 290 q 312 752 215 658 q 547 846 408 846 q 801 699 758 846 q 862 717 839 699 q 885 767 885 736 q 790 896 885 838 q 547 954 694 954 m 574 -39 q 644 -59 617 -39 q 671 -122 671 -79 q 631 -192 671 -165 q 540 -218 592 -218 q 439 -157 439 -218 q 451 -124 439 -137 q 483 -111 464 -111 q 544 -146 483 -146 q 583 -136 568 -146 q 599 -110 599 -126 q 550 -79 599 -79 l 519 -79 q 488 -51 488 -79 q 492 -33 488 -44 l 513 19 l 574 19 l 556 -39 l 574 -39 z "},"È":{"ha":786,"x_min":140,"x_max":725,"o":"m 194 943 l 674 943 q 725 891 725 943 q 674 839 725 839 l 261 839 l 261 542 l 628 542 q 679 490 679 542 q 628 438 679 438 l 261 438 l 261 104 l 674 104 q 725 52 725 104 q 674 0 725 0 l 194 0 q 140 53 140 0 l 140 890 q 194 943 140 943 m 251 1182 l 251 1219 q 276 1244 251 1244 q 299 1239 289 1244 l 549 1090 q 574 1053 571 1076 l 574 1040 q 550 1019 574 1019 q 532 1024 540 1019 l 279 1136 q 251 1182 251 1149 z "},"É":{"ha":786,"x_min":140,"x_max":725,"o":"m 194 943 l 674 943 q 725 891 725 943 q 674 839 725 839 l 261 839 l 261 542 l 628 542 q 679 490 679 542 q 628 438 679 438 l 261 438 l 261 104 l 674 104 q 725 52 725 104 q 674 0 725 0 l 194 0 q 140 53 140 0 l 140 890 q 194 943 140 943 m 274 1019 q 251 1040 251 1019 l 251 1053 q 276 1090 251 1074 l 526 1239 q 549 1244 533 1244 q 574 1219 574 1244 l 574 1182 q 543 1136 574 1149 l 292 1024 q 274 1019 283 1019 z "},"Ê":{"ha":786,"x_min":140,"x_max":725,"o":"m 194 943 l 674 943 q 725 891 725 943 q 674 839 725 839 l 261 839 l 261 542 l 628 542 q 679 490 679 542 q 628 438 679 438 l 261 438 l 261 104 l 674 104 q 725 52 725 104 q 674 0 725 0 l 194 0 q 140 53 140 0 l 140 890 q 194 943 140 943 m 254 1036 q 213 1069 213 1036 q 243 1107 213 1086 l 367 1194 q 411 1208 386 1208 q 458 1193 436 1208 l 582 1107 q 613 1069 613 1086 q 571 1036 613 1036 q 532 1049 551 1036 l 413 1122 l 293 1049 q 254 1036 274 1036 z "},"Ë":{"ha":786,"x_min":140,"x_max":725,"o":"m 194 943 l 674 943 q 725 891 725 943 q 674 839 725 839 l 261 839 l 261 542 l 628 542 q 679 490 679 542 q 628 438 679 438 l 261 438 l 261 104 l 674 104 q 725 52 725 104 q 674 0 725 0 l 194 0 q 140 53 140 0 l 140 890 q 194 943 140 943 m 274 1043 q 260 1043 274 1043 q 228 1061 247 1043 q 210 1106 210 1079 q 228 1151 210 1133 q 274 1168 247 1168 q 318 1151 300 1168 q 336 1106 336 1133 q 318 1061 336 1079 q 274 1043 300 1043 m 553 1043 q 540 1043 553 1043 q 508 1061 526 1043 q 490 1106 490 1079 q 508 1151 490 1133 q 553 1168 526 1168 q 597 1151 579 1168 q 615 1106 615 1133 q 597 1061 615 1079 q 553 1043 579 1043 z "},"Ì":{"ha":390,"x_min":36,"x_max":358,"o":"m 192 943 l 204 943 q 260 889 260 943 l 260 53 q 204 0 260 0 l 192 0 q 139 53 139 0 l 139 889 q 192 943 139 943 m 36 1181 l 36 1218 q 61 1243 36 1243 q 83 1238 74 1243 l 333 1089 q 358 1051 356 1075 l 358 1039 q 335 1018 358 1018 q 317 1022 325 1018 l 64 1135 q 36 1181 36 1147 z "},"Í":{"ha":390,"x_min":36,"x_max":358,"o":"m 192 943 l 204 943 q 260 889 260 943 l 260 53 q 204 0 260 0 l 192 0 q 139 53 139 0 l 139 889 q 192 943 139 943 m 58 1018 q 36 1039 36 1018 l 36 1051 q 61 1089 36 1072 l 311 1238 q 333 1243 318 1243 q 358 1218 358 1243 l 358 1181 q 328 1135 358 1147 l 76 1022 q 58 1018 68 1018 z "},"Î":{"ha":400,"x_min":1,"x_max":401,"o":"m 193 943 l 206 943 q 261 889 261 943 l 261 53 q 206 0 261 0 l 193 0 q 140 53 140 0 l 140 889 q 193 943 140 943 m 43 1035 q 1 1068 1 1035 q 32 1106 1 1085 l 156 1193 q 200 1207 175 1207 q 247 1192 225 1207 l 371 1106 q 401 1068 401 1085 q 360 1035 401 1035 q 321 1047 340 1035 l 201 1121 l 82 1047 q 43 1035 63 1035 z "},"Ï":{"ha":389,"x_min":-7,"x_max":399,"o":"m 189 943 l 201 943 q 257 889 257 943 l 257 53 q 201 0 257 0 l 189 0 q 136 53 136 0 l 136 889 q 189 943 136 943 m 57 1042 q 44 1042 57 1042 q 12 1060 31 1042 q -7 1105 -7 1078 q 12 1149 -7 1132 q 57 1167 31 1167 q 101 1149 83 1167 q 119 1105 119 1132 q 101 1060 119 1078 q 57 1042 83 1042 m 336 1042 q 323 1042 336 1042 q 292 1060 310 1042 q 274 1105 274 1078 q 292 1149 274 1132 q 336 1167 310 1167 q 381 1149 363 1167 q 399 1105 399 1132 q 381 1060 399 1078 q 336 1042 363 1042 z "},"Ñ":{"ha":1051,"x_min":142,"x_max":911,"o":"m 197 943 l 225 943 q 314 885 278 943 l 792 190 l 792 889 q 804 931 792 918 q 844 943 817 943 l 857 943 q 911 889 911 943 l 911 67 q 897 19 911 38 q 857 0 883 0 l 839 0 q 738 71 786 0 l 261 764 l 261 53 q 211 0 261 0 l 197 0 q 142 53 142 0 l 142 875 q 197 943 142 943 m 504 1042 q 420 1064 454 1064 q 367 1047 386 1064 q 335 1031 347 1031 q 304 1061 304 1031 q 421 1163 304 1163 q 455 1160 442 1163 q 473 1156 468 1157 q 489 1151 478 1156 q 503 1146 500 1147 q 520 1138 506 1144 q 538 1131 535 1132 q 622 1108 588 1108 q 675 1125 656 1108 q 707 1142 694 1142 q 728 1133 719 1142 q 738 1111 738 1125 q 621 1010 738 1010 q 587 1013 600 1010 q 569 1016 574 1015 q 553 1021 564 1017 q 539 1026 542 1025 q 522 1034 536 1028 q 504 1042 507 1040 z "},"Ò":{"ha":1065,"x_min":81,"x_max":986,"o":"m 369 926 q 408 940 369 926 q 533 954 447 954 q 697 926 619 954 q 841 842 775 897 q 947 690 907 786 q 986 470 986 593 q 947 252 986 347 q 841 101 907 157 q 697 17 775 46 q 533 -11 619 -11 q 369 17 447 -11 q 224 101 290 46 q 119 252 158 157 q 81 470 81 347 q 119 690 81 593 q 224 842 158 786 q 369 926 290 897 m 767 750 q 718 799 767 750 q 533 847 669 847 q 299 750 397 847 q 201 472 201 653 q 299 193 201 290 q 533 96 397 96 q 767 193 669 96 q 865 472 865 290 q 767 750 865 653 m 375 1181 l 375 1218 q 400 1243 375 1243 q 422 1238 413 1243 l 672 1089 q 697 1051 694 1075 l 697 1039 q 674 1018 697 1018 q 656 1022 664 1018 l 403 1135 q 375 1181 375 1147 z "},"Ó":{"ha":1065,"x_min":81,"x_max":986,"o":"m 369 926 q 408 940 369 926 q 533 954 447 954 q 697 926 619 954 q 841 842 775 897 q 947 690 907 786 q 986 470 986 593 q 947 252 986 347 q 841 101 907 157 q 697 17 775 46 q 533 -11 619 -11 q 369 17 447 -11 q 224 101 290 46 q 119 252 158 157 q 81 470 81 347 q 119 690 81 593 q 224 842 158 786 q 369 926 290 897 m 767 750 q 718 799 767 750 q 533 847 669 847 q 299 750 397 847 q 201 472 201 653 q 299 193 201 290 q 533 96 397 96 q 767 193 669 96 q 865 472 865 290 q 767 750 865 653 m 397 1018 q 375 1039 375 1018 l 375 1051 q 400 1089 375 1072 l 650 1238 q 672 1243 657 1243 q 697 1218 697 1243 l 697 1181 q 667 1135 697 1147 l 415 1022 q 397 1018 407 1018 z "},"Ô":{"ha":1065,"x_min":81,"x_max":986,"o":"m 369 926 q 408 940 369 926 q 533 954 447 954 q 697 926 619 954 q 841 842 775 897 q 947 690 907 786 q 986 470 986 593 q 947 252 986 347 q 841 101 907 157 q 697 17 775 46 q 533 -11 619 -11 q 369 17 447 -11 q 224 101 290 46 q 119 252 158 157 q 81 470 81 347 q 119 690 81 593 q 224 842 158 786 q 369 926 290 897 m 767 750 q 718 799 767 750 q 533 847 669 847 q 299 750 397 847 q 201 472 201 653 q 299 193 201 290 q 533 96 397 96 q 767 193 669 96 q 865 472 865 290 q 767 750 865 653 m 376 1035 q 335 1068 335 1035 q 365 1106 335 1085 l 489 1193 q 533 1207 508 1207 q 581 1192 558 1207 l 704 1106 q 735 1068 735 1085 q 693 1035 735 1035 q 654 1047 674 1035 l 535 1121 l 415 1047 q 376 1035 396 1035 z "},"Õ":{"ha":1065,"x_min":81,"x_max":986,"o":"m 369 926 q 408 940 369 926 q 533 954 447 954 q 697 926 619 954 q 841 842 775 897 q 947 690 907 786 q 986 470 986 593 q 947 252 986 347 q 841 101 907 157 q 697 17 775 46 q 533 -11 619 -11 q 369 17 447 -11 q 224 101 290 46 q 119 252 158 157 q 81 470 81 347 q 119 690 81 593 q 224 842 158 786 q 369 926 290 897 m 767 750 q 718 799 767 750 q 533 847 669 847 q 299 750 397 847 q 201 472 201 653 q 299 193 201 290 q 533 96 397 96 q 767 193 669 96 q 865 472 865 290 q 767 750 865 653 m 554 1047 q 553 1048 554 1047 q 537 1055 551 1049 q 496 1073 522 1061 q 436 1085 469 1085 q 382 1068 403 1085 q 350 1051 361 1051 q 319 1082 319 1051 q 436 1183 319 1183 q 470 1181 457 1183 q 488 1177 483 1178 q 504 1172 493 1176 q 518 1167 515 1168 q 535 1159 521 1165 q 553 1151 550 1153 q 636 1129 603 1129 q 690 1146 669 1129 q 723 1163 711 1163 q 744 1154 735 1163 q 753 1132 753 1146 q 636 1031 753 1031 q 602 1033 615 1031 q 584 1037 589 1036 q 568 1042 579 1038 q 554 1047 557 1046 z "},"Ö":{"ha":1065,"x_min":81,"x_max":986,"o":"m 369 926 q 408 940 369 926 q 533 954 447 954 q 697 926 619 954 q 841 842 775 897 q 947 690 907 786 q 986 470 986 593 q 947 252 986 347 q 841 101 907 157 q 697 17 775 46 q 533 -11 619 -11 q 369 17 447 -11 q 224 101 290 46 q 119 252 158 157 q 81 470 81 347 q 119 690 81 593 q 224 842 158 786 q 369 926 290 897 m 767 750 q 718 799 767 750 q 533 847 669 847 q 299 750 397 847 q 201 472 201 653 q 299 193 201 290 q 533 96 397 96 q 767 193 669 96 q 865 472 865 290 q 767 750 865 653 m 394 1042 q 381 1042 394 1042 q 349 1060 368 1042 q 331 1105 331 1078 q 349 1149 331 1132 q 394 1167 368 1167 q 439 1149 421 1167 q 457 1105 457 1132 q 439 1060 457 1078 q 394 1042 421 1042 m 674 1042 q 660 1042 674 1042 q 629 1060 647 1042 q 611 1105 611 1078 q 629 1149 611 1132 q 674 1167 647 1167 q 718 1149 700 1167 q 736 1105 736 1132 q 718 1060 736 1078 q 674 1042 700 1042 z "},"×":{"ha":674,"x_min":126,"x_max":611,"o":"m 146 499 q 126 534 126 518 q 145 571 126 550 q 183 592 164 592 q 221 574 203 592 l 371 419 l 517 572 q 554 592 536 592 q 592 572 572 592 q 611 533 613 553 q 594 497 610 513 l 446 347 l 594 199 q 611 163 610 183 q 593 123 613 143 q 554 103 574 103 q 517 122 535 103 l 371 275 l 222 122 q 185 101 203 101 q 147 121 167 101 q 126 158 126 140 q 146 196 126 176 l 297 347 l 146 499 z "},"Ø":{"ha":1065,"x_min":81,"x_max":986,"o":"m 204 -39 q 177 -57 190 -57 q 144 -42 164 -57 q 124 -14 124 -28 q 133 14 124 0 l 858 943 q 886 961 872 961 q 920 947 900 961 q 940 917 940 932 q 929 890 940 903 l 204 -39 m 369 926 q 408 940 369 926 q 533 954 447 954 q 697 926 619 954 q 841 842 775 897 q 947 690 907 786 q 986 470 986 593 q 947 252 986 347 q 841 101 907 157 q 697 17 775 46 q 533 -11 619 -11 q 369 17 447 -11 q 224 101 290 46 q 119 252 158 157 q 81 470 81 347 q 119 690 81 593 q 224 842 158 786 q 369 926 290 897 m 767 750 q 718 799 767 750 q 533 847 669 847 q 299 750 397 847 q 201 472 201 653 q 299 193 201 290 q 533 96 397 96 q 767 193 669 96 q 865 472 865 290 q 767 750 865 653 z "},"Ù":{"ha":1028,"x_min":135,"x_max":893,"o":"m 189 943 l 203 943 q 257 889 257 943 l 257 394 q 514 92 257 92 q 771 394 771 92 l 771 889 q 825 943 771 943 l 836 943 q 893 889 893 943 l 893 400 q 853 181 893 278 q 788 83 828 124 q 677 15 747 42 q 514 -11 607 -11 q 351 15 421 -11 q 240 83 281 42 q 175 181 200 124 q 135 400 135 278 l 135 889 q 189 943 135 943 m 356 1181 l 356 1218 q 381 1243 356 1243 q 403 1238 393 1243 l 653 1089 q 678 1051 675 1075 l 678 1039 q 654 1018 678 1018 q 636 1022 644 1018 l 383 1135 q 356 1181 356 1147 z "},"Ú":{"ha":1028,"x_min":135,"x_max":893,"o":"m 189 943 l 203 943 q 257 889 257 943 l 257 394 q 514 92 257 92 q 771 394 771 92 l 771 889 q 825 943 771 943 l 836 943 q 893 889 893 943 l 893 400 q 853 181 893 278 q 788 83 828 124 q 677 15 747 42 q 514 -11 607 -11 q 351 15 421 -11 q 240 83 281 42 q 175 181 200 124 q 135 400 135 278 l 135 889 q 189 943 135 943 m 378 1018 q 356 1039 356 1018 l 356 1051 q 381 1089 356 1072 l 631 1238 q 653 1243 638 1243 q 678 1218 678 1243 l 678 1181 q 647 1135 678 1147 l 396 1022 q 378 1018 388 1018 z "},"Û":{"ha":1028,"x_min":135,"x_max":893,"o":"m 189 943 l 203 943 q 257 889 257 943 l 257 394 q 514 92 257 92 q 771 394 771 92 l 771 889 q 825 943 771 943 l 836 943 q 893 889 893 943 l 893 400 q 853 181 893 278 q 788 83 828 124 q 677 15 747 42 q 514 -11 607 -11 q 351 15 421 -11 q 240 83 281 42 q 175 181 200 124 q 135 400 135 278 l 135 889 q 189 943 135 943 m 357 1035 q 315 1068 315 1035 q 346 1106 315 1085 l 469 1193 q 514 1207 489 1207 q 561 1192 539 1207 l 685 1106 q 715 1068 715 1085 q 674 1035 715 1035 q 635 1047 654 1035 l 515 1121 l 396 1047 q 357 1035 376 1035 z "},"Ü":{"ha":1028,"x_min":135,"x_max":893,"o":"m 189 943 l 203 943 q 257 889 257 943 l 257 394 q 514 92 257 92 q 771 394 771 92 l 771 889 q 825 943 771 943 l 836 943 q 893 889 893 943 l 893 400 q 853 181 893 278 q 788 83 828 124 q 677 15 747 42 q 514 -11 607 -11 q 351 15 421 -11 q 240 83 281 42 q 175 181 200 124 q 135 400 135 278 l 135 889 q 189 943 135 943 m 375 1042 q 362 1042 375 1042 q 330 1060 349 1042 q 311 1105 311 1078 q 330 1149 311 1132 q 375 1167 349 1167 q 419 1149 401 1167 q 438 1105 438 1132 q 419 1060 438 1078 q 375 1042 401 1042 m 654 1042 q 641 1042 654 1042 q 610 1060 628 1042 q 592 1105 592 1078 q 610 1149 592 1132 q 654 1167 628 1167 q 699 1149 681 1167 q 717 1105 717 1132 q 699 1060 717 1078 q 654 1042 681 1042 z "},"Ý":{"ha":876,"x_min":56,"x_max":821,"o":"m 100 943 l 129 943 q 156 935 147 943 q 169 921 164 926 q 179 905 174 915 q 188 888 185 894 q 197 867 190 881 q 206 846 203 853 q 431 468 299 639 l 446 468 q 671 846 578 639 q 680 867 674 853 q 689 888 686 881 q 697 905 692 894 q 708 921 703 915 q 719 933 713 926 q 747 943 729 943 l 776 943 q 821 904 821 943 q 813 864 821 885 q 790 813 804 843 q 765 759 776 783 q 737 704 754 735 q 709 655 719 674 q 676 603 699 636 q 645 556 654 571 q 610 506 636 542 q 575 458 583 469 q 499 356 513 375 l 499 53 q 444 0 499 0 l 432 0 q 378 53 378 0 l 378 356 q 328 422 364 375 q 267 506 293 469 q 231 556 240 542 q 200 603 222 571 q 167 655 178 636 q 140 704 157 674 q 111 759 122 735 q 86 813 100 783 q 64 864 72 843 q 56 904 56 885 q 100 943 56 943 m 299 1039 q 276 1060 276 1039 l 276 1072 q 301 1110 276 1093 l 551 1258 q 574 1264 558 1264 q 599 1239 599 1264 l 599 1201 q 568 1156 599 1168 l 317 1043 q 299 1039 308 1039 z "},"ß":{"ha":817,"x_min":101,"x_max":774,"o":"m 101 728 q 174 935 101 857 q 376 1013 246 1013 q 588 944 506 1013 q 669 757 669 876 q 620 633 669 683 q 453 515 571 582 q 694 379 660 414 q 764 281 754 319 q 774 203 774 242 q 703 49 774 108 q 531 -10 632 -10 q 371 24 429 -10 q 313 113 313 58 q 365 176 313 167 q 420 107 375 132 q 529 82 465 82 q 628 115 593 82 q 663 206 663 147 q 622 301 663 264 q 483 385 582 339 q 360 451 383 432 q 338 506 338 469 q 371 570 338 542 q 444 617 404 599 q 518 673 485 636 q 551 757 551 710 q 499 878 551 838 q 374 918 446 918 q 258 870 301 918 q 215 731 215 822 l 215 49 q 163 -1 215 -1 l 154 -1 q 114 10 126 -1 q 101 49 101 22 l 101 728 z "},"à":{"ha":747,"x_min":61,"x_max":697,"o":"m 344 696 q 639 422 639 696 l 639 147 q 697 50 639 71 q 619 -3 676 -3 q 553 27 578 -3 q 529 106 529 57 q 303 -11 442 -11 q 126 47 190 -11 q 61 202 61 104 q 137 361 61 300 q 342 422 213 422 q 472 406 419 422 q 524 386 515 390 l 524 447 q 481 567 524 532 q 350 603 438 603 q 158 508 226 603 q 100 563 100 517 q 172 656 100 615 q 344 696 244 696 m 524 297 q 351 336 436 336 q 221 300 267 336 q 175 206 175 264 q 215 115 175 149 q 331 81 254 81 q 466 136 408 81 q 524 271 524 192 l 524 297 m 208 924 l 208 961 q 233 986 208 986 q 256 981 246 986 l 506 832 q 531 794 528 818 l 531 782 q 507 761 531 761 q 489 765 497 761 l 236 878 q 208 924 208 890 z "},"á":{"ha":747,"x_min":61,"x_max":697,"o":"m 344 696 q 639 422 639 696 l 639 147 q 697 50 639 71 q 619 -3 676 -3 q 553 27 578 -3 q 529 106 529 57 q 303 -11 442 -11 q 126 47 190 -11 q 61 202 61 104 q 137 361 61 300 q 342 422 213 422 q 472 406 419 422 q 524 386 515 390 l 524 447 q 481 567 524 532 q 350 603 438 603 q 158 508 226 603 q 100 563 100 517 q 172 656 100 615 q 344 696 244 696 m 524 297 q 351 336 436 336 q 221 300 267 336 q 175 206 175 264 q 215 115 175 149 q 331 81 254 81 q 466 136 408 81 q 524 271 524 192 l 524 297 m 231 761 q 208 782 208 761 l 208 794 q 233 832 208 815 l 483 981 q 506 986 490 986 q 531 961 531 986 l 531 924 q 500 878 531 890 l 249 765 q 231 761 240 761 z "},"â":{"ha":747,"x_min":61,"x_max":697,"o":"m 344 696 q 639 422 639 696 l 639 147 q 697 50 639 71 q 619 -3 676 -3 q 553 27 578 -3 q 529 106 529 57 q 303 -11 442 -11 q 126 47 190 -11 q 61 202 61 104 q 137 361 61 300 q 342 422 213 422 q 472 406 419 422 q 524 386 515 390 l 524 447 q 481 567 524 532 q 350 603 438 603 q 158 508 226 603 q 100 563 100 517 q 172 656 100 615 q 344 696 244 696 m 524 297 q 351 336 436 336 q 221 300 267 336 q 175 206 175 264 q 215 115 175 149 q 331 81 254 81 q 466 136 408 81 q 524 271 524 192 l 524 297 m 210 778 q 168 811 168 778 q 199 849 168 828 l 322 936 q 367 950 342 950 q 414 935 392 950 l 538 849 q 568 811 568 828 q 526 778 568 778 q 488 790 507 778 l 368 864 l 249 790 q 210 778 229 778 z "},"ã":{"ha":747,"x_min":61,"x_max":697,"o":"m 344 696 q 639 422 639 696 l 639 147 q 697 50 639 71 q 619 -3 676 -3 q 553 27 578 -3 q 529 106 529 57 q 303 -11 442 -11 q 126 47 190 -11 q 61 202 61 104 q 137 361 61 300 q 342 422 213 422 q 472 406 419 422 q 524 386 515 390 l 524 447 q 481 567 524 532 q 350 603 438 603 q 158 508 226 603 q 100 563 100 517 q 172 656 100 615 q 344 696 244 696 m 524 297 q 351 336 436 336 q 221 300 267 336 q 175 206 175 264 q 215 115 175 149 q 331 81 254 81 q 466 136 408 81 q 524 271 524 192 l 524 297 m 393 769 q 392 770 393 769 q 376 777 390 771 q 335 795 361 783 q 275 807 308 807 q 221 790 242 807 q 189 774 200 774 q 158 804 158 774 q 275 906 158 906 q 309 903 296 906 q 327 899 322 900 q 343 894 332 899 q 357 889 354 890 q 374 881 360 888 q 392 874 389 875 q 475 851 442 851 q 529 868 508 851 q 562 885 550 885 q 583 876 574 885 q 592 854 592 868 q 475 753 592 753 q 441 756 454 753 q 423 759 428 758 q 407 764 418 760 q 393 769 396 768 z "},"ä":{"ha":747,"x_min":61,"x_max":697,"o":"m 344 696 q 639 422 639 696 l 639 147 q 697 50 639 71 q 619 -3 676 -3 q 553 27 578 -3 q 529 106 529 57 q 303 -11 442 -11 q 126 47 190 -11 q 61 202 61 104 q 137 361 61 300 q 342 422 213 422 q 472 406 419 422 q 524 386 515 390 l 524 447 q 481 567 524 532 q 350 603 438 603 q 158 508 226 603 q 100 563 100 517 q 172 656 100 615 q 344 696 244 696 m 524 297 q 351 336 436 336 q 221 300 267 336 q 175 206 175 264 q 215 115 175 149 q 331 81 254 81 q 466 136 408 81 q 524 271 524 192 l 524 297 m 229 785 q 216 785 229 785 q 184 803 203 785 q 165 848 165 821 q 184 892 165 875 q 229 910 203 910 q 274 892 256 910 q 292 848 292 875 q 274 803 292 821 q 229 785 256 785 m 508 785 q 495 785 508 785 q 464 803 482 785 q 446 848 446 821 q 464 892 446 875 q 508 910 482 910 q 553 892 535 910 q 571 848 571 875 q 553 803 571 821 q 508 785 535 785 z "},"å":{"ha":747,"x_min":61,"x_max":697,"o":"m 344 696 q 639 422 639 696 l 639 147 q 697 50 639 71 q 619 -3 676 -3 q 553 27 578 -3 q 529 106 529 57 q 303 -11 442 -11 q 126 47 190 -11 q 61 202 61 104 q 137 361 61 300 q 342 422 213 422 q 472 406 419 422 q 524 386 515 390 l 524 447 q 481 567 524 532 q 350 603 438 603 q 158 508 226 603 q 100 563 100 517 q 172 656 100 615 q 344 696 244 696 m 524 297 q 351 336 436 336 q 221 300 267 336 q 175 206 175 264 q 215 115 175 149 q 331 81 254 81 q 466 136 408 81 q 524 271 524 192 l 524 297 m 283 774 q 267 790 283 774 q 250 860 250 806 q 283 946 250 914 q 371 978 317 978 q 458 946 425 978 q 492 860 492 914 q 458 774 492 806 q 371 742 425 742 q 283 774 317 742 m 328 905 q 320 897 328 905 q 313 860 313 889 q 328 815 313 831 q 370 799 344 799 q 413 816 396 799 q 429 861 429 833 q 413 905 429 889 q 371 921 397 921 q 328 905 344 921 z "},"ç":{"ha":719,"x_min":60,"x_max":640,"o":"m 421 697 q 379 697 421 697 q 279 678 338 697 q 170 618 221 658 q 90 506 119 578 q 60 342 60 435 q 89 181 60 250 q 168 70 118 111 q 277 9 218 29 q 422 -11 336 -11 q 574 28 507 -11 q 640 117 640 68 q 622 158 640 142 q 578 174 604 174 q 390 83 529 83 q 240 150 303 83 q 178 343 178 217 q 239 535 178 469 q 393 601 300 601 q 508 576 460 601 q 571 519 557 550 q 631 579 631 526 q 567 660 631 622 q 421 697 504 697 m 419 -39 q 490 -59 463 -39 q 517 -122 517 -79 q 477 -192 517 -165 q 386 -218 438 -218 q 285 -157 285 -218 q 297 -124 285 -137 q 329 -111 310 -111 q 390 -146 329 -146 q 429 -136 414 -146 q 444 -110 444 -126 q 396 -79 444 -79 l 365 -79 q 333 -51 333 -79 q 338 -33 333 -44 l 358 19 l 419 19 l 401 -39 l 419 -39 z "},"è":{"ha":715,"x_min":58,"x_max":657,"o":"m 58 340 q 58 427 58 340 q 156 606 58 514 q 379 697 253 697 q 579 633 506 697 q 653 472 653 568 q 577 323 653 376 q 382 269 501 269 q 167 307 263 269 q 236 144 167 206 q 406 82 306 82 q 600 178 561 82 q 640 165 624 178 q 657 126 657 151 q 585 33 657 78 q 404 -11 514 -11 q 158 78 257 -11 q 58 340 58 167 m 547 476 q 501 568 547 531 q 373 606 454 606 q 231 540 292 606 q 168 393 169 475 q 367 360 268 360 q 547 476 547 360 m 197 924 l 197 961 q 222 986 197 986 q 244 981 235 986 l 494 832 q 519 794 517 818 l 519 782 q 496 761 519 761 q 478 765 486 761 l 225 878 q 197 924 197 890 z "},"é":{"ha":715,"x_min":58,"x_max":657,"o":"m 58 340 q 58 427 58 340 q 156 606 58 514 q 379 697 253 697 q 579 633 506 697 q 653 472 653 568 q 577 323 653 376 q 382 269 501 269 q 167 307 263 269 q 236 144 167 206 q 406 82 306 82 q 600 178 561 82 q 640 165 624 178 q 657 126 657 151 q 585 33 657 78 q 404 -11 514 -11 q 158 78 257 -11 q 58 340 58 167 m 547 476 q 501 568 547 531 q 373 606 454 606 q 231 540 292 606 q 168 393 169 475 q 367 360 268 360 q 547 476 547 360 m 219 761 q 197 782 197 761 l 197 794 q 222 832 197 815 l 472 981 q 494 986 479 986 q 519 961 519 986 l 519 924 q 489 878 519 890 l 238 765 q 219 761 229 761 z "},"ê":{"ha":715,"x_min":58,"x_max":657,"o":"m 58 340 q 58 427 58 340 q 156 606 58 514 q 379 697 253 697 q 579 633 506 697 q 653 472 653 568 q 577 323 653 376 q 382 269 501 269 q 167 307 263 269 q 236 144 167 206 q 406 82 306 82 q 600 178 561 82 q 640 165 624 178 q 657 126 657 151 q 585 33 657 78 q 404 -11 514 -11 q 158 78 257 -11 q 58 340 58 167 m 547 476 q 501 568 547 531 q 373 606 454 606 q 231 540 292 606 q 168 393 169 475 q 367 360 268 360 q 547 476 547 360 m 228 778 q 186 811 186 778 q 217 849 186 828 l 340 936 q 385 950 360 950 q 432 935 410 950 l 556 849 q 586 811 586 828 q 544 778 586 778 q 506 790 525 778 l 386 864 l 267 790 q 228 778 247 778 z "},"ë":{"ha":715,"x_min":58,"x_max":657,"o":"m 58 340 q 58 427 58 340 q 156 606 58 514 q 379 697 253 697 q 579 633 506 697 q 653 472 653 568 q 577 323 653 376 q 382 269 501 269 q 167 307 263 269 q 236 144 167 206 q 406 82 306 82 q 600 178 561 82 q 640 165 624 178 q 657 126 657 151 q 585 33 657 78 q 404 -11 514 -11 q 158 78 257 -11 q 58 340 58 167 m 547 476 q 501 568 547 531 q 373 606 454 606 q 231 540 292 606 q 168 393 169 475 q 367 360 268 360 q 547 476 547 360 m 233 785 q 220 785 233 785 q 188 803 207 785 q 169 848 169 821 q 188 892 169 875 q 233 910 207 910 q 278 892 260 910 q 296 848 296 875 q 278 803 296 821 q 233 785 260 785 m 513 785 q 499 785 513 785 q 468 803 486 785 q 450 848 450 821 q 468 892 450 875 q 513 910 486 910 q 557 892 539 910 q 575 848 575 875 q 557 803 575 821 q 513 785 539 785 z "},"ì":{"ha":376,"x_min":29,"x_max":351,"o":"m 29 939 l 29 976 q 54 1001 29 1001 q 76 996 67 1001 l 326 847 q 351 810 349 833 l 351 797 q 328 776 351 776 q 310 781 318 776 l 57 893 q 29 939 29 906 m 182 685 l 190 685 q 243 633 243 685 l 243 53 q 190 0 243 0 l 182 0 q 142 13 154 0 q 129 53 129 25 l 129 633 q 182 685 129 685 z "},"í":{"ha":376,"x_min":29,"x_max":351,"o":"m 51 776 q 29 797 29 776 l 29 810 q 54 847 29 831 l 304 996 q 326 1001 311 1001 q 351 976 351 1001 l 351 939 q 321 893 351 906 l 69 781 q 51 776 61 776 m 182 685 l 190 685 q 243 633 243 685 l 243 53 q 190 0 243 0 l 182 0 q 142 13 154 0 q 129 53 129 25 l 129 633 q 182 685 129 685 z "},"î":{"ha":392,"x_min":-3,"x_max":397,"o":"m 39 793 q -3 826 -3 793 q 28 864 -3 843 l 151 951 q 196 965 171 965 q 243 950 221 965 l 367 864 q 397 826 397 843 q 356 793 397 793 q 317 806 336 793 l 197 879 l 78 806 q 39 793 58 793 m 192 685 l 200 685 q 253 633 253 685 l 253 53 q 200 0 253 0 l 192 0 q 151 13 164 0 q 139 53 139 25 l 139 633 q 192 685 139 685 z "},"ï":{"ha":369,"x_min":-17,"x_max":389,"o":"m 47 800 q 34 800 47 800 q 2 818 21 800 q -17 863 -17 836 q 2 908 -17 890 q 47 925 21 925 q 92 908 74 925 q 110 863 110 890 q 92 818 110 836 q 47 800 74 800 m 326 800 q 313 800 326 800 q 282 818 300 800 q 264 863 264 836 q 282 908 264 890 q 326 925 300 925 q 371 908 353 925 q 389 863 389 890 q 371 818 389 836 q 326 800 353 800 m 183 685 l 192 685 q 244 633 244 685 l 244 53 q 192 0 244 0 l 183 0 q 143 13 156 0 q 131 53 131 25 l 131 633 q 183 685 131 685 z "},"ñ":{"ha":774,"x_min":101,"x_max":686,"o":"m 154 685 l 164 685 q 217 632 217 685 l 217 564 q 300 657 243 617 q 431 697 357 697 q 615 630 543 697 q 686 417 686 563 l 686 53 q 674 13 686 25 q 633 0 661 0 l 622 0 q 571 53 571 0 l 571 413 q 528 557 571 514 q 403 600 485 600 q 269 533 321 600 q 218 357 218 467 l 218 53 q 164 0 218 0 l 154 0 q 114 13 126 0 q 101 53 101 25 l 101 632 q 154 685 101 685 m 376 785 q 292 807 326 807 q 239 790 258 807 q 207 774 219 774 q 176 804 176 774 q 293 906 176 906 q 327 903 314 906 q 345 899 340 900 q 361 894 350 899 q 375 889 372 890 q 392 881 378 888 q 410 874 407 875 q 494 851 460 851 q 547 868 528 851 q 579 885 567 885 q 601 876 592 885 q 610 854 610 868 q 493 753 610 753 q 459 756 472 753 q 441 759 446 758 q 425 764 436 760 q 411 769 414 768 q 394 777 408 771 q 376 785 379 783 z "},"ò":{"ha":797,"x_min":58,"x_max":739,"o":"m 157 604 q 206 651 157 604 q 399 697 256 697 q 640 604 542 697 q 739 342 739 511 q 640 81 739 172 q 399 -11 542 -11 q 157 81 256 -11 q 58 342 58 172 q 157 604 58 511 m 559 534 q 528 568 559 534 q 399 601 497 601 q 238 534 300 601 q 176 342 176 467 q 238 151 176 218 q 399 83 300 83 q 559 151 497 83 q 621 342 621 218 q 559 534 621 467 m 240 924 l 240 961 q 265 986 240 986 q 288 981 278 986 l 538 832 q 563 794 560 818 l 563 782 q 539 761 563 761 q 521 765 529 761 l 268 878 q 240 924 240 890 z "},"ó":{"ha":797,"x_min":58,"x_max":739,"o":"m 157 604 q 206 651 157 604 q 399 697 256 697 q 640 604 542 697 q 739 342 739 511 q 640 81 739 172 q 399 -11 542 -11 q 157 81 256 -11 q 58 342 58 172 q 157 604 58 511 m 559 534 q 528 568 559 534 q 399 601 497 601 q 238 534 300 601 q 176 342 176 467 q 238 151 176 218 q 399 83 300 83 q 559 151 497 83 q 621 342 621 218 q 559 534 621 467 m 263 761 q 240 782 240 761 l 240 794 q 265 832 240 815 l 515 981 q 538 986 522 986 q 563 961 563 986 l 563 924 q 532 878 563 890 l 281 765 q 263 761 272 761 z "},"ô":{"ha":797,"x_min":58,"x_max":739,"o":"m 157 604 q 206 651 157 604 q 399 697 256 697 q 640 604 542 697 q 739 342 739 511 q 640 81 739 172 q 399 -11 542 -11 q 157 81 256 -11 q 58 342 58 172 q 157 604 58 511 m 559 534 q 528 568 559 534 q 399 601 497 601 q 238 534 300 601 q 176 342 176 467 q 238 151 176 218 q 399 83 300 83 q 559 151 497 83 q 621 342 621 218 q 559 534 621 467 m 242 778 q 200 811 200 778 q 231 849 200 828 l 354 936 q 399 950 374 950 q 446 935 424 950 l 569 849 q 600 811 600 828 q 558 778 600 778 q 519 790 539 778 l 400 864 l 281 790 q 242 778 261 778 z "},"õ":{"ha":797,"x_min":58,"x_max":739,"o":"m 157 604 q 206 651 157 604 q 399 697 256 697 q 640 604 542 697 q 739 342 739 511 q 640 81 739 172 q 399 -11 542 -11 q 157 81 256 -11 q 58 342 58 172 q 157 604 58 511 m 559 534 q 528 568 559 534 q 399 601 497 601 q 238 534 300 601 q 176 342 176 467 q 238 151 176 218 q 399 83 300 83 q 559 151 497 83 q 621 342 621 218 q 559 534 621 467 m 421 769 q 419 770 421 769 q 403 777 418 771 q 363 795 389 783 q 303 807 336 807 q 249 790 269 807 q 217 774 228 774 q 186 804 186 774 q 303 906 186 906 q 337 903 324 906 q 355 899 350 900 q 371 894 360 899 q 385 889 382 890 q 402 881 388 888 q 419 874 417 875 q 503 851 469 851 q 556 868 536 851 q 589 885 576 885 q 610 876 601 885 q 619 854 619 868 q 503 753 619 753 q 469 756 482 753 q 451 759 456 758 q 435 764 446 760 q 421 769 424 768 z "},"ö":{"ha":797,"x_min":58,"x_max":739,"o":"m 157 604 q 206 651 157 604 q 399 697 256 697 q 640 604 542 697 q 739 342 739 511 q 640 81 739 172 q 399 -11 542 -11 q 157 81 256 -11 q 58 342 58 172 q 157 604 58 511 m 559 534 q 528 568 559 534 q 399 601 497 601 q 238 534 300 601 q 176 342 176 467 q 238 151 176 218 q 399 83 300 83 q 559 151 497 83 q 621 342 621 218 q 559 534 621 467 m 260 785 q 247 785 260 785 q 215 803 233 785 q 196 848 196 821 q 215 892 196 875 q 260 910 233 910 q 304 892 286 910 q 322 848 322 875 q 304 803 322 821 q 260 785 286 785 m 539 785 q 526 785 539 785 q 494 803 513 785 q 476 848 476 821 q 494 892 476 875 q 539 910 513 910 q 583 892 565 910 q 601 848 601 875 q 583 803 601 821 q 539 785 565 785 z "},"÷":{"ha":765,"x_min":81,"x_max":683,"o":"m 292 153 q 292 173 292 153 q 318 218 292 193 q 383 243 344 243 q 447 218 421 243 q 474 153 474 193 q 447 88 474 113 q 383 63 421 63 q 318 88 344 63 q 292 153 292 113 m 292 583 q 292 603 292 583 q 318 649 292 624 q 383 674 344 674 q 447 649 421 674 q 474 583 474 624 q 447 518 474 543 q 383 493 421 493 q 318 518 344 493 q 292 583 292 543 m 132 413 l 632 413 q 683 367 683 413 q 632 321 683 321 l 132 321 q 81 367 81 321 q 132 413 81 413 z "},"ø":{"ha":797,"x_min":58,"x_max":739,"o":"m 161 -40 q 134 -58 147 -58 q 101 -43 121 -58 q 81 -15 81 -28 q 90 13 81 -1 l 621 717 q 649 735 635 735 q 683 720 663 735 q 703 691 703 706 q 692 664 703 676 l 161 -40 m 157 604 q 206 651 157 604 q 399 697 256 697 q 640 604 542 697 q 739 342 739 511 q 640 81 739 172 q 399 -11 542 -11 q 157 81 256 -11 q 58 342 58 172 q 157 604 58 511 m 559 534 q 528 568 559 534 q 399 601 497 601 q 238 534 300 601 q 176 342 176 467 q 238 151 176 218 q 399 83 300 83 q 559 151 497 83 q 621 342 621 218 q 559 534 621 467 z "},"ù":{"ha":776,"x_min":85,"x_max":668,"o":"m 138 683 l 147 683 q 200 632 200 683 l 200 275 q 368 85 200 85 q 475 122 432 85 q 553 322 553 189 l 553 632 q 607 683 553 683 l 617 683 q 656 672 644 683 q 668 632 668 660 l 668 51 q 656 12 668 24 q 615 0 643 0 l 607 0 q 553 51 553 0 l 553 121 q 470 33 533 76 q 335 -11 407 -11 q 85 268 85 -11 l 85 632 q 138 683 85 683 m 213 924 l 213 961 q 238 986 213 986 q 260 981 250 986 l 510 832 q 535 794 532 818 l 535 782 q 511 761 535 761 q 493 765 501 761 l 240 878 q 213 924 213 890 z "},"ú":{"ha":776,"x_min":85,"x_max":668,"o":"m 138 683 l 147 683 q 200 632 200 683 l 200 275 q 368 85 200 85 q 475 122 432 85 q 553 322 553 189 l 553 632 q 607 683 553 683 l 617 683 q 656 672 644 683 q 668 632 668 660 l 668 51 q 656 12 668 24 q 615 0 643 0 l 607 0 q 553 51 553 0 l 553 121 q 470 33 533 76 q 335 -11 407 -11 q 85 268 85 -11 l 85 632 q 138 683 85 683 m 256 761 q 233 782 233 761 l 233 794 q 258 832 233 815 l 508 981 q 531 986 515 986 q 556 961 556 986 l 556 924 q 525 878 556 890 l 274 765 q 256 761 265 761 z "},"û":{"ha":776,"x_min":85,"x_max":668,"o":"m 138 683 l 147 683 q 200 632 200 683 l 200 275 q 368 85 200 85 q 475 122 432 85 q 553 322 553 189 l 553 632 q 607 683 553 683 l 617 683 q 656 672 644 683 q 668 632 668 660 l 668 51 q 656 12 668 24 q 615 0 643 0 l 607 0 q 553 51 553 0 l 553 121 q 470 33 533 76 q 335 -11 407 -11 q 85 268 85 -11 l 85 632 q 138 683 85 683 m 224 778 q 182 811 182 778 q 213 849 182 828 l 336 936 q 381 950 356 950 q 428 935 406 950 l 551 849 q 582 811 582 828 q 540 778 582 778 q 501 790 521 778 l 382 864 l 263 790 q 224 778 243 778 z "},"ü":{"ha":776,"x_min":85,"x_max":668,"o":"m 138 683 l 147 683 q 200 632 200 683 l 200 275 q 368 85 200 85 q 475 122 432 85 q 553 322 553 189 l 553 632 q 607 683 553 683 l 617 683 q 656 672 644 683 q 668 632 668 660 l 668 51 q 656 12 668 24 q 615 0 643 0 l 607 0 q 553 51 553 0 l 553 121 q 470 33 533 76 q 335 -11 407 -11 q 85 268 85 -11 l 85 632 q 138 683 85 683 m 243 785 q 230 785 243 785 q 198 803 217 785 q 179 848 179 821 q 198 892 179 875 q 243 910 217 910 q 288 892 269 910 q 306 848 306 875 q 288 803 306 821 q 243 785 269 785 m 522 785 q 509 785 522 785 q 478 803 496 785 q 460 848 460 821 q 478 892 460 875 q 522 910 496 910 q 567 892 549 910 q 585 848 585 875 q 567 803 585 821 q 522 785 549 785 z "},"ý":{"ha":718,"x_min":38,"x_max":668,"o":"m 81 683 l 107 683 q 161 640 151 683 q 349 101 246 307 l 361 101 q 549 640 478 389 q 603 683 561 683 l 625 683 q 668 653 668 683 q 664 633 668 644 q 314 -269 503 131 q 291 -303 303 -293 q 254 -314 279 -314 l 219 -314 q 186 -282 186 -314 q 201 -242 186 -272 q 322 1 304 -43 l 319 1 q 288 13 294 6 q 278 23 281 21 q 271 33 275 25 q 265 42 267 40 q 259 55 264 44 q 253 68 254 65 q 42 633 146 282 q 38 653 38 644 q 81 683 38 683 m 219 761 q 197 782 197 761 l 197 794 q 222 832 197 815 l 472 981 q 494 986 479 986 q 519 961 519 986 l 519 924 q 489 878 519 890 l 238 765 q 219 761 229 761 z "},"ÿ":{"ha":718,"x_min":38,"x_max":668,"o":"m 81 683 l 107 683 q 161 640 151 683 q 349 101 246 307 l 361 101 q 549 640 478 389 q 603 683 561 683 l 625 683 q 668 653 668 683 q 664 633 668 644 q 314 -269 503 131 q 291 -303 303 -293 q 254 -314 279 -314 l 219 -314 q 186 -282 186 -314 q 201 -242 186 -272 q 322 1 304 -43 l 319 1 q 288 13 294 6 q 278 23 281 21 q 271 33 275 25 q 265 42 267 40 q 259 55 264 44 q 253 68 254 65 q 42 633 146 282 q 38 653 38 644 q 81 683 38 683 m 219 785 q 206 785 219 785 q 174 803 193 785 q 156 848 156 821 q 174 892 156 875 q 219 910 193 910 q 264 892 246 910 q 282 848 282 875 q 264 803 282 821 q 219 785 246 785 m 499 785 q 485 785 499 785 q 454 803 472 785 q 436 848 436 821 q 454 892 436 875 q 499 910 472 910 q 543 892 525 910 q 561 848 561 875 q 543 803 561 821 q 499 785 525 785 z "},"Ā":{"ha":954,"x_min":56,"x_max":903,"o":"m 472 942 l 488 942 q 533 933 522 942 q 547 923 543 925 q 556 911 550 921 q 565 899 563 901 q 574 882 567 896 q 583 864 581 868 q 899 69 754 554 q 903 38 903 53 q 860 0 903 0 l 826 0 q 794 8 803 0 q 781 21 785 17 q 772 37 776 25 q 767 54 768 49 q 740 149 763 63 q 689 317 717 236 l 269 317 q 215 135 235 210 q 194 54 196 60 q 188 37 192 49 q 179 21 183 25 q 168 11 175 17 q 133 0 157 0 l 100 0 q 56 38 56 0 q 61 69 56 47 q 376 864 206 554 q 386 882 379 868 q 395 899 393 896 q 403 911 397 901 q 413 923 410 921 q 424 931 417 925 q 436 938 431 936 q 472 942 456 942 m 479 810 q 304 417 389 650 l 656 417 q 479 810 606 554 m 290 1149 l 660 1149 q 711 1103 711 1149 q 660 1057 711 1057 l 290 1057 q 239 1103 239 1057 q 290 1149 239 1149 z "},"ā":{"ha":747,"x_min":61,"x_max":697,"o":"m 344 696 q 639 422 639 696 l 639 147 q 697 50 639 71 q 619 -3 676 -3 q 553 27 578 -3 q 529 106 529 57 q 303 -11 442 -11 q 126 47 190 -11 q 61 202 61 104 q 137 361 61 300 q 342 422 213 422 q 472 406 419 422 q 524 386 515 390 l 524 447 q 481 567 524 532 q 350 603 438 603 q 158 508 226 603 q 100 563 100 517 q 172 656 100 615 q 344 696 244 696 m 524 297 q 351 336 436 336 q 221 300 267 336 q 175 206 175 264 q 215 115 175 149 q 331 81 254 81 q 466 136 408 81 q 524 271 524 192 l 524 297 m 185 871 l 554 871 q 606 825 606 871 q 554 779 606 779 l 185 779 q 133 825 133 779 q 185 871 133 871 z "},"Ă":{"ha":954,"x_min":56,"x_max":903,"o":"m 472 942 l 488 942 q 533 933 522 942 q 547 923 543 925 q 556 911 550 921 q 565 899 563 901 q 574 882 567 896 q 583 864 581 868 q 899 69 754 554 q 903 38 903 53 q 860 0 903 0 l 826 0 q 794 8 803 0 q 781 21 785 17 q 772 37 776 25 q 767 54 768 49 q 740 149 763 63 q 689 317 717 236 l 269 317 q 215 135 235 210 q 194 54 196 60 q 188 37 192 49 q 179 21 183 25 q 168 11 175 17 q 133 0 157 0 l 100 0 q 56 38 56 0 q 61 69 56 47 q 376 864 206 554 q 386 882 379 868 q 395 899 393 896 q 403 911 397 901 q 413 923 410 921 q 424 931 417 925 q 436 938 431 936 q 472 942 456 942 m 479 810 q 304 417 389 650 l 656 417 q 479 810 606 554 m 358 1174 q 368 1163 358 1174 q 410 1132 379 1153 q 476 1111 442 1111 q 540 1132 510 1111 q 594 1174 571 1153 q 631 1194 617 1194 q 665 1156 665 1194 q 608 1076 665 1117 q 476 1036 550 1036 q 344 1077 403 1036 q 286 1161 286 1118 q 297 1185 286 1176 q 322 1194 307 1194 q 358 1174 336 1194 z "},"ă":{"ha":747,"x_min":61,"x_max":697,"o":"m 344 696 q 639 422 639 696 l 639 147 q 697 50 639 71 q 619 -3 676 -3 q 553 27 578 -3 q 529 106 529 57 q 303 -11 442 -11 q 126 47 190 -11 q 61 202 61 104 q 137 361 61 300 q 342 422 213 422 q 472 406 419 422 q 524 386 515 390 l 524 447 q 481 567 524 532 q 350 603 438 603 q 158 508 226 603 q 100 563 100 517 q 172 656 100 615 q 344 696 244 696 m 524 297 q 351 336 436 336 q 221 300 267 336 q 175 206 175 264 q 215 115 175 149 q 331 81 254 81 q 466 136 408 81 q 524 271 524 192 l 524 297 m 249 915 q 260 905 249 915 q 301 874 271 894 q 367 853 332 853 q 432 874 401 853 q 485 915 463 894 q 522 936 508 936 q 557 897 557 936 q 499 818 557 858 q 368 778 442 778 q 236 819 294 778 q 178 903 178 860 q 188 927 178 918 q 213 936 199 936 q 249 915 228 936 z "},"Ą":{"ha":951,"x_min":56,"x_max":908,"o":"m 472 942 l 488 942 q 533 933 522 942 q 547 923 543 925 q 556 911 550 921 q 565 899 563 901 q 574 882 567 896 q 583 864 581 868 q 899 69 754 554 q 903 38 903 53 q 860 0 903 0 l 826 0 q 794 8 803 0 q 781 21 785 17 q 772 37 776 25 q 767 54 768 49 q 740 149 763 63 q 689 317 717 236 l 269 317 q 215 135 235 210 q 194 54 196 60 q 188 37 192 49 q 179 21 183 25 q 168 11 175 17 q 133 0 157 0 l 100 0 q 56 38 56 0 q 61 69 56 47 q 376 864 206 554 q 386 882 379 868 q 395 899 393 896 q 403 911 397 901 q 413 923 410 921 q 424 931 417 925 q 436 938 431 936 q 472 942 456 942 m 479 810 q 304 417 389 650 l 656 417 q 479 810 606 554 m 832 47 l 832 0 q 778 -19 797 0 q 758 -69 758 -39 q 826 -126 758 -126 q 874 -104 874 -126 q 897 -115 886 -104 q 908 -149 908 -126 q 881 -189 908 -172 q 803 -206 854 -206 q 715 -172 751 -206 q 678 -84 678 -139 q 719 9 678 -29 q 832 47 761 47 z "},"ą":{"ha":747,"x_min":61,"x_max":697,"o":"m 344 696 q 639 422 639 696 l 639 147 q 697 50 639 71 q 619 -3 676 -3 q 553 27 578 -3 q 529 106 529 57 q 303 -11 442 -11 q 126 47 190 -11 q 61 202 61 104 q 137 361 61 300 q 342 422 213 422 q 472 406 419 422 q 524 386 515 390 l 524 447 q 481 567 524 532 q 350 603 438 603 q 158 508 226 603 q 100 563 100 517 q 172 656 100 615 q 344 696 244 696 m 524 297 q 351 336 436 336 q 221 300 267 336 q 175 206 175 264 q 215 115 175 149 q 331 81 254 81 q 466 136 408 81 q 524 271 524 192 l 524 297 m 617 42 l 617 -6 q 563 -25 582 -6 q 543 -75 543 -44 q 611 -132 543 -132 q 658 -110 658 -132 q 682 -121 671 -110 q 693 -155 693 -132 q 666 -194 693 -178 q 588 -211 639 -211 q 499 -178 536 -211 q 463 -90 463 -144 q 504 3 463 -35 q 617 42 546 42 z "},"Ć":{"ha":971,"x_min":88,"x_max":890,"o":"m 547 954 q 790 896 694 954 q 885 767 885 838 q 862 717 885 736 q 801 699 839 699 q 547 846 758 846 q 312 752 408 846 q 215 474 215 658 q 313 192 215 290 q 547 94 410 94 q 819 251 761 94 q 872 233 853 251 q 890 183 890 214 q 793 51 890 113 q 547 -11 696 -11 q 219 115 351 -11 q 88 474 88 242 q 219 830 88 706 q 547 954 351 954 m 371 1019 q 349 1040 349 1019 l 349 1053 q 374 1090 349 1074 l 624 1239 q 646 1244 631 1244 q 671 1219 671 1244 l 671 1182 q 640 1136 671 1149 l 389 1024 q 371 1019 381 1019 z "},"ć":{"ha":719,"x_min":60,"x_max":640,"o":"m 170 618 q 195 638 170 618 q 279 678 221 658 q 421 697 338 697 q 567 660 504 697 q 631 579 631 622 q 571 519 631 526 q 508 576 557 550 q 393 601 460 601 q 239 535 300 601 q 178 343 178 469 q 240 150 178 217 q 390 83 303 83 q 578 174 529 83 q 622 158 604 174 q 640 117 640 142 q 574 28 640 68 q 422 -11 507 -11 q 277 9 336 -11 q 168 70 218 29 q 89 181 118 111 q 60 342 60 250 q 90 506 60 435 q 170 618 119 578 m 229 761 q 207 782 207 761 l 207 794 q 232 832 207 815 l 482 981 q 504 986 489 986 q 529 961 529 986 l 529 924 q 499 878 529 890 l 247 765 q 229 761 239 761 z "},"Ĉ":{"ha":971,"x_min":88,"x_max":890,"o":"m 547 954 q 790 896 694 954 q 885 767 885 838 q 862 717 885 736 q 801 699 839 699 q 547 846 758 846 q 312 752 408 846 q 215 474 215 658 q 313 192 215 290 q 547 94 410 94 q 819 251 761 94 q 872 233 853 251 q 890 183 890 214 q 793 51 890 113 q 547 -11 696 -11 q 219 115 351 -11 q 88 474 88 242 q 219 830 88 706 q 547 954 351 954 m 351 1036 q 310 1069 310 1036 q 340 1107 310 1086 l 464 1194 q 508 1208 483 1208 q 556 1193 533 1208 l 679 1107 q 710 1069 710 1086 q 668 1036 710 1036 q 629 1049 649 1036 l 510 1122 l 390 1049 q 351 1036 371 1036 z "},"ĉ":{"ha":719,"x_min":60,"x_max":640,"o":"m 170 618 q 195 638 170 618 q 279 678 221 658 q 421 697 338 697 q 567 660 504 697 q 631 579 631 622 q 571 519 631 526 q 508 576 557 550 q 393 601 460 601 q 239 535 300 601 q 178 343 178 469 q 240 150 178 217 q 390 83 303 83 q 578 174 529 83 q 622 158 604 174 q 640 117 640 142 q 574 28 640 68 q 422 -11 507 -11 q 277 9 336 -11 q 168 70 218 29 q 89 181 118 111 q 60 342 60 250 q 90 506 60 435 q 170 618 119 578 m 208 778 q 167 811 167 778 q 197 849 167 828 l 321 936 q 365 950 340 950 q 413 935 390 950 l 536 849 q 567 811 567 828 q 525 778 567 778 q 486 790 506 778 l 367 864 l 247 790 q 208 778 228 778 z "},"Ċ":{"ha":971,"x_min":88,"x_max":890,"o":"m 547 954 q 790 896 694 954 q 885 767 885 838 q 862 717 885 736 q 801 699 839 699 q 547 846 758 846 q 312 752 408 846 q 215 474 215 658 q 313 192 215 290 q 547 94 410 94 q 819 251 761 94 q 872 233 853 251 q 890 183 890 214 q 793 51 890 113 q 547 -11 696 -11 q 219 115 351 -11 q 88 474 88 242 q 219 830 88 706 q 547 954 351 954 m 454 1053 q 443 1064 454 1053 q 432 1107 432 1075 q 454 1161 432 1139 q 509 1183 476 1183 q 564 1161 542 1183 q 586 1107 586 1139 q 564 1053 586 1075 q 509 1031 542 1031 q 454 1053 476 1031 z "},"ċ":{"ha":719,"x_min":60,"x_max":640,"o":"m 170 618 q 195 638 170 618 q 279 678 221 658 q 421 697 338 697 q 567 660 504 697 q 631 579 631 622 q 571 519 631 526 q 508 576 557 550 q 393 601 460 601 q 239 535 300 601 q 178 343 178 469 q 240 150 178 217 q 390 83 303 83 q 578 174 529 83 q 622 158 604 174 q 640 117 640 142 q 574 28 640 68 q 422 -11 507 -11 q 277 9 336 -11 q 168 70 218 29 q 89 181 118 111 q 60 342 60 250 q 90 506 60 435 q 170 618 119 578 m 314 794 q 303 806 314 794 q 292 849 292 817 q 314 903 292 881 q 369 925 336 925 q 424 903 401 925 q 446 849 446 881 q 424 794 446 817 q 369 772 401 772 q 314 794 336 772 z "},"Č":{"ha":971,"x_min":88,"x_max":890,"o":"m 547 954 q 790 896 694 954 q 885 767 885 838 q 862 717 885 736 q 801 699 839 699 q 547 846 758 846 q 312 752 408 846 q 215 474 215 658 q 313 192 215 290 q 547 94 410 94 q 819 251 761 94 q 872 233 853 251 q 890 183 890 214 q 793 51 890 113 q 547 -11 696 -11 q 219 115 351 -11 q 88 474 88 242 q 219 830 88 706 q 547 954 351 954 m 351 1208 q 390 1196 371 1208 l 510 1122 l 629 1196 q 668 1208 649 1208 q 710 1175 710 1208 q 679 1138 710 1158 l 556 1050 q 511 1036 536 1036 q 464 1051 486 1036 l 340 1138 q 310 1175 310 1158 q 351 1208 310 1208 z "},"č":{"ha":719,"x_min":60,"x_max":640,"o":"m 170 618 q 195 638 170 618 q 279 678 221 658 q 421 697 338 697 q 567 660 504 697 q 631 579 631 622 q 571 519 631 526 q 508 576 557 550 q 393 601 460 601 q 239 535 300 601 q 178 343 178 469 q 240 150 178 217 q 390 83 303 83 q 578 174 529 83 q 622 158 604 174 q 640 117 640 142 q 574 28 640 68 q 422 -11 507 -11 q 277 9 336 -11 q 168 70 218 29 q 89 181 118 111 q 60 342 60 250 q 90 506 60 435 q 170 618 119 578 m 208 950 q 247 938 228 950 l 367 864 l 486 938 q 525 950 506 950 q 567 917 567 950 q 536 879 567 900 l 413 792 q 368 778 393 778 q 321 793 343 778 l 197 879 q 167 917 167 900 q 208 950 167 950 z "},"Ď":{"ha":1011,"x_min":140,"x_max":919,"o":"m 193 943 l 469 943 q 783 833 656 943 q 883 685 846 778 q 919 471 919 592 q 883 258 919 350 q 783 111 846 165 q 469 0 656 0 l 193 0 q 140 51 140 0 l 140 890 q 193 943 140 943 m 260 838 l 260 103 l 458 103 q 711 197 619 103 q 803 471 803 292 q 711 744 803 650 q 458 838 619 838 l 260 838 m 306 1207 q 344 1194 325 1207 l 464 1121 l 583 1194 q 622 1207 603 1207 q 664 1174 664 1207 q 633 1136 664 1157 l 510 1049 q 465 1035 490 1035 q 418 1050 440 1035 l 294 1136 q 264 1174 264 1157 q 306 1207 264 1207 z "},"ď":{"ha":983,"x_min":68,"x_max":940,"o":"m 622 1001 l 633 1001 q 686 951 686 1001 l 686 50 q 633 0 686 0 l 622 0 q 569 47 569 0 l 569 115 q 482 26 539 61 q 353 -10 425 -10 q 149 75 229 -10 q 68 335 68 160 q 157 605 68 511 q 383 699 246 699 q 569 635 492 699 l 569 951 q 622 1001 569 1001 m 569 521 q 393 597 496 597 q 236 531 290 597 q 182 333 182 465 q 238 143 182 201 q 385 85 293 85 q 524 154 478 85 q 569 326 569 224 l 569 521 m 809 811 q 797 811 809 811 q 767 833 785 811 q 749 890 749 856 q 775 949 749 924 q 841 974 801 974 q 910 942 881 974 q 940 857 940 911 q 894 705 940 768 q 785 642 849 642 q 739 675 739 642 q 815 724 785 686 q 844 817 844 763 q 809 811 833 811 z "},"Đ":{"ha":1008,"x_min":17,"x_max":918,"o":"m 192 943 l 468 943 q 781 833 654 943 q 881 685 844 778 q 918 471 918 592 q 881 258 918 350 q 781 111 844 165 q 468 0 654 0 l 192 0 q 139 51 139 0 l 139 890 q 192 943 139 943 m 258 838 l 258 103 l 457 103 q 710 197 618 103 q 801 471 801 292 q 710 744 801 650 q 457 838 618 838 l 258 838 m 68 518 l 438 518 q 489 472 489 518 q 438 426 489 426 l 68 426 q 17 472 17 426 q 68 518 17 518 z "},"đ":{"ha":760,"x_min":68,"x_max":758,"o":"m 338 875 l 707 875 q 758 829 758 875 q 707 783 758 783 l 338 783 q 286 829 286 783 q 338 875 286 875 m 622 1001 l 633 1001 q 686 951 686 1001 l 686 50 q 633 0 686 0 l 622 0 q 569 47 569 0 l 569 115 q 482 26 539 61 q 353 -10 425 -10 q 149 75 229 -10 q 68 335 68 160 q 157 605 68 511 q 383 699 246 699 q 569 635 492 699 l 569 951 q 622 1001 569 1001 m 569 521 q 393 597 496 597 q 236 531 290 597 q 182 333 182 465 q 238 143 182 201 q 385 85 293 85 q 524 154 478 85 q 569 326 569 224 l 569 521 z "},"Ē":{"ha":785,"x_min":140,"x_max":725,"o":"m 194 943 l 674 943 q 725 891 725 943 q 674 839 725 839 l 261 839 l 261 542 l 628 542 q 679 490 679 542 q 628 438 679 438 l 261 438 l 261 104 l 674 104 q 725 52 725 104 q 674 0 725 0 l 194 0 q 140 53 140 0 l 140 890 q 194 943 140 943 m 214 1149 l 583 1149 q 635 1103 635 1149 q 583 1057 635 1057 l 214 1057 q 163 1103 163 1057 q 214 1149 163 1149 z "},"ē":{"ha":715,"x_min":58,"x_max":657,"o":"m 58 340 q 58 427 58 340 q 156 606 58 514 q 379 697 253 697 q 579 633 506 697 q 653 472 653 568 q 577 323 653 376 q 382 269 501 269 q 167 307 263 269 q 236 144 167 206 q 406 82 306 82 q 600 178 561 82 q 640 165 624 178 q 657 126 657 151 q 585 33 657 78 q 404 -11 514 -11 q 158 78 257 -11 q 58 340 58 167 m 547 476 q 501 568 547 531 q 373 606 454 606 q 231 540 292 606 q 168 393 169 475 q 367 360 268 360 q 547 476 547 360 m 171 871 l 540 871 q 592 825 592 871 q 540 779 592 779 l 171 779 q 119 825 119 779 q 171 871 119 871 z "},"Ĕ":{"ha":782,"x_min":140,"x_max":725,"o":"m 194 943 l 674 943 q 725 891 725 943 q 674 839 725 839 l 261 839 l 261 542 l 628 542 q 679 490 679 542 q 628 438 679 438 l 261 438 l 261 104 l 674 104 q 725 52 725 104 q 674 0 725 0 l 194 0 q 140 53 140 0 l 140 890 q 194 943 140 943 m 283 1193 q 293 1183 283 1193 q 335 1151 304 1172 q 400 1131 365 1131 q 465 1151 435 1131 q 519 1193 496 1172 q 556 1214 542 1214 q 590 1175 590 1214 q 533 1096 590 1136 q 401 1056 475 1056 q 269 1097 328 1056 q 211 1181 211 1138 q 222 1205 211 1196 q 247 1214 232 1214 q 283 1193 261 1214 z "},"ĕ":{"ha":715,"x_min":58,"x_max":657,"o":"m 58 340 q 58 427 58 340 q 156 606 58 514 q 379 697 253 697 q 579 633 506 697 q 653 472 653 568 q 577 323 653 376 q 382 269 501 269 q 167 307 263 269 q 236 144 167 206 q 406 82 306 82 q 600 178 561 82 q 640 165 624 178 q 657 126 657 151 q 585 33 657 78 q 404 -11 514 -11 q 158 78 257 -11 q 58 340 58 167 m 547 476 q 501 568 547 531 q 373 606 454 606 q 231 540 292 606 q 168 393 169 475 q 367 360 268 360 q 547 476 547 360 m 240 915 q 250 905 240 915 q 292 874 261 894 q 357 853 322 853 q 422 874 392 853 q 476 915 453 894 q 513 936 499 936 q 547 897 547 936 q 490 818 547 858 q 358 778 432 778 q 226 819 285 778 q 168 903 168 860 q 178 927 168 918 q 203 936 189 936 q 240 915 218 936 z "},"Ė":{"ha":801,"x_min":140,"x_max":725,"o":"m 194 943 l 674 943 q 725 891 725 943 q 674 839 725 839 l 261 839 l 261 542 l 628 542 q 679 490 679 542 q 628 438 679 438 l 261 438 l 261 104 l 674 104 q 725 52 725 104 q 674 0 725 0 l 194 0 q 140 53 140 0 l 140 890 q 194 943 140 943 m 401 1072 q 390 1083 401 1072 q 379 1126 379 1094 q 401 1181 379 1158 q 456 1203 424 1203 q 511 1181 489 1203 q 533 1126 533 1158 q 511 1072 533 1094 q 456 1050 489 1050 q 401 1072 424 1050 z "},"ė":{"ha":715,"x_min":58,"x_max":657,"o":"m 58 340 q 58 427 58 340 q 156 606 58 514 q 379 697 253 697 q 579 633 506 697 q 653 472 653 568 q 577 323 653 376 q 382 269 501 269 q 167 307 263 269 q 236 144 167 206 q 406 82 306 82 q 600 178 561 82 q 640 165 624 178 q 657 126 657 151 q 585 33 657 78 q 404 -11 514 -11 q 158 78 257 -11 q 58 340 58 167 m 547 476 q 501 568 547 531 q 373 606 454 606 q 231 540 292 606 q 168 393 169 475 q 367 360 268 360 q 547 476 547 360 m 303 794 q 292 806 303 794 q 281 849 281 817 q 303 903 281 881 q 358 925 325 925 q 413 903 390 925 q 435 849 435 881 q 413 794 435 817 q 358 772 390 772 q 303 794 325 772 z "},"Ę":{"ha":801,"x_min":140,"x_max":771,"o":"m 194 943 l 674 943 q 725 891 725 943 q 674 839 725 839 l 261 839 l 261 542 l 628 542 q 679 490 679 542 q 628 438 679 438 l 261 438 l 261 104 l 674 104 q 725 52 725 104 q 674 0 725 0 l 194 0 q 140 53 140 0 l 140 890 q 194 943 140 943 m 694 47 l 694 0 q 640 -19 660 0 q 621 -69 621 -39 q 689 -126 621 -126 q 736 -104 736 -126 q 760 -115 749 -104 q 771 -149 771 -126 q 744 -189 771 -172 q 665 -206 717 -206 q 577 -172 614 -206 q 540 -84 540 -139 q 582 9 540 -29 q 694 47 624 47 z "},"ę":{"ha":715,"x_min":58,"x_max":657,"o":"m 58 340 q 58 427 58 340 q 156 606 58 514 q 379 697 253 697 q 579 633 506 697 q 653 472 653 568 q 577 323 653 376 q 382 269 501 269 q 167 307 263 269 q 236 144 167 206 q 406 82 306 82 q 600 178 561 82 q 640 165 624 178 q 657 126 657 151 q 585 33 657 78 q 404 -11 514 -11 q 158 78 257 -11 q 58 340 58 167 m 547 476 q 501 568 547 531 q 373 606 454 606 q 231 540 292 606 q 168 393 169 475 q 367 360 268 360 q 547 476 547 360 m 542 61 l 542 14 q 488 -6 507 14 q 468 -56 468 -25 q 536 -112 468 -112 q 583 -90 583 -112 q 607 -101 596 -90 q 618 -135 618 -112 q 591 -175 618 -158 q 513 -192 564 -192 q 424 -158 461 -192 q 388 -70 388 -125 q 429 23 388 -15 q 542 61 471 61 z "},"Ě":{"ha":786,"x_min":140,"x_max":725,"o":"m 194 943 l 674 943 q 725 891 725 943 q 674 839 725 839 l 261 839 l 261 542 l 628 542 q 679 490 679 542 q 628 438 679 438 l 261 438 l 261 104 l 674 104 q 725 52 725 104 q 674 0 725 0 l 194 0 q 140 53 140 0 l 140 890 q 194 943 140 943 m 254 1208 q 293 1196 274 1208 l 413 1122 l 532 1196 q 571 1208 551 1208 q 613 1175 613 1208 q 582 1138 613 1158 l 458 1050 q 414 1036 439 1036 q 367 1051 389 1036 l 243 1138 q 213 1175 213 1158 q 254 1208 213 1208 z "},"ě":{"ha":715,"x_min":58,"x_max":657,"o":"m 58 340 q 58 427 58 340 q 156 606 58 514 q 379 697 253 697 q 579 633 506 697 q 653 472 653 568 q 577 323 653 376 q 382 269 501 269 q 167 307 263 269 q 236 144 167 206 q 406 82 306 82 q 600 178 561 82 q 640 165 624 178 q 657 126 657 151 q 585 33 657 78 q 404 -11 514 -11 q 158 78 257 -11 q 58 340 58 167 m 547 476 q 501 568 547 531 q 373 606 454 606 q 231 540 292 606 q 168 393 169 475 q 367 360 268 360 q 547 476 547 360 m 214 950 q 253 938 233 950 l 372 864 l 492 938 q 531 950 511 950 q 572 917 572 950 q 542 879 572 900 l 418 792 q 374 778 399 778 q 326 793 349 778 l 203 879 q 172 917 172 900 q 214 950 172 950 z "},"Ĝ":{"ha":1006,"x_min":88,"x_max":946,"o":"m 536 954 q 788 899 699 954 q 878 767 878 843 q 856 719 878 739 q 796 700 833 700 q 536 843 753 843 q 310 747 404 843 q 215 473 215 651 q 306 195 215 294 q 536 96 397 96 q 752 173 675 96 q 829 367 829 250 q 810 386 829 386 l 597 386 q 543 441 543 386 q 597 496 543 496 l 868 496 q 924 476 903 496 q 946 424 946 457 l 946 365 q 842 111 946 225 q 713 22 793 56 q 536 -11 633 -11 q 214 117 340 -11 q 88 473 88 244 q 218 828 88 701 q 536 954 349 954 m 344 1056 q 303 1089 303 1056 q 333 1126 303 1106 l 457 1214 q 501 1228 476 1228 q 549 1213 526 1228 l 672 1126 q 703 1089 703 1106 q 661 1056 703 1056 q 622 1068 642 1056 l 503 1142 l 383 1068 q 344 1056 364 1056 z "},"ĝ":{"ha":733,"x_min":46,"x_max":693,"o":"m 349 199 l 286 201 q 229 184 253 201 q 206 146 206 167 q 294 93 206 93 l 397 93 q 693 -89 693 93 q 601 -244 693 -185 q 364 -310 508 -304 l 331 -310 q 129 -262 213 -310 q 46 -151 46 -215 q 60 -103 46 -121 q 99 -82 75 -85 q 192 -172 125 -136 q 349 -208 258 -208 l 358 -208 q 522 -176 463 -208 q 581 -97 581 -144 q 528 -27 581 -49 q 349 -6 476 -6 q 158 19 222 -6 q 94 117 94 44 q 196 231 94 189 q 75 447 75 299 q 156 631 75 565 q 354 696 236 696 q 465 671 414 696 q 542 617 515 646 q 594 743 594 651 q 661 720 632 743 q 690 663 690 697 q 588 563 690 593 q 618 440 618 521 q 541 260 618 322 q 349 199 464 199 m 466 567 q 443 587 466 567 q 349 607 419 607 q 231 567 278 607 q 183 446 183 528 q 231 324 183 364 q 349 285 278 285 q 466 324 419 285 q 513 446 513 364 q 466 567 513 528 m 194 778 q 153 811 153 778 q 183 849 153 828 l 307 936 q 351 950 326 950 q 399 935 376 950 l 522 849 q 553 811 553 828 q 511 778 553 778 q 472 790 492 778 l 353 864 l 233 790 q 194 778 214 778 z "},"Ğ":{"ha":1006,"x_min":88,"x_max":946,"o":"m 536 954 q 788 899 699 954 q 878 767 878 843 q 856 719 878 739 q 796 700 833 700 q 536 843 753 843 q 310 747 404 843 q 215 473 215 651 q 306 195 215 294 q 536 96 397 96 q 752 173 675 96 q 829 367 829 250 q 810 386 829 386 l 597 386 q 543 441 543 386 q 597 496 543 496 l 868 496 q 924 476 903 496 q 946 424 946 457 l 946 365 q 842 111 946 225 q 713 22 793 56 q 536 -11 633 -11 q 214 117 340 -11 q 88 473 88 244 q 218 828 88 701 q 536 954 349 954 m 384 1193 q 395 1183 384 1193 q 436 1151 406 1172 q 501 1131 467 1131 q 567 1151 536 1131 q 620 1193 597 1172 q 657 1214 643 1214 q 692 1175 692 1214 q 634 1096 692 1136 q 503 1056 576 1056 q 371 1097 429 1056 q 313 1181 313 1138 q 323 1205 313 1196 q 348 1214 333 1214 q 384 1193 363 1214 z "},"ğ":{"ha":733,"x_min":46,"x_max":693,"o":"m 349 199 l 286 201 q 229 184 253 201 q 206 146 206 167 q 294 93 206 93 l 397 93 q 693 -89 693 93 q 601 -244 693 -185 q 364 -310 508 -304 l 331 -310 q 129 -262 213 -310 q 46 -151 46 -215 q 60 -103 46 -121 q 99 -82 75 -85 q 192 -172 125 -136 q 349 -208 258 -208 l 358 -208 q 522 -176 463 -208 q 581 -97 581 -144 q 528 -27 581 -49 q 349 -6 476 -6 q 158 19 222 -6 q 94 117 94 44 q 196 231 94 189 q 75 447 75 299 q 156 631 75 565 q 354 696 236 696 q 465 671 414 696 q 542 617 515 646 q 594 743 594 651 q 661 720 632 743 q 690 663 690 697 q 588 563 690 593 q 618 440 618 521 q 541 260 618 322 q 349 199 464 199 m 466 567 q 443 587 466 567 q 349 607 419 607 q 231 567 278 607 q 183 446 183 528 q 231 324 183 364 q 349 285 278 285 q 466 324 419 285 q 513 446 513 364 q 466 567 513 528 m 234 915 q 245 905 234 915 q 286 874 256 894 q 351 853 317 853 q 417 874 386 853 q 470 915 447 894 q 507 936 493 936 q 542 897 542 936 q 484 818 542 858 q 353 778 426 778 q 221 819 279 778 q 163 903 163 860 q 173 927 163 918 q 198 936 183 936 q 234 915 213 936 z "},"Ġ":{"ha":1006,"x_min":88,"x_max":946,"o":"m 536 954 q 788 899 699 954 q 878 767 878 843 q 856 719 878 739 q 796 700 833 700 q 536 843 753 843 q 310 747 404 843 q 215 473 215 651 q 306 195 215 294 q 536 96 397 96 q 752 173 675 96 q 829 367 829 250 q 810 386 829 386 l 597 386 q 543 441 543 386 q 597 496 543 496 l 868 496 q 924 476 903 496 q 946 424 946 457 l 946 365 q 842 111 946 225 q 713 22 793 56 q 536 -11 633 -11 q 214 117 340 -11 q 88 473 88 244 q 218 828 88 701 q 536 954 349 954 m 447 1072 q 436 1083 447 1072 q 425 1126 425 1094 q 447 1181 425 1158 q 502 1203 469 1203 q 557 1181 535 1203 q 579 1126 579 1158 q 557 1072 579 1094 q 502 1050 535 1050 q 447 1072 469 1050 z "},"ġ":{"ha":733,"x_min":46,"x_max":693,"o":"m 349 199 l 286 201 q 229 184 253 201 q 206 146 206 167 q 294 93 206 93 l 397 93 q 693 -89 693 93 q 601 -244 693 -185 q 364 -310 508 -304 l 331 -310 q 129 -262 213 -310 q 46 -151 46 -215 q 60 -103 46 -121 q 99 -82 75 -85 q 192 -172 125 -136 q 349 -208 258 -208 l 358 -208 q 522 -176 463 -208 q 581 -97 581 -144 q 528 -27 581 -49 q 349 -6 476 -6 q 158 19 222 -6 q 94 117 94 44 q 196 231 94 189 q 75 447 75 299 q 156 631 75 565 q 354 696 236 696 q 465 671 414 696 q 542 617 515 646 q 594 743 594 651 q 661 720 632 743 q 690 663 690 697 q 588 563 690 593 q 618 440 618 521 q 541 260 618 322 q 349 199 464 199 m 466 567 q 443 587 466 567 q 349 607 419 607 q 231 567 278 607 q 183 446 183 528 q 231 324 183 364 q 349 285 278 285 q 466 324 419 285 q 513 446 513 364 q 466 567 513 528 m 297 794 q 286 806 297 794 q 275 849 275 817 q 297 903 275 881 q 352 925 319 925 q 407 903 385 925 q 429 849 429 881 q 407 794 429 817 q 352 772 385 772 q 297 794 319 772 z "},"Ģ":{"ha":1006,"x_min":88,"x_max":946,"o":"m 536 954 q 788 899 699 954 q 878 767 878 843 q 856 719 878 739 q 796 700 833 700 q 536 843 753 843 q 310 747 404 843 q 215 473 215 651 q 306 195 215 294 q 536 96 397 96 q 752 173 675 96 q 829 367 829 250 q 810 386 829 386 l 597 386 q 543 441 543 386 q 597 496 543 496 l 868 496 q 924 476 903 496 q 946 424 946 457 l 946 365 q 842 111 946 225 q 713 22 793 56 q 536 -11 633 -11 q 214 117 340 -11 q 88 473 88 244 q 218 828 88 701 q 536 954 349 954 m 499 -201 q 487 -201 499 -201 q 457 -179 475 -201 q 439 -123 439 -157 q 465 -64 439 -89 q 531 -39 492 -39 q 601 -70 571 -39 q 631 -156 631 -101 q 585 -308 631 -244 q 475 -371 539 -371 q 429 -337 429 -371 q 505 -288 475 -326 q 535 -196 535 -250 q 499 -201 524 -201 z "},"ģ":{"ha":733,"x_min":46,"x_max":693,"o":"m 349 199 l 286 201 q 229 184 253 201 q 206 146 206 167 q 294 93 206 93 l 397 93 q 693 -89 693 93 q 601 -244 693 -185 q 364 -310 508 -304 l 331 -310 q 129 -262 213 -310 q 46 -151 46 -215 q 60 -103 46 -121 q 99 -82 75 -85 q 192 -172 125 -136 q 349 -208 258 -208 l 358 -208 q 522 -176 463 -208 q 581 -97 581 -144 q 528 -27 581 -49 q 349 -6 476 -6 q 158 19 222 -6 q 94 117 94 44 q 196 231 94 189 q 75 447 75 299 q 156 631 75 565 q 354 696 236 696 q 465 671 414 696 q 542 617 515 646 q 594 743 594 651 q 661 720 632 743 q 690 663 690 697 q 588 563 690 593 q 618 440 618 521 q 541 260 618 322 q 349 199 464 199 m 466 567 q 443 587 466 567 q 349 607 419 607 q 231 567 278 607 q 183 446 183 528 q 231 324 183 364 q 349 285 278 285 q 466 324 419 285 q 513 446 513 364 q 466 567 513 528 m 369 917 q 381 917 369 917 q 411 894 393 917 q 429 838 429 872 q 403 779 429 804 q 337 754 376 754 q 267 785 297 754 q 238 871 238 817 q 283 1023 238 960 q 393 1086 329 1086 q 439 1053 439 1086 q 363 1003 393 1042 q 333 911 333 965 q 369 917 344 917 z "},"Ĥ":{"ha":1051,"x_min":140,"x_max":911,"o":"m 194 943 l 207 943 q 261 889 261 943 l 261 540 l 792 540 l 792 889 q 846 943 792 943 l 858 943 q 911 889 911 943 l 911 53 q 858 0 911 0 l 846 0 q 792 53 792 0 l 792 436 l 261 436 l 261 53 q 207 0 261 0 l 194 0 q 140 53 140 0 l 140 889 q 194 943 140 943 m 365 1035 q 324 1068 324 1035 q 354 1106 324 1085 l 478 1193 q 522 1207 497 1207 q 569 1192 547 1207 l 693 1106 q 724 1068 724 1085 q 682 1035 724 1035 q 643 1047 663 1035 l 524 1121 l 404 1047 q 365 1035 385 1035 z "},"ĥ":{"ha":783,"x_min":-39,"x_max":686,"o":"m 154 974 l 164 974 q 217 921 217 974 l 217 546 q 297 650 240 607 q 431 693 354 693 q 617 627 547 693 q 686 414 686 561 l 686 53 q 674 13 686 25 q 633 0 661 0 l 622 0 q 571 53 571 0 l 571 407 q 404 600 571 600 q 267 528 317 600 q 218 346 218 456 l 218 53 q 164 0 218 0 l 154 0 q 114 13 126 0 q 101 53 101 25 l 101 921 q 154 974 101 974 m 3 961 q -39 994 -39 961 q -8 1032 -39 1011 l 115 1119 q 160 1133 135 1133 q 207 1118 185 1133 l 331 1032 q 361 994 361 1011 q 319 961 361 961 q 281 974 300 961 l 161 1047 l 42 974 q 3 961 22 961 z "},"Ħ":{"ha":1043,"x_min":39,"x_max":1004,"o":"m 90 742 l 953 742 q 1004 696 1004 742 q 953 650 1004 650 l 90 650 q 39 696 39 650 q 90 742 39 742 m 194 943 l 207 943 q 261 889 261 943 l 261 540 l 792 540 l 792 889 q 846 943 792 943 l 858 943 q 911 889 911 943 l 911 53 q 858 0 911 0 l 846 0 q 792 53 792 0 l 792 436 l 261 436 l 261 53 q 207 0 261 0 l 194 0 q 140 53 140 0 l 140 889 q 194 943 140 943 z "},"ħ":{"ha":799,"x_min":36,"x_max":686,"o":"m 82 774 q 36 818 36 774 q 47 851 36 842 q 81 864 57 861 l 458 864 q 506 818 506 864 q 458 774 506 776 l 82 774 m 154 974 l 164 974 q 217 921 217 974 l 217 546 q 297 650 240 607 q 431 693 354 693 q 617 627 547 693 q 686 414 686 561 l 686 53 q 674 13 686 25 q 633 0 661 0 l 622 0 q 571 53 571 0 l 571 407 q 404 600 571 600 q 267 528 317 600 q 218 346 218 456 l 218 53 q 164 0 218 0 l 154 0 q 114 13 126 0 q 101 53 101 25 l 101 921 q 154 974 101 974 z "},"Ĩ":{"ha":401,"x_min":-11,"x_max":422,"o":"m 193 943 l 206 943 q 261 889 261 943 l 261 53 q 206 0 261 0 l 193 0 q 140 53 140 0 l 140 889 q 193 943 140 943 m 224 1047 q 222 1048 224 1047 q 206 1055 221 1049 q 165 1073 192 1061 q 106 1085 139 1085 q 51 1068 72 1085 q 19 1051 31 1051 q -11 1082 -11 1051 q 106 1183 -11 1183 q 140 1181 126 1183 q 158 1177 153 1178 q 174 1172 163 1176 q 188 1167 185 1168 q 205 1159 190 1165 q 222 1151 219 1153 q 306 1129 272 1129 q 360 1146 339 1129 q 392 1163 381 1163 q 413 1154 404 1163 q 422 1132 422 1146 q 306 1031 422 1031 q 272 1033 285 1031 q 253 1037 258 1036 q 238 1042 249 1038 q 224 1047 226 1046 z "},"ĩ":{"ha":364,"x_min":-31,"x_max":403,"o":"m 204 769 q 203 770 204 769 q 187 777 201 771 q 146 795 172 783 q 86 807 119 807 q 33 790 53 807 q 0 774 13 774 q -31 804 -31 774 q 86 906 -31 906 q 120 903 107 906 q 138 899 133 900 q 154 894 143 899 q 168 889 165 890 q 185 881 171 888 q 203 874 200 875 q 286 851 253 851 q 340 868 319 851 q 373 885 361 885 q 394 876 385 885 q 403 854 403 868 q 286 753 403 753 q 252 756 265 753 q 234 759 239 758 q 218 764 229 760 q 204 769 207 768 m 192 685 l 200 685 q 253 633 253 685 l 253 53 q 200 0 253 0 l 192 0 q 151 13 164 0 q 139 53 139 25 l 139 633 q 192 685 139 685 z "},"Ī":{"ha":401,"x_min":-36,"x_max":436,"o":"m 193 943 l 206 943 q 261 889 261 943 l 261 53 q 206 0 261 0 l 193 0 q 140 53 140 0 l 140 889 q 193 943 140 943 m 15 1149 l 385 1149 q 436 1103 436 1149 q 385 1057 436 1057 l 15 1057 q -36 1103 -36 1057 q 15 1149 -36 1149 z "},"ī":{"ha":364,"x_min":31,"x_max":333,"o":"m 286 811 l 76 811 q 31 856 31 811 q 75 901 31 901 l 286 901 q 333 856 333 901 q 286 811 333 811 m 182 685 l 190 685 q 243 633 243 685 l 243 53 q 190 0 243 0 l 182 0 q 142 13 154 0 q 129 53 129 25 l 129 633 q 182 685 129 685 z "},"Ĭ":{"ha":401,"x_min":11,"x_max":390,"o":"m 193 943 l 206 943 q 261 889 261 943 l 261 53 q 206 0 261 0 l 193 0 q 140 53 140 0 l 140 889 q 193 943 140 943 m 83 1193 q 93 1183 83 1193 q 135 1151 104 1172 q 200 1131 165 1131 q 265 1151 235 1131 q 319 1193 296 1172 q 356 1214 342 1214 q 390 1175 390 1214 q 333 1096 390 1136 q 201 1056 275 1056 q 69 1097 128 1056 q 11 1181 11 1138 q 22 1205 11 1196 q 47 1214 32 1214 q 83 1193 61 1214 z "},"ĭ":{"ha":364,"x_min":-7,"x_max":372,"o":"m 65 915 q 75 905 65 915 q 117 874 86 894 q 182 853 147 853 q 247 874 217 853 q 301 915 278 894 q 338 936 324 936 q 372 897 372 936 q 315 818 372 858 q 183 778 257 778 q 51 819 110 778 q -7 903 -7 860 q 3 927 -7 918 q 28 936 14 936 q 65 915 43 936 m 182 685 l 190 685 q 243 633 243 685 l 243 53 q 190 0 243 0 l 182 0 q 142 13 154 0 q 129 53 129 25 l 129 633 q 182 685 129 685 z "},"Į":{"ha":401,"x_min":31,"x_max":261,"o":"m 193 943 q 140 889 140 943 l 140 53 q 193 0 140 0 l 206 0 q 261 53 261 0 l 261 889 q 206 943 261 943 l 193 943 m 185 47 l 185 0 q 131 -19 150 0 q 111 -69 111 -39 q 179 -126 111 -126 q 226 -104 226 -126 q 250 -115 239 -104 q 261 -149 261 -126 q 234 -189 261 -172 q 156 -206 207 -206 q 67 -172 104 -206 q 31 -84 31 -139 q 72 9 31 -29 q 185 47 114 47 z "},"į":{"ha":364,"x_min":67,"x_max":297,"o":"m 178 685 q 125 633 125 685 l 125 53 q 178 0 125 0 l 186 0 q 239 53 239 0 l 239 633 q 186 685 239 685 l 178 685 m 106 881 q 106 897 106 881 q 128 935 106 913 q 181 958 150 958 q 235 935 213 958 q 258 881 258 913 q 236 827 258 850 q 182 804 214 804 q 128 826 150 804 q 106 881 106 849 m 221 47 l 221 0 q 167 -19 186 0 q 147 -69 147 -39 q 215 -126 147 -126 q 263 -104 263 -126 q 286 -115 275 -104 q 297 -149 297 -126 q 270 -189 297 -172 q 192 -206 243 -206 q 103 -172 140 -206 q 67 -84 67 -139 q 108 9 67 -29 q 221 47 150 47 z "},"İ":{"ha":401,"x_min":124,"x_max":278,"o":"m 194 943 l 207 943 q 263 889 263 943 l 263 53 q 207 0 263 0 l 194 0 q 142 53 142 0 l 142 889 q 194 943 142 943 m 146 1051 q 135 1063 146 1051 q 124 1106 124 1074 q 146 1160 124 1138 q 201 1182 168 1182 q 256 1160 233 1182 q 278 1106 278 1138 q 256 1051 278 1074 q 201 1029 233 1029 q 146 1051 168 1029 z "},"ı":{"ha":317,"x_min":101,"x_max":215,"o":"m 154 685 l 163 685 q 215 633 215 685 l 215 53 q 163 0 215 0 l 154 0 q 114 13 126 0 q 101 53 101 25 l 101 633 q 154 685 101 685 z "},"Ĵ":{"ha":358,"x_min":-237,"x_max":381,"o":"m 167 943 l 179 943 q 233 892 233 943 l 233 56 q 156 -205 233 -115 q -60 -294 79 -294 q -190 -260 -143 -294 q -237 -179 -237 -225 q -222 -133 -237 -150 q -185 -117 -207 -117 q -138 -172 -176 -146 q -36 -197 -100 -197 q 70 -143 28 -197 q 113 10 113 -89 l 113 892 q 167 943 113 943 m 22 1035 q -19 1068 -19 1035 q 11 1106 -19 1085 l 135 1193 q 179 1207 154 1207 q 226 1192 204 1207 l 350 1106 q 381 1068 381 1085 q 339 1035 381 1035 q 300 1047 319 1035 l 181 1121 l 61 1047 q 22 1035 42 1035 z "},"ĵ":{"ha":363,"x_min":-171,"x_max":390,"o":"m 136 6 l 136 633 q 189 685 136 685 l 199 685 q 251 633 251 685 l 251 6 q 199 -214 251 -137 q 13 -290 147 -290 q -124 -254 -76 -290 q -171 -185 -171 -218 q -151 -133 -171 -153 q -92 -112 -131 -112 q -61 -165 -92 -139 q 28 -192 -31 -192 q 112 -142 88 -192 q 136 6 136 -92 m 32 794 q -10 828 -10 794 q 21 865 -10 844 l 144 953 q 189 967 164 967 q 236 951 214 967 l 360 865 q 390 828 390 844 q 349 794 390 794 q 310 807 329 794 l 190 881 l 71 807 q 32 794 51 794 z "},"Ķ":{"ha":853,"x_min":139,"x_max":835,"o":"m 193 943 l 206 943 q 260 889 260 943 l 260 526 q 638 903 500 721 q 722 943 665 943 l 771 943 q 804 915 804 943 q 794 892 804 901 q 385 504 607 679 q 614 310 496 429 q 825 56 732 192 q 835 28 835 42 q 797 0 835 0 l 739 0 q 668 47 701 0 q 260 463 493 296 l 260 53 q 206 0 260 0 l 193 0 q 139 53 139 0 l 139 889 q 193 943 139 943 m 395 -187 q 383 -187 395 -187 q 353 -165 371 -187 q 335 -109 335 -143 q 361 -50 335 -75 q 427 -25 388 -25 q 497 -56 467 -25 q 526 -142 526 -87 q 481 -294 526 -231 q 371 -357 435 -357 q 325 -324 325 -357 q 401 -274 371 -312 q 431 -182 431 -236 q 395 -187 419 -187 z "},"ķ":{"ha":701,"x_min":104,"x_max":660,"o":"m 157 974 l 165 974 q 206 961 193 974 q 218 921 218 949 l 218 411 q 376 540 300 468 q 491 649 451 613 q 561 685 531 685 l 600 685 q 627 676 617 685 q 638 654 638 667 q 329 390 638 608 q 499 229 403 332 q 651 51 596 126 q 660 28 660 39 q 625 0 660 0 l 592 0 q 528 26 547 0 q 218 353 381 219 l 218 53 q 206 13 218 25 q 165 0 193 0 l 157 0 q 117 13 129 0 q 104 53 104 25 l 104 921 q 117 961 104 949 q 157 974 129 974 m 320 -187 q 308 -187 320 -187 q 278 -165 296 -187 q 260 -109 260 -143 q 286 -50 260 -75 q 352 -25 313 -25 q 422 -56 392 -25 q 451 -142 451 -87 q 406 -294 451 -231 q 296 -357 360 -357 q 250 -324 250 -357 q 326 -274 296 -312 q 356 -182 356 -236 q 320 -187 344 -187 z "},"Ĺ":{"ha":790,"x_min":56,"x_max":742,"o":"m 194 943 l 207 943 q 261 890 261 943 l 261 104 l 689 104 q 742 52 742 104 q 689 0 742 0 l 194 0 q 140 53 140 0 l 140 890 q 194 943 140 943 m 78 1018 q 56 1039 56 1018 l 56 1051 q 81 1089 56 1072 l 331 1238 q 353 1243 338 1243 q 378 1218 378 1243 l 378 1181 q 347 1135 378 1147 l 96 1022 q 78 1018 88 1018 z "},"ĺ":{"ha":335,"x_min":7,"x_max":329,"o":"m 163 974 l 172 974 q 225 922 225 974 l 225 53 q 172 0 225 0 l 163 0 q 122 13 133 0 q 110 53 110 25 l 110 922 q 122 962 110 950 q 163 974 133 974 m 29 1000 q 7 1021 7 1000 l 7 1033 q 32 1071 7 1054 l 282 1219 q 304 1225 289 1225 q 329 1200 329 1225 l 329 1163 q 299 1117 329 1129 l 47 1004 q 29 1000 39 1000 z "},"Ļ":{"ha":790,"x_min":140,"x_max":742,"o":"m 194 943 l 207 943 q 261 890 261 943 l 261 104 l 689 104 q 742 52 742 104 q 689 0 742 0 l 194 0 q 140 53 140 0 l 140 890 q 194 943 140 943 m 365 -187 q 352 -187 365 -187 q 322 -165 340 -187 q 304 -109 304 -143 q 331 -50 304 -75 q 397 -25 357 -25 q 466 -56 436 -25 q 496 -142 496 -87 q 450 -294 496 -231 q 340 -357 404 -357 q 294 -324 294 -357 q 370 -274 340 -312 q 400 -182 400 -236 q 365 -187 389 -187 z "},"ļ":{"ha":335,"x_min":67,"x_max":268,"o":"m 163 974 l 172 974 q 225 922 225 974 l 225 53 q 172 0 225 0 l 163 0 q 122 13 133 0 q 110 53 110 25 l 110 922 q 122 962 110 950 q 163 974 133 974 m 137 -187 q 125 -187 137 -187 q 94 -165 113 -187 q 76 -109 76 -143 q 103 -50 76 -75 q 169 -25 129 -25 q 238 -56 208 -25 q 268 -142 268 -87 q 222 -294 268 -231 q 113 -357 176 -357 q 67 -324 67 -357 q 142 -274 113 -312 q 172 -182 172 -236 q 137 -187 161 -187 z "},"Ľ":{"ha":790,"x_min":140,"x_max":742,"o":"m 194 943 l 207 943 q 261 890 261 943 l 261 104 l 689 104 q 742 52 742 104 q 689 0 742 0 l 194 0 q 140 53 140 0 l 140 890 q 194 943 140 943 m 523 775 q 511 775 523 775 q 481 797 499 775 q 463 853 463 819 q 489 913 463 888 q 555 938 515 938 q 624 906 594 938 q 654 821 654 875 q 608 669 654 732 q 499 606 563 606 q 453 639 453 606 q 528 688 499 650 q 558 781 558 726 q 523 775 547 775 z "},"ľ":{"ha":522,"x_min":96,"x_max":479,"o":"m 149 974 l 158 974 q 211 922 211 974 l 211 53 q 158 0 211 0 l 149 0 q 108 13 119 0 q 96 53 96 25 l 96 922 q 108 962 96 950 q 149 974 119 974 m 348 811 q 336 811 348 811 q 306 833 324 811 q 288 890 288 856 q 314 949 288 924 q 380 974 340 974 q 449 942 419 974 q 479 857 479 911 q 433 705 479 768 q 324 642 388 642 q 278 675 278 642 q 353 724 324 686 q 383 817 383 763 q 348 811 372 811 z "},"Ŀ":{"ha":790,"x_min":140,"x_max":742,"o":"m 194 943 l 207 943 q 261 890 261 943 l 261 104 l 689 104 q 742 52 742 104 q 689 0 742 0 l 194 0 q 140 53 140 0 l 140 890 q 194 943 140 943 m 415 513 q 415 533 415 513 q 442 578 415 553 q 506 603 468 603 q 571 578 544 603 q 597 513 597 553 q 571 447 597 472 q 506 422 544 422 q 442 447 468 422 q 415 513 415 472 z "},"ŀ":{"ha":510,"x_min":110,"x_max":478,"o":"m 163 974 l 172 974 q 225 922 225 974 l 225 53 q 172 0 225 0 l 163 0 q 122 13 133 0 q 110 53 110 25 l 110 922 q 122 962 110 950 q 163 974 133 974 m 296 550 q 296 570 296 550 q 322 615 296 590 q 387 640 349 640 q 451 615 425 640 q 478 550 478 590 q 451 485 478 510 q 387 460 425 460 q 322 485 349 460 q 296 550 296 510 z "},"Ł":{"ha":832,"x_min":51,"x_max":783,"o":"m 365 614 q 399 625 382 625 q 435 606 417 625 q 453 565 453 588 q 428 526 453 543 l 139 318 q 102 306 119 306 q 67 325 85 306 q 51 366 50 344 q 78 406 53 388 l 365 614 m 236 943 l 249 943 q 303 890 303 943 l 303 104 l 731 104 q 783 52 783 104 q 731 0 783 0 l 236 0 q 182 53 182 0 l 182 890 q 236 943 182 943 z "},"ł":{"ha":382,"x_min":17,"x_max":396,"o":"m 103 335 q 68 324 86 324 q 33 343 50 324 q 17 383 17 363 q 43 422 17 404 l 313 617 q 347 629 331 629 q 380 611 363 629 q 396 570 397 593 q 374 532 394 547 l 103 335 m 194 989 l 204 989 q 257 938 257 989 l 257 68 q 204 15 257 15 l 194 15 q 153 28 165 15 q 142 68 142 40 l 142 938 q 153 977 142 965 q 194 989 165 989 z "},"Ń":{"ha":1051,"x_min":142,"x_max":911,"o":"m 197 943 l 225 943 q 314 885 278 943 l 792 190 l 792 889 q 804 931 792 918 q 844 943 817 943 l 857 943 q 911 889 911 943 l 911 67 q 897 19 911 38 q 857 0 883 0 l 839 0 q 738 71 786 0 l 261 764 l 261 53 q 211 0 261 0 l 197 0 q 142 53 142 0 l 142 875 q 197 943 142 943 m 379 1018 q 357 1039 357 1018 l 357 1051 q 382 1089 357 1072 l 632 1238 q 654 1243 639 1243 q 679 1218 679 1243 l 679 1181 q 649 1135 679 1147 l 397 1022 q 379 1018 389 1018 z "},"ń":{"ha":774,"x_min":101,"x_max":686,"o":"m 154 685 l 164 685 q 217 632 217 685 l 217 564 q 300 657 243 617 q 431 697 357 697 q 615 630 543 697 q 686 417 686 563 l 686 53 q 674 13 686 25 q 633 0 661 0 l 622 0 q 571 53 571 0 l 571 413 q 528 557 571 514 q 403 600 485 600 q 269 533 321 600 q 218 357 218 467 l 218 53 q 164 0 218 0 l 154 0 q 114 13 126 0 q 101 53 101 25 l 101 632 q 154 685 101 685 m 251 761 q 229 782 229 761 l 229 794 q 254 832 229 815 l 504 981 q 526 986 511 986 q 551 961 551 986 l 551 924 q 521 878 551 890 l 269 765 q 251 761 261 761 z "},"Ņ":{"ha":1050,"x_min":140,"x_max":910,"o":"m 196 943 l 224 943 q 313 885 276 943 l 790 190 l 790 889 q 803 931 790 918 q 843 943 815 943 l 856 943 q 910 889 910 943 l 910 67 q 896 19 910 38 q 856 0 882 0 l 838 0 q 736 71 785 0 l 260 764 l 260 53 q 210 0 260 0 l 196 0 q 140 53 140 0 l 140 875 q 196 943 140 943 m 494 -187 q 482 -187 494 -187 q 451 -165 469 -187 q 433 -109 433 -143 q 460 -50 433 -75 q 526 -25 486 -25 q 595 -56 565 -25 q 625 -142 625 -87 q 579 -294 625 -231 q 469 -357 533 -357 q 424 -324 424 -357 q 499 -274 469 -312 q 529 -182 529 -236 q 494 -187 518 -187 z "},"ņ":{"ha":774,"x_min":101,"x_max":686,"o":"m 154 685 l 164 685 q 217 632 217 685 l 217 564 q 300 657 243 617 q 431 697 357 697 q 615 630 543 697 q 686 417 686 563 l 686 53 q 674 13 686 25 q 633 0 661 0 l 622 0 q 571 53 571 0 l 571 413 q 528 557 571 514 q 403 600 485 600 q 269 533 321 600 q 218 357 218 467 l 218 53 q 164 0 218 0 l 154 0 q 114 13 126 0 q 101 53 101 25 l 101 632 q 154 685 101 685 m 356 -187 q 344 -187 356 -187 q 314 -165 332 -187 q 296 -109 296 -143 q 322 -50 296 -75 q 388 -25 349 -25 q 458 -56 428 -25 q 488 -142 488 -87 q 442 -294 488 -231 q 332 -357 396 -357 q 286 -324 286 -357 q 362 -274 332 -312 q 392 -182 392 -236 q 356 -187 381 -187 z "},"Ň":{"ha":1051,"x_min":142,"x_max":911,"o":"m 197 943 l 225 943 q 314 885 278 943 l 792 190 l 792 889 q 804 931 792 918 q 844 943 817 943 l 857 943 q 911 889 911 943 l 911 67 q 897 19 911 38 q 857 0 883 0 l 839 0 q 738 71 786 0 l 261 764 l 261 53 q 211 0 261 0 l 197 0 q 142 53 142 0 l 142 875 q 197 943 142 943 m 358 1207 q 397 1194 378 1207 l 517 1121 l 636 1194 q 675 1207 656 1207 q 717 1174 717 1207 q 686 1136 717 1157 l 563 1049 q 518 1035 543 1035 q 471 1050 493 1035 l 347 1136 q 317 1174 317 1157 q 358 1207 317 1207 z "},"ň":{"ha":774,"x_min":101,"x_max":686,"o":"m 154 685 l 164 685 q 217 632 217 685 l 217 564 q 300 657 243 617 q 431 697 357 697 q 615 630 543 697 q 686 417 686 563 l 686 53 q 674 13 686 25 q 633 0 661 0 l 622 0 q 571 53 571 0 l 571 413 q 528 557 571 514 q 403 600 485 600 q 269 533 321 600 q 218 357 218 467 l 218 53 q 164 0 218 0 l 154 0 q 114 13 126 0 q 101 53 101 25 l 101 632 q 154 685 101 685 m 231 950 q 269 938 250 950 l 389 864 l 508 938 q 547 950 528 950 q 589 917 589 950 q 558 879 589 900 l 435 792 q 390 778 415 778 q 343 793 365 778 l 219 879 q 189 917 189 900 q 231 950 189 950 z "},"Ō":{"ha":1065,"x_min":81,"x_max":986,"o":"m 369 926 q 408 940 369 926 q 533 954 447 954 q 697 926 619 954 q 841 842 775 897 q 947 690 907 786 q 986 470 986 593 q 947 252 986 347 q 841 101 907 157 q 697 17 775 46 q 533 -11 619 -11 q 369 17 447 -11 q 224 101 290 46 q 119 252 158 157 q 81 470 81 347 q 119 690 81 593 q 224 842 158 786 q 369 926 290 897 m 767 750 q 718 799 767 750 q 533 847 669 847 q 299 750 397 847 q 201 472 201 653 q 299 193 201 290 q 533 96 397 96 q 767 193 669 96 q 865 472 865 290 q 767 750 865 653 m 346 1149 l 715 1149 q 767 1103 767 1149 q 715 1057 767 1057 l 346 1057 q 294 1103 294 1057 q 346 1149 294 1149 z "},"ō":{"ha":797,"x_min":58,"x_max":739,"o":"m 157 604 q 206 651 157 604 q 399 697 256 697 q 640 604 542 697 q 739 342 739 511 q 640 81 739 172 q 399 -11 542 -11 q 157 81 256 -11 q 58 342 58 172 q 157 604 58 511 m 559 534 q 528 568 559 534 q 399 601 497 601 q 238 534 300 601 q 176 342 176 467 q 238 151 176 218 q 399 83 300 83 q 559 151 497 83 q 621 342 621 218 q 559 534 621 467 m 213 871 l 582 871 q 633 825 633 871 q 582 779 633 779 l 213 779 q 161 825 161 779 q 213 871 161 871 z "},"Ŏ":{"ha":1065,"x_min":81,"x_max":986,"o":"m 369 926 q 408 940 369 926 q 533 954 447 954 q 697 926 619 954 q 841 842 775 897 q 947 690 907 786 q 986 470 986 593 q 947 252 986 347 q 841 101 907 157 q 697 17 775 46 q 533 -11 619 -11 q 369 17 447 -11 q 224 101 290 46 q 119 252 158 157 q 81 470 81 347 q 119 690 81 593 q 224 842 158 786 q 369 926 290 897 m 767 750 q 718 799 767 750 q 533 847 669 847 q 299 750 397 847 q 201 472 201 653 q 299 193 201 290 q 533 96 397 96 q 767 193 669 96 q 865 472 865 290 q 767 750 865 653 m 415 1193 q 425 1183 415 1193 q 467 1151 436 1172 q 532 1131 497 1131 q 597 1151 567 1131 q 651 1193 628 1172 q 688 1214 674 1214 q 722 1175 722 1214 q 665 1096 722 1136 q 533 1056 607 1056 q 401 1097 460 1056 q 343 1181 343 1138 q 353 1205 343 1196 q 378 1214 364 1214 q 415 1193 393 1214 z "},"ŏ":{"ha":797,"x_min":58,"x_max":739,"o":"m 157 604 q 206 651 157 604 q 399 697 256 697 q 640 604 542 697 q 739 342 739 511 q 640 81 739 172 q 399 -11 542 -11 q 157 81 256 -11 q 58 342 58 172 q 157 604 58 511 m 559 534 q 528 568 559 534 q 399 601 497 601 q 238 534 300 601 q 176 342 176 467 q 238 151 176 218 q 399 83 300 83 q 559 151 497 83 q 621 342 621 218 q 559 534 621 467 m 280 915 q 291 905 280 915 q 333 874 301 894 q 398 853 364 853 q 463 874 432 853 q 516 915 493 894 q 553 936 539 936 q 588 897 588 936 q 530 818 588 858 q 399 778 472 778 q 267 819 325 778 q 208 903 208 860 q 219 927 208 918 q 244 936 229 936 q 280 915 258 936 z "},"Ő":{"ha":1065,"x_min":81,"x_max":986,"o":"m 369 926 q 408 940 369 926 q 533 954 447 954 q 697 926 619 954 q 841 842 775 897 q 947 690 907 786 q 986 470 986 593 q 947 252 986 347 q 841 101 907 157 q 697 17 775 46 q 533 -11 619 -11 q 369 17 447 -11 q 224 101 290 46 q 119 252 158 157 q 81 470 81 347 q 119 690 81 593 q 224 842 158 786 q 369 926 290 897 m 767 750 q 718 799 767 750 q 533 847 669 847 q 299 750 397 847 q 201 472 201 653 q 299 193 201 290 q 533 96 397 96 q 767 193 669 96 q 865 472 865 290 q 767 750 865 653 m 286 1024 q 264 1044 264 1024 l 264 1057 q 289 1094 264 1078 l 513 1236 q 535 1242 519 1242 q 560 1217 560 1242 l 560 1175 q 531 1129 560 1144 l 304 1028 q 286 1024 296 1024 m 549 1024 q 525 1044 525 1024 l 525 1057 q 550 1094 525 1078 l 775 1236 q 797 1242 782 1242 q 822 1217 822 1242 l 822 1175 q 793 1129 822 1146 l 567 1028 q 549 1024 558 1024 z "},"ő":{"ha":797,"x_min":58,"x_max":739,"o":"m 157 604 q 206 651 157 604 q 399 697 256 697 q 640 604 542 697 q 739 342 739 511 q 640 81 739 172 q 399 -11 542 -11 q 157 81 256 -11 q 58 342 58 172 q 157 604 58 511 m 559 534 q 528 568 559 534 q 399 601 497 601 q 238 534 300 601 q 176 342 176 467 q 238 151 176 218 q 399 83 300 83 q 559 151 497 83 q 621 342 621 218 q 559 534 621 467 m 151 767 q 129 788 129 767 l 129 800 q 154 838 129 821 l 378 979 q 400 985 385 985 q 425 960 425 985 l 425 918 q 396 872 425 886 l 169 771 q 151 767 161 767 m 414 767 q 390 788 390 767 l 390 800 q 415 838 390 821 l 640 979 q 663 985 647 985 q 688 960 688 985 l 688 918 q 658 872 688 889 l 432 771 q 414 767 424 767 z "},"Ŕ":{"ha":869,"x_min":140,"x_max":832,"o":"m 257 839 l 257 510 l 451 510 q 591 553 538 510 q 644 676 644 596 q 594 797 644 756 q 451 839 543 839 l 257 839 m 761 669 q 685 493 761 563 q 499 415 608 424 q 645 208 547 324 q 832 32 743 93 q 760 -12 804 -12 q 673 17 715 -12 q 596 85 631 46 q 517 189 561 124 q 385 410 469 258 l 257 410 l 257 51 q 201 0 257 0 l 194 0 q 140 51 140 0 l 140 889 q 194 942 140 942 l 446 943 q 672 879 582 943 q 761 669 761 815 m 290 1018 q 268 1039 268 1018 l 268 1051 q 293 1089 268 1072 l 543 1238 q 565 1243 550 1243 q 590 1218 590 1243 l 590 1181 q 560 1135 590 1147 l 308 1022 q 290 1018 300 1018 z "},"ŕ":{"ha":568,"x_min":101,"x_max":525,"o":"m 154 685 l 163 685 q 215 633 215 685 l 215 558 q 291 653 239 611 q 403 694 343 694 q 494 671 463 694 q 525 613 525 647 q 496 560 525 579 q 404 596 453 596 q 268 526 318 596 q 218 350 218 456 l 218 53 q 206 13 218 25 q 165 0 193 0 l 154 0 q 114 13 126 0 q 101 53 101 25 l 101 633 q 154 685 101 685 m 143 761 q 121 782 121 761 l 121 794 q 146 832 121 815 l 396 981 q 418 986 403 986 q 443 961 443 986 l 443 924 q 413 878 443 890 l 161 765 q 143 761 153 761 z "},"Ŗ":{"ha":869,"x_min":140,"x_max":832,"o":"m 257 839 l 257 510 l 451 510 q 591 553 538 510 q 644 676 644 596 q 594 797 644 756 q 451 839 543 839 l 257 839 m 761 669 q 685 493 761 563 q 499 415 608 424 q 645 208 547 324 q 832 32 743 93 q 760 -12 804 -12 q 673 17 715 -12 q 596 85 631 46 q 517 189 561 124 q 385 410 469 258 l 257 410 l 257 51 q 201 0 257 0 l 194 0 q 140 51 140 0 l 140 889 q 194 942 140 942 l 446 943 q 672 879 582 943 q 761 669 761 815 m 409 -187 q 397 -187 409 -187 q 367 -165 385 -187 q 349 -109 349 -143 q 375 -50 349 -75 q 441 -25 401 -25 q 510 -56 481 -25 q 540 -142 540 -87 q 494 -294 540 -231 q 385 -357 449 -357 q 339 -324 339 -357 q 415 -274 385 -312 q 444 -182 444 -236 q 409 -187 433 -187 z "},"ŗ":{"ha":564,"x_min":101,"x_max":525,"o":"m 154 685 l 163 685 q 215 633 215 685 l 215 558 q 291 653 239 611 q 403 694 343 694 q 494 671 463 694 q 525 613 525 647 q 496 560 525 579 q 404 596 453 596 q 268 526 318 596 q 218 350 218 456 l 218 53 q 206 13 218 25 q 165 0 193 0 l 154 0 q 114 13 126 0 q 101 53 101 25 l 101 633 q 154 685 101 685 m 251 -187 q 239 -187 251 -187 q 208 -165 226 -187 q 190 -109 190 -143 q 217 -50 190 -75 q 283 -25 243 -25 q 352 -56 322 -25 q 382 -142 382 -87 q 336 -294 382 -231 q 226 -357 290 -357 q 181 -324 181 -357 q 256 -274 226 -312 q 286 -182 286 -236 q 251 -187 275 -187 z "},"Ř":{"ha":869,"x_min":140,"x_max":832,"o":"m 257 839 l 257 510 l 451 510 q 591 553 538 510 q 644 676 644 596 q 594 797 644 756 q 451 839 543 839 l 257 839 m 761 669 q 685 493 761 563 q 499 415 608 424 q 645 208 547 324 q 832 32 743 93 q 760 -12 804 -12 q 673 17 715 -12 q 596 85 631 46 q 517 189 561 124 q 385 410 469 258 l 257 410 l 257 51 q 201 0 257 0 l 194 0 q 140 51 140 0 l 140 889 q 194 942 140 942 l 446 943 q 672 879 582 943 q 761 669 761 815 m 269 1207 q 308 1194 289 1207 l 428 1121 l 547 1194 q 586 1207 567 1207 q 628 1174 628 1207 q 597 1136 628 1157 l 474 1049 q 429 1035 454 1035 q 382 1050 404 1035 l 258 1136 q 228 1174 228 1157 q 269 1207 228 1207 z "},"ř":{"ha":568,"x_min":101,"x_max":525,"o":"m 154 685 l 163 685 q 215 633 215 685 l 215 558 q 291 653 239 611 q 403 694 343 694 q 494 671 463 694 q 525 613 525 647 q 496 560 525 579 q 404 596 453 596 q 268 526 318 596 q 218 350 218 456 l 218 53 q 206 13 218 25 q 165 0 193 0 l 154 0 q 114 13 126 0 q 101 53 101 25 l 101 633 q 154 685 101 685 m 144 950 q 183 938 164 950 l 303 864 l 422 938 q 461 950 442 950 q 503 917 503 950 q 472 879 503 900 l 349 792 q 304 778 329 778 q 257 793 279 778 l 133 879 q 103 917 103 900 q 144 950 103 950 z "},"Ś":{"ha":825,"x_min":79,"x_max":747,"o":"m 85 698 q 85 750 85 698 q 179 878 85 803 q 412 953 274 953 q 624 919 550 953 q 697 835 697 885 q 636 772 697 785 q 424 851 583 851 q 269 808 329 851 q 210 701 210 764 q 258 606 210 639 q 401 548 307 572 q 545 504 494 524 q 647 453 596 485 q 747 269 747 392 q 647 67 747 146 q 397 -11 547 -11 q 163 28 247 -11 q 79 123 79 68 q 150 196 79 178 q 382 92 201 92 q 562 138 497 92 q 626 258 626 185 q 562 369 626 331 q 360 442 497 408 q 154 535 224 476 q 85 698 85 593 m 271 1018 q 249 1039 249 1018 l 249 1051 q 274 1089 249 1072 l 524 1238 q 546 1243 531 1243 q 571 1218 571 1243 l 571 1181 q 540 1135 571 1147 l 289 1022 q 271 1018 281 1018 z "},"ś":{"ha":643,"x_min":56,"x_max":592,"o":"m 74 494 q 155 644 74 589 q 336 699 236 699 q 491 670 436 699 q 546 603 546 642 q 492 546 546 564 q 438 588 482 568 q 331 607 394 607 q 226 583 267 607 q 185 515 185 558 q 215 447 185 471 q 359 398 246 424 q 532 324 472 372 q 592 188 592 275 q 511 45 592 100 q 313 -10 431 -10 q 126 20 196 -10 q 56 99 56 50 q 101 169 56 147 q 176 106 121 132 q 315 79 232 79 q 442 110 399 79 q 486 185 486 140 q 447 256 486 231 q 292 307 407 282 q 126 378 178 332 q 74 494 74 425 m 186 761 q 164 782 164 761 l 164 794 q 189 832 164 815 l 439 981 q 461 986 446 986 q 486 961 486 986 l 486 924 q 456 878 486 890 l 204 765 q 186 761 196 761 z "},"Ŝ":{"ha":825,"x_min":79,"x_max":747,"o":"m 85 698 q 85 750 85 698 q 179 878 85 803 q 412 953 274 953 q 624 919 550 953 q 697 835 697 885 q 636 772 697 785 q 424 851 583 851 q 269 808 329 851 q 210 701 210 764 q 258 606 210 639 q 401 548 307 572 q 545 504 494 524 q 647 453 596 485 q 747 269 747 392 q 647 67 747 146 q 397 -11 547 -11 q 163 28 247 -11 q 79 123 79 68 q 150 196 79 178 q 382 92 201 92 q 562 138 497 92 q 626 258 626 185 q 562 369 626 331 q 360 442 497 408 q 154 535 224 476 q 85 698 85 593 m 249 1035 q 207 1068 207 1035 q 238 1106 207 1085 l 361 1193 q 406 1207 381 1207 q 453 1192 431 1207 l 576 1106 q 607 1068 607 1085 q 565 1035 607 1035 q 526 1047 546 1035 l 407 1121 l 288 1047 q 249 1035 268 1035 z "},"ŝ":{"ha":643,"x_min":56,"x_max":592,"o":"m 74 494 q 155 644 74 589 q 336 699 236 699 q 491 670 436 699 q 546 603 546 642 q 492 546 546 564 q 438 588 482 568 q 331 607 394 607 q 226 583 267 607 q 185 515 185 558 q 215 447 185 471 q 359 398 246 424 q 532 324 472 372 q 592 188 592 275 q 511 45 592 100 q 313 -10 431 -10 q 126 20 196 -10 q 56 99 56 50 q 101 169 56 147 q 176 106 121 132 q 315 79 232 79 q 442 110 399 79 q 486 185 486 140 q 447 256 486 231 q 292 307 407 282 q 126 378 178 332 q 74 494 74 425 m 164 778 q 122 811 122 778 q 153 849 122 828 l 276 936 q 321 950 296 950 q 368 935 346 950 l 492 849 q 522 811 522 828 q 481 778 522 778 q 442 790 461 778 l 322 864 l 203 790 q 164 778 183 778 z "},"Ş":{"ha":825,"x_min":79,"x_max":747,"o":"m 85 698 q 85 750 85 698 q 179 878 85 803 q 412 953 274 953 q 624 919 550 953 q 697 835 697 885 q 636 772 697 785 q 424 851 583 851 q 269 808 329 851 q 210 701 210 764 q 258 606 210 639 q 401 548 307 572 q 545 504 494 524 q 647 453 596 485 q 747 269 747 392 q 647 67 747 146 q 397 -11 547 -11 q 163 28 247 -11 q 79 123 79 68 q 150 196 79 178 q 382 92 201 92 q 562 138 497 92 q 626 258 626 185 q 562 369 626 331 q 360 442 497 408 q 154 535 224 476 q 85 698 85 593 m 433 -39 q 503 -59 476 -39 q 531 -122 531 -79 q 491 -192 531 -165 q 400 -218 451 -218 q 299 -157 299 -218 q 311 -124 299 -137 q 343 -111 324 -111 q 404 -146 343 -146 q 443 -136 428 -146 q 458 -110 458 -126 q 410 -79 458 -79 l 379 -79 q 347 -51 347 -79 q 351 -33 347 -44 l 372 19 l 433 19 l 415 -39 l 433 -39 z "},"ş":{"ha":643,"x_min":56,"x_max":592,"o":"m 74 494 q 155 644 74 589 q 336 699 236 699 q 491 670 436 699 q 546 603 546 642 q 492 546 546 564 q 438 588 482 568 q 331 607 394 607 q 226 583 267 607 q 185 515 185 558 q 215 447 185 471 q 359 398 246 424 q 532 324 472 372 q 592 188 592 275 q 511 45 592 100 q 313 -10 431 -10 q 126 20 196 -10 q 56 99 56 50 q 101 169 56 147 q 176 106 121 132 q 315 79 232 79 q 442 110 399 79 q 486 185 486 140 q 447 256 486 231 q 292 307 407 282 q 126 378 178 332 q 74 494 74 425 m 343 -39 q 413 -59 386 -39 q 440 -122 440 -79 q 401 -192 440 -165 q 310 -218 361 -218 q 208 -157 208 -218 q 221 -124 208 -137 q 253 -111 233 -111 q 314 -146 253 -146 q 353 -136 338 -146 q 368 -110 368 -126 q 319 -79 368 -79 l 289 -79 q 257 -51 257 -79 q 261 -33 257 -44 l 282 19 l 343 19 l 325 -39 l 343 -39 z "},"Š":{"ha":825,"x_min":79,"x_max":747,"o":"m 85 698 q 85 750 85 698 q 179 878 85 803 q 412 953 274 953 q 624 919 550 953 q 697 835 697 885 q 636 772 697 785 q 424 851 583 851 q 269 808 329 851 q 210 701 210 764 q 258 606 210 639 q 401 548 307 572 q 545 504 494 524 q 647 453 596 485 q 747 269 747 392 q 647 67 747 146 q 397 -11 547 -11 q 163 28 247 -11 q 79 123 79 68 q 150 196 79 178 q 382 92 201 92 q 562 138 497 92 q 626 258 626 185 q 562 369 626 331 q 360 442 497 408 q 154 535 224 476 q 85 698 85 593 m 249 1207 q 288 1194 268 1207 l 407 1121 l 526 1194 q 565 1207 546 1207 q 607 1174 607 1207 q 576 1136 607 1157 l 453 1049 q 408 1035 433 1035 q 361 1050 383 1035 l 238 1136 q 207 1174 207 1157 q 249 1207 207 1207 z "},"š":{"ha":643,"x_min":56,"x_max":592,"o":"m 74 494 q 155 644 74 589 q 336 699 236 699 q 491 670 436 699 q 546 603 546 642 q 492 546 546 564 q 438 588 482 568 q 331 607 394 607 q 226 583 267 607 q 185 515 185 558 q 215 447 185 471 q 359 398 246 424 q 532 324 472 372 q 592 188 592 275 q 511 45 592 100 q 313 -10 431 -10 q 126 20 196 -10 q 56 99 56 50 q 101 169 56 147 q 176 106 121 132 q 315 79 232 79 q 442 110 399 79 q 486 185 486 140 q 447 256 486 231 q 292 307 407 282 q 126 378 178 332 q 74 494 74 425 m 164 950 q 203 938 183 950 l 322 864 l 442 938 q 481 950 461 950 q 522 917 522 950 q 492 879 522 900 l 368 792 q 324 778 349 778 q 276 793 299 778 l 153 879 q 122 917 122 900 q 164 950 122 950 z "},"Ţ":{"ha":789,"x_min":46,"x_max":743,"o":"m 99 943 l 690 943 q 743 891 743 943 q 690 839 743 839 l 454 839 l 454 53 q 400 0 454 0 l 388 0 q 333 53 333 0 l 333 839 l 99 839 q 46 891 46 839 q 99 943 46 943 m 363 -201 q 351 -201 363 -201 q 321 -179 339 -201 q 303 -123 303 -157 q 329 -64 303 -89 q 395 -39 356 -39 q 465 -70 435 -39 q 494 -156 494 -101 q 449 -308 494 -244 q 339 -371 403 -371 q 293 -337 293 -371 q 369 -288 339 -326 q 399 -196 399 -250 q 363 -201 388 -201 z "},"ţ":{"ha":557,"x_min":35,"x_max":543,"o":"m 214 869 l 224 869 q 276 818 276 869 l 276 681 l 468 681 q 522 633 522 681 q 468 586 522 586 l 276 586 l 276 236 q 310 113 276 149 q 410 78 344 78 q 508 110 476 78 q 543 65 543 99 q 497 10 543 32 q 388 -11 451 -11 q 161 236 161 -11 l 161 586 l 93 586 q 49 596 63 586 q 35 633 35 606 q 93 681 35 681 l 161 681 l 161 818 q 214 869 161 869 m 248 -187 q 236 -187 248 -187 q 206 -165 224 -187 q 188 -109 188 -143 q 214 -50 188 -75 q 280 -25 240 -25 q 349 -56 319 -25 q 379 -142 379 -87 q 333 -294 379 -231 q 224 -357 288 -357 q 178 -324 178 -357 q 253 -274 224 -312 q 283 -182 283 -236 q 248 -187 272 -187 z "},"Ť":{"ha":789,"x_min":46,"x_max":743,"o":"m 99 943 l 690 943 q 743 891 743 943 q 690 839 743 839 l 454 839 l 454 53 q 400 0 454 0 l 388 0 q 333 53 333 0 l 333 839 l 99 839 q 46 891 46 839 q 99 943 46 943 m 229 1207 q 268 1194 249 1207 l 388 1121 l 507 1194 q 546 1207 526 1207 q 588 1174 588 1207 q 557 1136 588 1157 l 433 1049 q 389 1035 414 1035 q 342 1050 364 1035 l 218 1136 q 188 1174 188 1157 q 229 1207 188 1207 z "},"ť":{"ha":749,"x_min":35,"x_max":725,"o":"m 214 869 l 224 869 q 276 818 276 869 l 276 681 l 468 681 q 522 633 522 681 q 468 586 522 586 l 276 586 l 276 236 q 310 113 276 149 q 410 78 344 78 q 508 110 476 78 q 543 65 543 99 q 497 10 543 32 q 388 -11 451 -11 q 161 236 161 -11 l 161 586 l 93 586 q 49 596 63 586 q 35 633 35 606 q 93 681 35 681 l 161 681 l 161 818 q 214 869 161 869 m 594 714 q 582 714 594 714 q 551 736 569 714 q 533 792 533 758 q 560 851 533 826 q 626 876 586 876 q 695 845 665 876 q 725 760 725 814 q 679 608 725 671 q 569 544 633 544 q 524 578 524 544 q 599 627 569 589 q 629 719 629 665 q 594 714 618 714 z "},"Ŧ":{"ha":789,"x_min":46,"x_max":743,"o":"m 176 589 l 617 589 q 658 576 646 589 q 671 535 671 564 q 617 483 667 483 l 176 483 q 122 535 122 483 q 176 589 122 589 m 99 943 l 690 943 q 743 891 743 943 q 690 839 743 839 l 454 839 l 454 53 q 400 0 454 0 l 388 0 q 333 53 333 0 l 333 839 l 99 839 q 46 891 46 839 q 99 943 46 943 z "},"ŧ":{"ha":557,"x_min":35,"x_max":543,"o":"m 86 454 l 471 454 q 522 408 522 454 q 471 363 522 363 l 86 363 q 35 408 35 363 q 86 454 35 454 m 214 869 l 224 869 q 276 818 276 869 l 276 681 l 468 681 q 522 633 522 681 q 468 586 522 586 l 276 586 l 276 236 q 310 113 276 149 q 410 78 344 78 q 508 110 476 78 q 543 65 543 99 q 497 10 543 32 q 388 -11 451 -11 q 161 236 161 -11 l 161 586 l 93 586 q 49 596 63 586 q 35 633 35 606 q 93 681 35 681 l 161 681 l 161 818 q 214 869 161 869 z "},"Ũ":{"ha":1028,"x_min":135,"x_max":893,"o":"m 189 943 l 203 943 q 257 889 257 943 l 257 394 q 514 92 257 92 q 771 394 771 92 l 771 889 q 825 943 771 943 l 836 943 q 893 889 893 943 l 893 400 q 853 181 893 278 q 788 83 828 124 q 677 15 747 42 q 514 -11 607 -11 q 351 15 421 -11 q 240 83 281 42 q 175 181 200 124 q 135 400 135 278 l 135 889 q 189 943 135 943 m 501 1063 q 417 1085 451 1085 q 364 1068 383 1085 q 332 1051 344 1051 q 301 1082 301 1051 q 418 1183 301 1183 q 452 1181 439 1183 q 470 1177 465 1178 q 486 1172 475 1176 q 500 1167 497 1168 q 517 1159 503 1165 q 535 1151 532 1153 q 619 1129 585 1129 q 672 1146 653 1129 q 704 1163 692 1163 q 726 1154 717 1163 q 735 1132 735 1146 q 618 1031 735 1031 q 584 1033 597 1031 q 566 1037 571 1036 q 550 1042 561 1038 q 536 1047 539 1046 q 519 1055 533 1049 q 501 1063 504 1061 z "},"ũ":{"ha":776,"x_min":85,"x_max":668,"o":"m 138 683 l 147 683 q 200 632 200 683 l 200 275 q 368 85 200 85 q 475 122 432 85 q 553 322 553 189 l 553 632 q 607 683 553 683 l 617 683 q 656 672 644 683 q 668 632 668 660 l 668 51 q 656 12 668 24 q 615 0 643 0 l 607 0 q 553 51 553 0 l 553 121 q 470 33 533 76 q 335 -11 407 -11 q 85 268 85 -11 l 85 632 q 138 683 85 683 m 410 769 q 408 770 410 769 q 392 777 407 771 q 351 795 378 783 q 292 807 325 807 q 238 790 258 807 q 206 774 217 774 q 175 804 175 774 q 292 906 175 906 q 326 903 313 906 q 344 899 339 900 q 360 894 349 899 q 374 889 371 890 q 391 881 376 888 q 408 874 406 875 q 492 851 458 851 q 546 868 525 851 q 578 885 567 885 q 599 876 590 885 q 608 854 608 868 q 492 753 608 753 q 458 756 471 753 q 440 759 444 758 q 424 764 435 760 q 410 769 413 768 z "},"Ū":{"ha":1028,"x_min":135,"x_max":893,"o":"m 189 943 l 203 943 q 257 889 257 943 l 257 394 q 514 92 257 92 q 771 394 771 92 l 771 889 q 825 943 771 943 l 836 943 q 893 889 893 943 l 893 400 q 853 181 893 278 q 788 83 828 124 q 677 15 747 42 q 514 -11 607 -11 q 351 15 421 -11 q 240 83 281 42 q 175 181 200 124 q 135 400 135 278 l 135 889 q 189 943 135 943 m 328 1149 l 697 1149 q 749 1103 749 1149 q 697 1057 749 1057 l 328 1057 q 276 1103 276 1057 q 328 1149 276 1149 z "},"ū":{"ha":776,"x_min":85,"x_max":668,"o":"m 138 683 l 147 683 q 200 632 200 683 l 200 275 q 368 85 200 85 q 475 122 432 85 q 553 322 553 189 l 553 632 q 607 683 553 683 l 617 683 q 656 672 644 683 q 668 632 668 660 l 668 51 q 656 12 668 24 q 615 0 643 0 l 607 0 q 553 51 553 0 l 553 121 q 470 33 533 76 q 335 -11 407 -11 q 85 268 85 -11 l 85 632 q 138 683 85 683 m 201 871 l 571 871 q 622 825 622 871 q 571 779 622 779 l 201 779 q 150 825 150 779 q 201 871 150 871 z "},"Ŭ":{"ha":1028,"x_min":135,"x_max":893,"o":"m 189 943 l 203 943 q 257 889 257 943 l 257 394 q 514 92 257 92 q 771 394 771 92 l 771 889 q 825 943 771 943 l 836 943 q 893 889 893 943 l 893 400 q 853 181 893 278 q 788 83 828 124 q 677 15 747 42 q 514 -11 607 -11 q 351 15 421 -11 q 240 83 281 42 q 175 181 200 124 q 135 400 135 278 l 135 889 q 189 943 135 943 m 395 1172 q 406 1162 395 1172 q 447 1131 417 1151 q 513 1110 478 1110 q 578 1131 547 1110 q 631 1172 608 1151 q 668 1193 654 1193 q 703 1154 703 1193 q 645 1075 703 1115 q 514 1035 588 1035 q 382 1076 440 1035 q 324 1160 324 1117 q 334 1184 324 1175 q 359 1193 344 1193 q 395 1172 374 1193 z "},"ŭ":{"ha":776,"x_min":85,"x_max":668,"o":"m 138 683 l 147 683 q 200 632 200 683 l 200 275 q 368 85 200 85 q 475 122 432 85 q 553 322 553 189 l 553 632 q 607 683 553 683 l 617 683 q 656 672 644 683 q 668 632 668 660 l 668 51 q 656 12 668 24 q 615 0 643 0 l 607 0 q 553 51 553 0 l 553 121 q 470 33 533 76 q 335 -11 407 -11 q 85 268 85 -11 l 85 632 q 138 683 85 683 m 284 915 q 295 905 284 915 q 336 874 306 894 q 401 853 367 853 q 467 874 436 853 q 520 915 497 894 q 557 936 543 936 q 592 897 592 936 q 534 818 592 858 q 403 778 476 778 q 271 819 329 778 q 213 903 213 860 q 223 927 213 918 q 248 936 233 936 q 284 915 263 936 z "},"Ů":{"ha":1028,"x_min":135,"x_max":893,"o":"m 189 943 l 203 943 q 257 889 257 943 l 257 394 q 514 92 257 92 q 771 394 771 92 l 771 889 q 825 943 771 943 l 836 943 q 893 889 893 943 l 893 400 q 853 181 893 278 q 788 83 828 124 q 677 15 747 42 q 514 -11 607 -11 q 351 15 421 -11 q 240 83 281 42 q 175 181 200 124 q 135 400 135 278 l 135 889 q 189 943 135 943 m 431 1031 q 414 1047 431 1031 q 397 1117 397 1063 q 431 1203 397 1171 q 518 1235 464 1235 q 606 1203 572 1235 q 639 1117 639 1171 q 606 1031 639 1063 q 518 999 572 999 q 431 1031 464 999 m 476 1161 q 468 1153 476 1161 q 460 1117 460 1144 q 476 1072 460 1089 q 517 1056 492 1056 q 560 1073 543 1056 q 576 1117 576 1090 q 560 1161 576 1144 q 518 1178 544 1178 q 476 1161 492 1178 z "},"ů":{"ha":776,"x_min":85,"x_max":668,"o":"m 138 683 l 147 683 q 200 632 200 683 l 200 275 q 368 85 200 85 q 475 122 432 85 q 553 322 553 189 l 553 632 q 607 683 553 683 l 617 683 q 656 672 644 683 q 668 632 668 660 l 668 51 q 656 12 668 24 q 615 0 643 0 l 607 0 q 553 51 553 0 l 553 121 q 470 33 533 76 q 335 -11 407 -11 q 85 268 85 -11 l 85 632 q 138 683 85 683 m 294 774 q 278 790 294 774 q 261 860 261 806 q 294 946 261 914 q 382 978 328 978 q 469 946 436 978 q 503 860 503 914 q 469 774 503 806 q 382 742 436 742 q 294 774 328 742 m 340 905 q 332 897 340 905 q 324 860 324 889 q 340 815 324 831 q 381 799 356 799 q 424 816 407 799 q 440 861 440 833 q 424 905 440 889 q 382 921 408 921 q 340 905 356 921 z "},"Ű":{"ha":1028,"x_min":135,"x_max":893,"o":"m 189 943 l 203 943 q 257 889 257 943 l 257 394 q 514 92 257 92 q 771 394 771 92 l 771 889 q 825 943 771 943 l 836 943 q 893 889 893 943 l 893 400 q 853 181 893 278 q 788 83 828 124 q 677 15 747 42 q 514 -11 607 -11 q 351 15 421 -11 q 240 83 281 42 q 175 181 200 124 q 135 400 135 278 l 135 889 q 189 943 135 943 m 283 1024 q 261 1044 261 1024 l 261 1057 q 286 1094 261 1078 l 510 1236 q 532 1242 517 1242 q 557 1217 557 1242 l 557 1175 q 528 1129 557 1144 l 301 1028 q 283 1024 293 1024 m 546 1024 q 522 1044 522 1024 l 522 1057 q 547 1094 522 1078 l 772 1236 q 794 1242 779 1242 q 819 1217 819 1242 l 819 1175 q 790 1129 819 1146 l 564 1028 q 546 1024 556 1024 z "},"ű":{"ha":776,"x_min":85,"x_max":668,"o":"m 138 683 l 147 683 q 200 632 200 683 l 200 275 q 368 85 200 85 q 475 122 432 85 q 553 322 553 189 l 553 632 q 607 683 553 683 l 617 683 q 656 672 644 683 q 668 632 668 660 l 668 51 q 656 12 668 24 q 615 0 643 0 l 607 0 q 553 51 553 0 l 553 121 q 470 33 533 76 q 335 -11 407 -11 q 85 268 85 -11 l 85 632 q 138 683 85 683 m 131 767 q 108 788 108 767 l 108 800 q 133 838 108 821 l 357 979 q 379 985 364 985 q 404 960 404 985 l 404 918 q 375 872 404 886 l 149 771 q 131 767 140 767 m 393 767 q 369 788 369 767 l 369 800 q 394 838 369 821 l 619 979 q 642 985 626 985 q 667 960 667 985 l 667 918 q 638 872 667 889 l 411 771 q 393 767 403 767 z "},"Ų":{"ha":1028,"x_min":135,"x_max":893,"o":"m 189 943 q 135 889 135 943 l 135 400 q 175 181 135 278 q 240 83 200 124 q 351 15 281 42 q 514 -11 421 -11 q 677 15 607 -11 q 788 83 747 42 q 853 181 828 124 q 893 400 893 278 q 893 889 893 400 q 836 943 893 943 l 825 943 q 771 889 771 943 l 771 394 q 514 92 771 92 q 257 394 257 92 l 257 889 q 203 943 257 943 l 189 943 m 543 38 l 543 -10 q 489 -29 508 -10 q 469 -79 469 -49 q 538 -136 469 -136 q 585 -114 585 -136 q 608 -125 597 -114 q 619 -159 619 -136 q 592 -199 619 -182 q 514 -215 565 -215 q 426 -182 463 -215 q 389 -94 389 -149 q 431 -1 389 -39 q 543 38 472 38 z "},"ų":{"ha":776,"x_min":85,"x_max":682,"o":"m 138 683 l 147 683 q 200 632 200 683 l 200 275 q 368 85 200 85 q 475 122 432 85 q 553 322 553 189 l 553 632 q 607 683 553 683 l 617 683 q 656 672 644 683 q 668 632 668 660 l 668 51 q 656 12 668 24 q 615 0 643 0 l 607 0 q 553 51 553 0 l 553 121 q 470 33 533 76 q 335 -11 407 -11 q 85 268 85 -11 l 85 632 q 138 683 85 683 m 606 47 l 606 0 q 551 -19 571 0 q 532 -69 532 -39 q 600 -126 532 -126 q 647 -104 647 -126 q 671 -115 660 -104 q 682 -149 682 -126 q 655 -189 682 -172 q 576 -206 628 -206 q 488 -172 525 -206 q 451 -84 451 -139 q 493 9 451 -29 q 606 47 535 47 z "},"Ŵ":{"ha":1392,"x_min":75,"x_max":1300,"o":"m 117 940 l 150 940 q 211 894 203 940 l 406 128 q 509 488 433 225 q 625 894 585 750 q 686 943 639 943 l 699 943 q 758 894 744 943 q 874 488 799 750 q 978 128 950 225 q 1164 894 1086 474 q 1225 940 1172 940 l 1258 940 q 1288 930 1276 940 q 1300 906 1300 919 q 1297 882 1300 893 q 1074 81 1196 446 q 986 0 1046 0 l 965 0 q 878 75 899 0 q 692 753 829 258 q 599 415 661 639 q 506 75 536 190 q 473 20 496 40 q 418 0 450 0 l 389 0 q 301 81 329 0 q 78 882 179 446 q 75 906 75 893 q 87 930 75 919 q 117 940 99 940 m 538 1056 q 496 1089 496 1056 q 526 1126 496 1106 l 650 1214 q 694 1228 669 1228 q 742 1213 719 1228 l 865 1126 q 896 1089 896 1106 q 854 1056 896 1056 q 815 1068 835 1056 l 696 1142 l 576 1068 q 538 1056 557 1056 z "},"ŵ":{"ha":1049,"x_min":43,"x_max":1003,"o":"m 89 683 l 111 683 q 161 640 151 683 q 306 101 254 264 l 322 101 q 383 341 333 149 q 458 640 433 533 q 513 683 468 683 l 533 683 q 588 640 578 683 q 660 354 611 538 q 726 101 710 171 l 743 101 q 833 429 790 250 q 885 640 876 608 q 935 683 894 683 l 957 683 q 1003 653 1003 683 q 995 618 1003 647 q 963 493 988 589 q 924 342 939 397 q 836 68 881 188 q 740 0 810 0 l 728 0 q 671 16 689 0 q 642 68 653 32 q 526 544 560 343 l 518 544 q 407 68 479 311 q 378 16 396 32 q 321 0 360 0 l 308 0 q 214 65 239 0 q 163 212 189 131 q 125 339 138 293 q 83 497 113 385 q 43 653 43 646 q 89 683 43 683 m 364 778 q 322 811 322 778 q 353 849 322 828 l 476 936 q 521 950 496 950 q 568 935 546 950 l 692 849 q 722 811 722 828 q 681 778 722 778 q 642 790 661 778 l 522 864 l 403 790 q 364 778 383 778 z "},"Ŷ":{"ha":876,"x_min":56,"x_max":821,"o":"m 100 943 l 129 943 q 156 935 147 943 q 169 921 164 926 q 179 905 174 915 q 188 888 185 894 q 197 867 190 881 q 206 846 203 853 q 431 468 299 639 l 446 468 q 671 846 578 639 q 680 867 674 853 q 689 888 686 881 q 697 905 692 894 q 708 921 703 915 q 719 933 713 926 q 747 943 729 943 l 776 943 q 821 904 821 943 q 813 864 821 885 q 790 813 804 843 q 765 759 776 783 q 737 704 754 735 q 709 655 719 674 q 676 603 699 636 q 645 556 654 571 q 610 506 636 542 q 575 458 583 469 q 499 356 513 375 l 499 53 q 444 0 499 0 l 432 0 q 378 53 378 0 l 378 356 q 328 422 364 375 q 267 506 293 469 q 231 556 240 542 q 200 603 222 571 q 167 655 178 636 q 140 704 157 674 q 111 759 122 735 q 86 813 100 783 q 64 864 72 843 q 56 904 56 885 q 100 943 56 943 m 279 1056 q 238 1089 238 1056 q 268 1126 238 1106 l 392 1214 q 436 1228 411 1228 q 483 1213 461 1228 l 607 1126 q 638 1089 638 1106 q 596 1056 638 1056 q 557 1068 576 1056 l 438 1142 l 318 1068 q 279 1056 299 1056 z "},"ŷ":{"ha":718,"x_min":38,"x_max":668,"o":"m 81 683 l 107 683 q 161 640 151 683 q 349 101 246 307 l 361 101 q 549 640 478 389 q 603 683 561 683 l 625 683 q 668 653 668 683 q 664 633 668 644 q 314 -269 503 131 q 291 -303 303 -293 q 254 -314 279 -314 l 219 -314 q 186 -282 186 -314 q 201 -242 186 -272 q 322 1 304 -43 l 319 1 q 288 13 294 6 q 278 23 281 21 q 271 33 275 25 q 265 42 267 40 q 259 55 264 44 q 253 68 254 65 q 42 633 146 282 q 38 653 38 644 q 81 683 38 683 m 200 778 q 158 811 158 778 q 189 849 158 828 l 313 936 q 357 950 332 950 q 404 935 382 950 l 528 849 q 558 811 558 828 q 517 778 558 778 q 478 790 497 778 l 358 864 l 239 790 q 200 778 219 778 z "},"Ÿ":{"ha":876,"x_min":56,"x_max":821,"o":"m 100 943 l 129 943 q 156 935 147 943 q 169 921 164 926 q 179 905 174 915 q 188 888 185 894 q 197 867 190 881 q 206 846 203 853 q 431 468 299 639 l 446 468 q 671 846 578 639 q 680 867 674 853 q 689 888 686 881 q 697 905 692 894 q 708 921 703 915 q 719 933 713 926 q 747 943 729 943 l 776 943 q 821 904 821 943 q 813 864 821 885 q 790 813 804 843 q 765 759 776 783 q 737 704 754 735 q 709 655 719 674 q 676 603 699 636 q 645 556 654 571 q 610 506 636 542 q 575 458 583 469 q 499 356 513 375 l 499 53 q 444 0 499 0 l 432 0 q 378 53 378 0 l 378 356 q 328 422 364 375 q 267 506 293 469 q 231 556 240 542 q 200 603 222 571 q 167 655 178 636 q 140 704 157 674 q 111 759 122 735 q 86 813 100 783 q 64 864 72 843 q 56 904 56 885 q 100 943 56 943 m 299 1063 q 285 1063 299 1063 q 253 1081 272 1063 q 235 1126 235 1099 q 253 1170 235 1153 q 299 1188 272 1188 q 343 1170 325 1188 q 361 1126 361 1153 q 343 1081 361 1099 q 299 1063 325 1063 m 578 1063 q 565 1063 578 1063 q 533 1081 551 1063 q 515 1126 515 1099 q 533 1170 515 1153 q 578 1188 551 1188 q 622 1170 604 1188 q 640 1126 640 1153 q 622 1081 640 1099 q 578 1063 604 1063 z "},"Ź":{"ha":961,"x_min":114,"x_max":858,"o":"m 193 942 l 776 942 q 836 919 814 942 q 858 861 858 897 l 858 832 q 772 705 858 801 q 500 399 685 608 q 244 111 315 190 l 244 96 l 797 96 q 838 84 825 96 q 850 45 850 72 q 838 9 850 18 q 797 0 826 0 l 193 0 q 135 21 156 0 q 114 78 114 42 l 114 96 q 187 222 114 138 q 353 408 260 306 q 726 828 585 667 l 726 846 l 193 846 q 154 856 165 846 q 143 894 143 867 q 154 932 143 922 q 193 942 165 942 m 344 1018 q 322 1039 322 1018 l 322 1051 q 347 1089 322 1072 l 597 1238 q 619 1243 604 1243 q 644 1218 644 1243 l 644 1181 q 614 1135 644 1147 l 363 1022 q 344 1018 354 1018 z "},"ź":{"ha":690,"x_min":65,"x_max":632,"o":"m 136 685 l 554 685 q 606 666 586 685 q 625 615 625 647 l 625 604 q 593 538 625 571 q 413 347 561 506 q 188 107 264 188 l 188 101 l 544 101 q 626 81 615 101 q 632 51 632 69 q 582 0 632 0 l 136 0 q 65 69 65 0 l 65 83 q 101 151 65 113 q 291 361 165 219 q 481 571 417 503 l 481 583 l 136 583 q 85 634 85 583 q 136 685 85 685 m 206 761 q 183 782 183 761 l 183 794 q 208 832 183 815 l 458 981 q 481 986 465 986 q 506 961 506 986 l 506 924 q 475 878 506 890 l 224 765 q 206 761 215 761 z "},"Ż":{"ha":961,"x_min":114,"x_max":858,"o":"m 193 942 l 776 942 q 836 919 814 942 q 858 861 858 897 l 858 832 q 772 705 858 801 q 500 399 685 608 q 244 111 315 190 l 244 96 l 797 96 q 838 84 825 96 q 850 45 850 72 q 838 9 850 18 q 797 0 826 0 l 193 0 q 135 21 156 0 q 114 78 114 42 l 114 96 q 187 222 114 138 q 353 408 260 306 q 726 828 585 667 l 726 846 l 193 846 q 154 856 165 846 q 143 894 143 867 q 154 932 143 922 q 193 942 165 942 m 428 1051 q 417 1063 428 1051 q 406 1106 406 1074 q 428 1160 406 1138 q 483 1182 450 1182 q 538 1160 515 1182 q 560 1106 560 1138 q 538 1051 560 1074 q 483 1029 515 1029 q 428 1051 450 1029 z "},"ż":{"ha":690,"x_min":65,"x_max":632,"o":"m 136 685 l 554 685 q 606 666 586 685 q 625 615 625 647 l 625 604 q 593 538 625 571 q 413 347 561 506 q 188 107 264 188 l 188 101 l 544 101 q 626 81 615 101 q 632 51 632 69 q 582 0 632 0 l 136 0 q 65 69 65 0 l 65 83 q 101 151 65 113 q 291 361 165 219 q 481 571 417 503 l 481 583 l 136 583 q 85 634 85 583 q 136 685 85 685 m 290 794 q 279 806 290 794 q 268 849 268 817 q 290 903 268 881 q 345 925 313 925 q 400 903 378 925 q 422 849 422 881 q 400 794 422 817 q 345 772 378 772 q 290 794 313 772 z "},"Ž":{"ha":961,"x_min":114,"x_max":858,"o":"m 193 942 l 776 942 q 836 919 814 942 q 858 861 858 897 l 858 832 q 772 705 858 801 q 500 399 685 608 q 244 111 315 190 l 244 96 l 797 96 q 838 84 825 96 q 850 45 850 72 q 838 9 850 18 q 797 0 826 0 l 193 0 q 135 21 156 0 q 114 78 114 42 l 114 96 q 187 222 114 138 q 353 408 260 306 q 726 828 585 667 l 726 846 l 193 846 q 154 856 165 846 q 143 894 143 867 q 154 932 143 922 q 193 942 165 942 m 322 1207 q 361 1194 342 1207 l 481 1121 l 600 1194 q 639 1207 619 1207 q 681 1174 681 1207 q 650 1136 681 1157 l 526 1049 q 482 1035 507 1035 q 435 1050 457 1035 l 311 1136 q 281 1174 281 1157 q 322 1207 281 1207 z "},"ž":{"ha":690,"x_min":65,"x_max":632,"o":"m 136 685 l 554 685 q 606 666 586 685 q 625 615 625 647 l 625 604 q 593 538 625 571 q 413 347 561 506 q 188 107 264 188 l 188 101 l 544 101 q 626 81 615 101 q 632 51 632 69 q 582 0 632 0 l 136 0 q 65 69 65 0 l 65 83 q 101 151 65 113 q 291 361 165 219 q 481 571 417 503 l 481 583 l 136 583 q 85 634 85 583 q 136 685 85 685 m 201 950 q 240 938 221 950 l 360 864 l 479 938 q 518 950 499 950 q 560 917 560 950 q 529 879 560 900 l 406 792 q 361 778 386 778 q 314 793 336 778 l 190 879 q 160 917 160 900 q 201 950 160 950 z "},"ƒ":{"ha":664,"x_min":65,"x_max":601,"o":"m 119 522 q 78 533 90 522 q 65 570 65 543 q 78 607 65 597 q 119 617 90 617 l 214 617 l 226 719 q 438 940 254 940 q 563 906 524 940 q 601 832 601 871 q 521 757 601 757 q 436 838 521 838 q 367 806 388 838 q 340 715 346 775 l 328 618 l 485 619 q 538 568 538 619 q 485 519 538 519 l 315 521 l 257 -12 q 221 -90 251 -64 q 142 -117 190 -117 l 203 521 l 119 522 z "},"Ș":{"ha":825,"x_min":79,"x_max":747,"o":"m 85 698 q 85 750 85 698 q 179 878 85 803 q 412 953 274 953 q 624 919 550 953 q 697 835 697 885 q 636 772 697 785 q 424 851 583 851 q 269 808 329 851 q 210 701 210 764 q 258 606 210 639 q 401 548 307 572 q 545 504 494 524 q 647 453 596 485 q 747 269 747 392 q 647 67 747 146 q 397 -11 547 -11 q 163 28 247 -11 q 79 123 79 68 q 150 196 79 178 q 382 92 201 92 q 562 138 497 92 q 626 258 626 185 q 562 369 626 331 q 360 442 497 408 q 154 535 224 476 q 85 698 85 593 m 363 -201 q 351 -201 363 -201 q 321 -179 339 -201 q 303 -123 303 -157 q 329 -64 303 -89 q 395 -39 356 -39 q 465 -70 435 -39 q 494 -156 494 -101 q 449 -308 494 -244 q 339 -371 403 -371 q 293 -337 293 -371 q 369 -288 339 -326 q 399 -196 399 -250 q 363 -201 388 -201 z "},"ș":{"ha":643,"x_min":56,"x_max":592,"o":"m 74 494 q 155 644 74 589 q 336 699 236 699 q 491 670 436 699 q 546 603 546 642 q 492 546 546 564 q 438 588 482 568 q 331 607 394 607 q 226 583 267 607 q 185 515 185 558 q 215 447 185 471 q 359 398 246 424 q 532 324 472 372 q 592 188 592 275 q 511 45 592 100 q 313 -10 431 -10 q 126 20 196 -10 q 56 99 56 50 q 101 169 56 147 q 176 106 121 132 q 315 79 232 79 q 442 110 399 79 q 486 185 486 140 q 447 256 486 231 q 292 307 407 282 q 126 378 178 332 q 74 494 74 425 m 291 -201 q 279 -201 291 -201 q 249 -179 267 -201 q 231 -123 231 -157 q 257 -64 231 -89 q 323 -39 283 -39 q 392 -70 363 -39 q 422 -156 422 -101 q 376 -308 422 -244 q 267 -371 331 -371 q 221 -337 221 -371 q 297 -288 267 -326 q 326 -196 326 -250 q 291 -201 315 -201 z "},"ˆ":{"ha":551,"x_min":76,"x_max":476,"o":"m 118 778 q 76 811 76 778 q 107 849 76 828 l 231 936 q 275 950 250 950 q 322 935 300 950 l 446 849 q 476 811 476 828 q 435 778 476 778 q 396 790 415 778 l 276 864 l 157 790 q 118 778 138 778 z "},"ˇ":{"ha":551,"x_min":76,"x_max":476,"o":"m 118 950 q 157 938 138 950 l 276 864 l 396 938 q 435 950 415 950 q 476 917 476 950 q 446 879 476 900 l 322 792 q 278 778 303 778 q 231 793 253 778 l 107 879 q 76 917 76 900 q 118 950 76 950 z "},"˘":{"ha":553,"x_min":99,"x_max":478,"o":"m 170 915 q 181 905 170 915 q 222 874 192 894 q 288 853 253 853 q 353 874 322 853 q 406 915 383 894 q 443 936 429 936 q 478 897 478 936 q 420 818 478 858 q 289 778 363 778 q 157 819 215 778 q 99 903 99 860 q 109 927 99 918 q 134 936 119 936 q 170 915 149 936 z "},"˙":{"ha":304,"x_min":75,"x_max":229,"o":"m 97 794 q 86 806 97 794 q 75 849 75 817 q 97 903 75 881 q 152 925 119 925 q 207 903 185 925 q 229 849 229 881 q 207 794 229 817 q 152 772 185 772 q 97 794 119 772 z "},"˚":{"ha":339,"x_min":49,"x_max":290,"o":"m 82 774 q 65 790 82 774 q 49 860 49 806 q 82 946 49 914 q 169 978 115 978 q 257 946 224 978 q 290 860 290 914 q 257 774 290 806 q 169 742 224 742 q 82 774 115 742 m 128 905 q 119 897 128 905 q 111 860 111 889 q 128 815 111 831 q 169 799 144 799 q 211 816 194 799 q 228 861 228 833 q 211 905 228 889 q 169 921 194 921 q 128 905 144 921 z "},"˛":{"ha":361,"x_min":72,"x_max":303,"o":"m 226 47 l 226 0 q 172 -19 192 0 q 153 -69 153 -39 q 221 -126 153 -126 q 268 -104 268 -126 q 292 -115 281 -104 q 303 -149 303 -126 q 276 -189 303 -172 q 197 -206 249 -206 q 109 -172 146 -206 q 72 -84 72 -139 q 114 9 72 -29 q 226 47 156 47 z "},"˜":{"ha":554,"x_min":64,"x_max":497,"o":"m 299 769 q 297 770 299 769 q 281 777 296 771 q 240 795 267 783 q 181 807 214 807 q 126 790 147 807 q 94 774 106 774 q 64 804 64 774 q 181 906 64 906 q 215 903 201 906 q 233 899 228 900 q 249 894 238 899 q 263 889 260 890 q 280 881 265 888 q 297 874 294 875 q 381 851 347 851 q 435 868 414 851 q 467 885 456 885 q 488 876 479 885 q 497 854 497 868 q 381 753 497 753 q 347 756 360 753 q 328 759 333 758 q 313 764 324 760 q 299 769 301 768 z "},"˝":{"ha":707,"x_min":75,"x_max":633,"o":"m 97 767 q 75 788 75 767 l 75 800 q 100 838 75 821 l 324 979 q 346 985 331 985 q 371 960 371 985 l 371 918 q 342 872 371 886 l 115 771 q 97 767 107 767 m 360 767 q 336 788 336 767 l 336 800 q 361 838 336 821 l 586 979 q 608 985 593 985 q 633 960 633 985 l 633 918 q 604 872 633 889 l 378 771 q 360 767 369 767 z "},"Ẁ":{"ha":1392,"x_min":75,"x_max":1300,"o":"m 117 940 l 150 940 q 211 894 203 940 l 406 128 q 509 488 433 225 q 625 894 585 750 q 686 943 639 943 l 699 943 q 758 894 744 943 q 874 488 799 750 q 978 128 950 225 q 1164 894 1086 474 q 1225 940 1172 940 l 1258 940 q 1288 930 1276 940 q 1300 906 1300 919 q 1297 882 1300 893 q 1074 81 1196 446 q 986 0 1046 0 l 965 0 q 878 75 899 0 q 692 753 829 258 q 599 415 661 639 q 506 75 536 190 q 473 20 496 40 q 418 0 450 0 l 389 0 q 301 81 329 0 q 78 882 179 446 q 75 906 75 893 q 87 930 75 919 q 117 940 99 940 m 535 1201 l 535 1239 q 560 1264 535 1264 q 582 1258 572 1264 l 832 1110 q 857 1072 854 1096 l 857 1060 q 833 1039 857 1039 q 815 1043 824 1039 l 563 1156 q 535 1201 535 1168 z "},"ẁ":{"ha":1049,"x_min":43,"x_max":1003,"o":"m 89 683 l 111 683 q 161 640 151 683 q 306 101 254 264 l 322 101 q 383 341 333 149 q 458 640 433 533 q 513 683 468 683 l 533 683 q 588 640 578 683 q 660 354 611 538 q 726 101 710 171 l 743 101 q 833 429 790 250 q 885 640 876 608 q 935 683 894 683 l 957 683 q 1003 653 1003 683 q 995 618 1003 647 q 963 493 988 589 q 924 342 939 397 q 836 68 881 188 q 740 0 810 0 l 728 0 q 671 16 689 0 q 642 68 653 32 q 526 544 560 343 l 518 544 q 407 68 479 311 q 378 16 396 32 q 321 0 360 0 l 308 0 q 214 65 239 0 q 163 212 189 131 q 125 339 138 293 q 83 497 113 385 q 43 653 43 646 q 89 683 43 683 m 361 924 l 361 961 q 386 986 361 986 q 408 981 399 986 l 658 832 q 683 794 681 818 l 683 782 q 660 761 683 761 q 642 765 650 761 l 389 878 q 361 924 361 890 z "},"Ẃ":{"ha":1392,"x_min":75,"x_max":1300,"o":"m 117 940 l 150 940 q 211 894 203 940 l 406 128 q 509 488 433 225 q 625 894 585 750 q 686 943 639 943 l 699 943 q 758 894 744 943 q 874 488 799 750 q 978 128 950 225 q 1164 894 1086 474 q 1225 940 1172 940 l 1258 940 q 1288 930 1276 940 q 1300 906 1300 919 q 1297 882 1300 893 q 1074 81 1196 446 q 986 0 1046 0 l 965 0 q 878 75 899 0 q 692 753 829 258 q 599 415 661 639 q 506 75 536 190 q 473 20 496 40 q 418 0 450 0 l 389 0 q 301 81 329 0 q 78 882 179 446 q 75 906 75 893 q 87 930 75 919 q 117 940 99 940 m 557 1039 q 535 1060 535 1039 l 535 1072 q 560 1110 535 1093 l 810 1258 q 832 1264 817 1264 q 857 1239 857 1264 l 857 1201 q 826 1156 857 1168 l 575 1043 q 557 1039 567 1039 z "},"ẃ":{"ha":1049,"x_min":43,"x_max":1003,"o":"m 89 683 l 111 683 q 161 640 151 683 q 306 101 254 264 l 322 101 q 383 341 333 149 q 458 640 433 533 q 513 683 468 683 l 533 683 q 588 640 578 683 q 660 354 611 538 q 726 101 710 171 l 743 101 q 833 429 790 250 q 885 640 876 608 q 935 683 894 683 l 957 683 q 1003 653 1003 683 q 995 618 1003 647 q 963 493 988 589 q 924 342 939 397 q 836 68 881 188 q 740 0 810 0 l 728 0 q 671 16 689 0 q 642 68 653 32 q 526 544 560 343 l 518 544 q 407 68 479 311 q 378 16 396 32 q 321 0 360 0 l 308 0 q 214 65 239 0 q 163 212 189 131 q 125 339 138 293 q 83 497 113 385 q 43 653 43 646 q 89 683 43 683 m 383 761 q 361 782 361 761 l 361 794 q 386 832 361 815 l 636 981 q 658 986 643 986 q 683 961 683 986 l 683 924 q 653 878 683 890 l 401 765 q 383 761 393 761 z "},"Ẅ":{"ha":1392,"x_min":75,"x_max":1300,"o":"m 117 940 l 150 940 q 211 894 203 940 l 406 128 q 509 488 433 225 q 625 894 585 750 q 686 943 639 943 l 699 943 q 758 894 744 943 q 874 488 799 750 q 978 128 950 225 q 1164 894 1086 474 q 1225 940 1172 940 l 1258 940 q 1288 930 1276 940 q 1300 906 1300 919 q 1297 882 1300 893 q 1074 81 1196 446 q 986 0 1046 0 l 965 0 q 878 75 899 0 q 692 753 829 258 q 599 415 661 639 q 506 75 536 190 q 473 20 496 40 q 418 0 450 0 l 389 0 q 301 81 329 0 q 78 882 179 446 q 75 906 75 893 q 87 930 75 919 q 117 940 99 940 m 557 1063 q 544 1063 557 1063 q 512 1081 531 1063 q 493 1126 493 1099 q 512 1170 493 1153 q 557 1188 531 1188 q 601 1170 583 1188 q 619 1126 619 1153 q 601 1081 619 1099 q 557 1063 583 1063 m 836 1063 q 823 1063 836 1063 q 792 1081 810 1063 q 774 1126 774 1099 q 792 1170 774 1153 q 836 1188 810 1188 q 881 1170 863 1188 q 899 1126 899 1153 q 881 1081 899 1099 q 836 1063 863 1063 z "},"ẅ":{"ha":1049,"x_min":43,"x_max":1003,"o":"m 89 683 l 111 683 q 161 640 151 683 q 306 101 254 264 l 322 101 q 383 341 333 149 q 458 640 433 533 q 513 683 468 683 l 533 683 q 588 640 578 683 q 660 354 611 538 q 726 101 710 171 l 743 101 q 833 429 790 250 q 885 640 876 608 q 935 683 894 683 l 957 683 q 1003 653 1003 683 q 995 618 1003 647 q 963 493 988 589 q 924 342 939 397 q 836 68 881 188 q 740 0 810 0 l 728 0 q 671 16 689 0 q 642 68 653 32 q 526 544 560 343 l 518 544 q 407 68 479 311 q 378 16 396 32 q 321 0 360 0 l 308 0 q 214 65 239 0 q 163 212 189 131 q 125 339 138 293 q 83 497 113 385 q 43 653 43 646 q 89 683 43 683 m 383 785 q 370 785 383 785 q 338 803 357 785 q 319 848 319 821 q 338 892 319 875 q 383 910 357 910 q 428 892 410 910 q 446 848 446 875 q 428 803 446 821 q 383 785 410 785 m 663 785 q 649 785 663 785 q 618 803 636 785 q 600 848 600 821 q 618 892 600 875 q 663 910 636 910 q 707 892 689 910 q 725 848 725 875 q 707 803 725 821 q 663 785 689 785 z "},"Ỳ":{"ha":876,"x_min":56,"x_max":821,"o":"m 100 943 l 129 943 q 156 935 147 943 q 169 921 164 926 q 179 905 174 915 q 188 888 185 894 q 197 867 190 881 q 206 846 203 853 q 431 468 299 639 l 446 468 q 671 846 578 639 q 680 867 674 853 q 689 888 686 881 q 697 905 692 894 q 708 921 703 915 q 719 933 713 926 q 747 943 729 943 l 776 943 q 821 904 821 943 q 813 864 821 885 q 790 813 804 843 q 765 759 776 783 q 737 704 754 735 q 709 655 719 674 q 676 603 699 636 q 645 556 654 571 q 610 506 636 542 q 575 458 583 469 q 499 356 513 375 l 499 53 q 444 0 499 0 l 432 0 q 378 53 378 0 l 378 356 q 328 422 364 375 q 267 506 293 469 q 231 556 240 542 q 200 603 222 571 q 167 655 178 636 q 140 704 157 674 q 111 759 122 735 q 86 813 100 783 q 64 864 72 843 q 56 904 56 885 q 100 943 56 943 m 276 1201 l 276 1239 q 301 1264 276 1264 q 324 1258 314 1264 l 574 1110 q 599 1072 596 1096 l 599 1060 q 575 1039 599 1039 q 557 1043 565 1039 l 304 1156 q 276 1201 276 1168 z "},"ỳ":{"ha":718,"x_min":38,"x_max":668,"o":"m 81 683 l 107 683 q 161 640 151 683 q 349 101 246 307 l 361 101 q 549 640 478 389 q 603 683 561 683 l 625 683 q 668 653 668 683 q 664 633 668 644 q 314 -269 503 131 q 291 -303 303 -293 q 254 -314 279 -314 l 219 -314 q 186 -282 186 -314 q 201 -242 186 -272 q 322 1 304 -43 l 319 1 q 288 13 294 6 q 278 23 281 21 q 271 33 275 25 q 265 42 267 40 q 259 55 264 44 q 253 68 254 65 q 42 633 146 282 q 38 653 38 644 q 81 683 38 683 m 197 924 l 197 961 q 222 986 197 986 q 244 981 235 986 l 494 832 q 519 794 517 818 l 519 782 q 496 761 519 761 q 478 765 486 761 l 225 878 q 197 924 197 890 z "},"–":{"ha":814,"x_min":69,"x_max":744,"o":"m 121 454 l 693 454 q 744 408 744 454 q 693 363 744 363 l 121 363 q 69 408 69 363 q 121 454 69 454 z "},"—":{"ha":1176,"x_min":69,"x_max":1107,"o":"m 121 454 l 1056 454 q 1107 408 1107 454 q 1056 363 1107 363 l 121 363 q 69 408 69 363 q 121 454 69 454 z "},"‘":{"ha":271,"x_min":28,"x_max":229,"o":"m 159 804 q 171 804 159 804 q 201 782 183 804 q 219 726 219 760 q 193 667 219 692 q 127 642 167 642 q 58 673 88 642 q 28 758 28 704 q 74 910 28 847 q 183 974 119 974 q 229 940 229 974 q 153 891 183 929 q 124 799 124 853 q 159 804 135 804 z "},"’":{"ha":271,"x_min":42,"x_max":243,"o":"m 112 811 q 100 811 112 811 q 69 833 88 811 q 51 890 51 856 q 78 949 51 924 q 144 974 104 974 q 213 942 183 974 q 243 857 243 911 q 197 705 243 768 q 88 642 151 642 q 42 675 42 642 q 117 724 88 686 q 147 817 147 763 q 112 811 136 811 z "},"‚":{"ha":363,"x_min":81,"x_max":282,"o":"m 151 7 q 139 7 151 7 q 108 29 126 7 q 90 85 90 51 q 117 144 90 119 q 183 169 143 169 q 252 138 222 169 q 282 53 282 107 q 236 -99 282 -36 q 126 -162 190 -162 q 81 -129 81 -162 q 156 -80 126 -118 q 186 13 186 -42 q 151 7 175 7 z "},"“":{"ha":533,"x_min":42,"x_max":478,"o":"m 173 804 q 185 804 173 804 q 215 782 197 804 q 233 726 233 760 q 207 667 233 692 q 141 642 181 642 q 72 673 101 642 q 42 758 42 704 q 88 910 42 847 q 197 974 133 974 q 243 940 243 974 q 167 891 197 929 q 138 799 138 853 q 173 804 149 804 m 408 804 q 420 804 408 804 q 450 782 432 804 q 468 726 468 760 q 442 667 468 692 q 376 642 415 642 q 306 673 336 642 q 276 758 276 704 q 322 910 276 847 q 432 974 368 974 q 478 940 478 974 q 402 891 432 929 q 372 799 372 853 q 408 804 383 804 z "},"”":{"ha":533,"x_min":56,"x_max":492,"o":"m 126 811 q 114 811 126 811 q 83 833 101 811 q 65 890 65 856 q 92 949 65 924 q 158 974 118 974 q 227 942 197 974 q 257 857 257 911 q 211 705 257 768 q 101 642 165 642 q 56 675 56 642 q 131 724 101 686 q 161 817 161 763 q 126 811 150 811 m 360 811 q 348 811 360 811 q 318 833 336 811 q 300 890 300 856 q 326 949 300 924 q 392 974 353 974 q 462 942 432 974 q 492 857 492 911 q 446 705 492 768 q 336 642 400 642 q 290 675 290 642 q 366 724 336 686 q 396 817 396 763 q 360 811 385 811 z "},"„":{"ha":533,"x_min":56,"x_max":492,"o":"m 360 7 q 348 7 360 7 q 318 29 336 7 q 300 85 300 51 q 326 144 300 119 q 392 169 353 169 q 462 138 432 169 q 492 53 492 107 q 446 -99 492 -36 q 336 -162 400 -162 q 290 -129 290 -162 q 366 -80 336 -118 q 396 13 396 -42 q 360 7 385 7 m 126 7 q 114 7 126 7 q 83 29 101 7 q 65 85 65 51 q 92 144 65 119 q 158 169 118 169 q 227 138 197 169 q 257 53 257 107 q 211 -99 257 -36 q 101 -162 165 -162 q 56 -129 56 -162 q 131 -80 101 -118 q 161 13 161 -42 q 126 7 150 7 z "},"†":{"ha":588,"x_min":57,"x_max":531,"o":"m 108 690 l 236 690 l 236 921 q 248 960 236 949 q 289 972 260 972 l 299 972 q 351 921 351 972 l 351 690 l 479 690 q 531 644 531 690 q 479 599 531 599 l 351 599 l 351 53 q 299 0 351 0 l 289 0 q 248 13 260 0 q 236 53 236 25 l 236 599 l 108 599 q 57 644 57 599 q 108 690 57 690 z "},"‡":{"ha":588,"x_min":57,"x_max":531,"o":"m 108 690 l 236 690 l 236 921 q 248 960 236 949 q 289 972 260 972 l 299 972 q 351 921 351 972 l 351 690 l 479 690 q 531 644 531 690 q 479 599 531 599 l 351 599 l 351 415 l 479 415 q 531 369 531 415 q 479 324 531 324 l 351 324 l 351 53 q 299 0 351 0 l 289 0 q 248 13 260 0 q 236 53 236 25 l 236 324 l 108 324 q 57 369 57 324 q 108 415 57 415 l 236 415 l 236 599 l 108 599 q 57 644 57 599 q 108 690 57 690 z "},"•":{"ha":406,"x_min":68,"x_max":338,"o":"m 107 576 q 126 595 107 576 q 203 614 146 614 q 299 576 260 614 q 338 479 338 538 q 299 383 338 421 q 203 346 260 346 q 107 383 146 346 q 68 479 68 421 q 107 576 68 538 z "},"…":{"ha":925,"x_min":90,"x_max":835,"o":"m 90 79 q 90 99 90 79 q 117 144 90 119 q 181 169 143 169 q 246 144 219 169 q 272 79 272 119 q 246 14 272 39 q 181 -11 219 -11 q 117 14 143 -11 q 90 79 90 39 m 378 79 q 378 99 378 79 q 404 144 378 119 q 469 169 431 169 q 533 144 507 169 q 560 79 560 119 q 533 14 560 39 q 469 -11 507 -11 q 404 14 431 -11 q 378 79 378 39 m 653 79 q 653 99 653 79 q 679 144 653 119 q 744 169 706 169 q 808 144 782 169 q 835 79 835 119 q 808 14 835 39 q 744 -11 782 -11 q 679 14 706 -11 q 653 79 653 39 z "},"‰":{"ha":1460,"x_min":69,"x_max":1390,"o":"m 1069 332 q 1097 357 1069 332 q 1203 382 1125 382 q 1335 332 1281 382 q 1390 191 1390 282 q 1335 50 1390 100 q 1203 0 1281 0 q 1069 50 1125 0 q 1014 191 1014 100 q 1069 332 1014 282 m 1276 274 q 1262 288 1276 274 q 1203 303 1247 303 q 1129 274 1158 303 q 1100 192 1100 244 q 1129 109 1100 139 q 1203 79 1158 79 q 1276 109 1247 79 q 1306 192 1306 139 q 1276 274 1306 244 m 631 332 q 658 357 631 332 q 764 382 686 382 q 897 332 842 382 q 951 191 951 282 q 897 50 951 100 q 764 0 842 0 q 631 50 686 0 q 575 191 575 100 q 631 332 575 282 m 838 274 q 823 288 838 274 q 764 303 808 303 q 690 274 719 303 q 661 192 661 244 q 690 109 661 139 q 764 79 719 79 q 838 109 808 79 q 867 192 867 139 q 838 274 867 244 m 125 896 q 153 921 125 896 q 258 946 181 946 q 391 896 336 946 q 446 755 446 846 q 391 614 446 664 q 258 564 336 564 q 125 614 181 564 q 69 755 69 664 q 125 896 69 846 m 332 838 q 317 852 332 838 q 258 867 303 867 q 185 838 214 867 q 156 756 156 808 q 185 673 156 703 q 258 643 214 643 q 332 673 303 643 q 361 756 361 703 q 332 838 361 808 m 910 954 q 929 920 929 938 q 914 885 929 903 l 200 28 q 161 4 181 4 q 127 19 142 4 q 113 50 113 35 q 128 85 113 65 l 842 943 q 876 965 860 965 q 910 954 892 965 z "},"‹":{"ha":475,"x_min":93,"x_max":381,"o":"m 119 290 q 93 360 93 324 q 115 424 93 396 q 188 520 136 451 q 269 622 239 589 q 323 654 299 654 q 364 640 347 654 q 381 608 381 625 q 368 575 381 592 l 203 360 l 368 144 q 381 111 381 128 q 364 80 381 94 q 324 65 347 65 q 267 103 300 65 q 119 290 214 160 z "},"›":{"ha":475,"x_min":94,"x_max":382,"o":"m 151 654 q 163 654 151 654 q 205 622 175 654 q 287 519 235 589 q 360 422 339 450 q 382 360 382 394 q 360 298 382 326 q 287 201 339 269 q 205 99 235 132 q 151 65 175 65 q 111 80 128 65 q 94 111 94 94 q 107 144 94 128 l 272 360 l 107 575 q 94 608 94 592 q 111 640 94 625 q 151 654 128 654 z "},"⁄":{"ha":592,"x_min":33,"x_max":561,"o":"m 511 919 q 542 910 522 919 q 561 881 561 900 q 553 846 561 863 l 124 38 q 85 7 106 7 q 49 21 64 7 q 33 49 33 35 q 42 81 33 64 l 471 889 q 511 919 486 919 z "},"€":{"ha":926,"x_min":47,"x_max":864,"o":"m 296 514 q 294 467 294 499 q 299 404 294 436 l 636 404 q 676 392 664 404 q 688 351 688 381 q 636 300 688 304 l 317 300 q 415 145 349 199 q 575 92 482 92 q 724 132 668 92 q 786 247 779 172 q 841 223 818 244 q 864 172 864 201 q 783 43 864 96 q 566 -10 701 -10 q 331 70 431 -10 q 194 300 231 150 l 100 300 q 47 352 47 300 q 99 404 47 404 l 178 404 q 175 474 175 426 l 175 514 l 100 514 q 47 566 47 514 q 99 618 47 618 l 189 618 q 323 867 221 781 q 564 954 425 954 q 781 906 703 954 q 858 776 858 857 q 835 720 858 740 q 775 697 811 700 q 718 810 771 771 q 569 849 665 849 q 406 790 474 849 q 310 618 338 731 l 636 618 q 688 568 688 618 q 636 514 688 518 l 296 514 z "},"™":{"ha":1088,"x_min":61,"x_max":992,"o":"m 581 865 l 582 503 q 551 469 582 469 l 540 469 q 508 503 508 469 q 511 914 508 639 q 542 943 511 943 l 588 943 q 647 906 632 943 q 750 540 694 729 q 807 742 771 611 q 853 908 843 874 q 911 943 864 943 l 960 943 q 992 914 992 943 l 992 503 q 961 469 992 469 l 949 469 q 918 503 918 469 l 918 865 l 913 865 q 851 668 889 796 q 801 499 814 540 q 764 469 792 469 l 736 469 q 699 499 707 469 l 586 865 l 581 865 m 415 879 l 290 879 l 290 503 q 256 469 290 469 l 249 469 q 218 503 218 469 l 218 879 l 92 879 q 61 911 61 879 q 92 943 61 943 l 415 943 q 444 911 444 943 q 415 879 444 879 z "},"−":{"ha":822,"x_min":69,"x_max":753,"o":"m 121 399 l 701 399 q 753 353 753 399 q 701 307 753 307 l 121 307 q 69 353 69 307 q 121 399 69 399 z "},"≈":{"ha":554,"x_min":61,"x_max":497,"o":"m 299 221 q 297 222 299 221 q 281 228 296 222 q 240 247 267 235 q 181 258 214 258 q 126 242 147 258 q 94 225 106 225 q 64 256 64 225 q 181 357 64 357 q 215 354 201 357 q 233 351 228 351 q 249 346 238 350 q 263 340 260 342 q 280 333 265 339 q 297 325 294 326 q 381 303 347 303 q 435 319 414 303 q 467 336 456 336 q 488 328 479 336 q 497 306 497 319 q 381 204 497 204 q 347 207 360 204 q 328 210 333 210 q 313 215 324 211 q 299 221 301 219 m 261 436 q 177 458 211 458 q 123 442 143 458 q 92 425 103 425 q 61 456 61 425 q 178 557 61 557 q 212 554 199 557 q 230 551 225 551 q 246 546 235 550 q 260 540 257 542 q 277 533 263 539 q 294 525 292 526 q 378 503 344 503 q 431 519 411 503 q 464 536 451 536 q 485 528 476 536 q 494 506 494 519 q 378 404 494 404 q 344 407 357 404 q 326 410 331 410 q 310 415 321 411 q 296 421 299 419 q 278 428 293 422 q 261 436 264 435 z "},"≠":{"ha":729,"x_min":68,"x_max":682,"o":"m 588 678 q 628 700 606 700 q 667 686 651 700 q 682 657 682 672 q 669 628 682 642 l 168 26 q 126 3 149 3 q 88 16 103 3 q 72 43 72 29 q 86 75 72 57 l 588 678 m 119 543 l 610 543 q 661 497 661 543 q 610 451 661 451 l 119 451 q 68 497 68 451 q 119 543 68 543 m 119 297 l 610 297 q 661 251 661 297 q 610 206 661 206 l 119 206 q 68 251 68 206 q 119 297 68 297 z "},"≤":{"ha":781,"x_min":111,"x_max":686,"o":"m 165 0 q 111 51 111 0 q 164 104 111 103 l 632 104 q 686 54 686 104 q 632 0 686 4 l 165 0 m 640 739 q 672 692 672 739 l 672 685 q 629 625 672 640 q 404 531 550 596 q 236 456 258 465 l 236 429 q 631 260 556 292 q 672 201 672 242 l 672 194 q 639 147 672 147 q 438 230 626 147 q 197 334 249 313 q 128 376 144 356 q 111 432 111 396 l 111 453 q 127 508 111 490 q 199 551 143 526 q 582 719 256 576 q 640 739 628 739 z "},"≥":{"ha":781,"x_min":94,"x_max":669,"o":"m 149 0 q 94 51 94 0 q 147 104 94 103 l 615 104 q 669 54 669 104 q 615 0 669 4 l 149 0 m 660 453 l 660 432 q 644 376 660 394 q 589 340 628 357 l 189 167 q 131 147 143 147 q 97 194 97 147 l 97 201 q 140 260 97 240 q 535 429 460 396 l 535 456 q 331 543 464 486 q 142 625 199 600 q 97 685 97 639 l 97 692 q 129 739 97 739 q 158 733 144 739 q 568 553 510 578 q 643 508 626 528 q 660 453 660 488 z "}}}
